G04 #@! TF.GenerationSoftware,KiCad,Pcbnew,8.0.7*
G04 #@! TF.CreationDate,2025-02-15T14:10:27-06:00*
G04 #@! TF.ProjectId,Rocket,526f636b-6574-42e6-9b69-6361645f7063,rev?*
G04 #@! TF.SameCoordinates,Original*
G04 #@! TF.FileFunction,Legend,Top*
G04 #@! TF.FilePolarity,Positive*
%FSLAX46Y46*%
G04 Gerber Fmt 4.6, Leading zero omitted, Abs format (unit mm)*
G04 Created by KiCad (PCBNEW 8.0.7) date 2025-02-15 14:10:27*
%MOMM*%
%LPD*%
G01*
G04 APERTURE LIST*
G04 Aperture macros list*
%AMRoundRect*
0 Rectangle with rounded corners*
0 $1 Rounding radius*
0 $2 $3 $4 $5 $6 $7 $8 $9 X,Y pos of 4 corners*
0 Add a 4 corners polygon primitive as box body*
4,1,4,$2,$3,$4,$5,$6,$7,$8,$9,$2,$3,0*
0 Add four circle primitives for the rounded corners*
1,1,$1+$1,$2,$3*
1,1,$1+$1,$4,$5*
1,1,$1+$1,$6,$7*
1,1,$1+$1,$8,$9*
0 Add four rect primitives between the rounded corners*
20,1,$1+$1,$2,$3,$4,$5,0*
20,1,$1+$1,$4,$5,$6,$7,0*
20,1,$1+$1,$6,$7,$8,$9,0*
20,1,$1+$1,$8,$9,$2,$3,0*%
G04 Aperture macros list end*
%ADD10C,0.150000*%
%ADD11C,0.125000*%
%ADD12C,0.100000*%
%ADD13C,0.120000*%
%ADD14C,0.152400*%
%ADD15C,0.508000*%
%ADD16R,1.803400X1.803400*%
%ADD17C,1.803400*%
%ADD18RoundRect,0.250000X0.620000X0.845000X-0.620000X0.845000X-0.620000X-0.845000X0.620000X-0.845000X0*%
%ADD19O,1.740000X2.190000*%
%ADD20O,1.700000X1.700000*%
%ADD21R,1.700000X1.700000*%
%ADD22RoundRect,0.218750X0.256250X-0.218750X0.256250X0.218750X-0.256250X0.218750X-0.256250X-0.218750X0*%
%ADD23RoundRect,0.075000X-0.700000X-0.075000X0.700000X-0.075000X0.700000X0.075000X-0.700000X0.075000X0*%
%ADD24RoundRect,0.075000X-0.075000X-0.700000X0.075000X-0.700000X0.075000X0.700000X-0.075000X0.700000X0*%
%ADD25RoundRect,0.100000X-0.100000X0.130000X-0.100000X-0.130000X0.100000X-0.130000X0.100000X0.130000X0*%
%ADD26RoundRect,0.100000X0.100000X-0.217500X0.100000X0.217500X-0.100000X0.217500X-0.100000X-0.217500X0*%
%ADD27RoundRect,0.100000X0.100000X-0.130000X0.100000X0.130000X-0.100000X0.130000X-0.100000X-0.130000X0*%
%ADD28RoundRect,0.100000X-0.100000X0.217500X-0.100000X-0.217500X0.100000X-0.217500X0.100000X0.217500X0*%
%ADD29R,1.498600X0.558800*%
%ADD30R,0.660400X2.768600*%
%ADD31R,0.800000X1.500000*%
%ADD32RoundRect,0.362500X-0.362500X-0.637500X0.362500X-0.637500X0.362500X0.637500X-0.362500X0.637500X0*%
%ADD33R,2.209800X2.260600*%
%ADD34R,3.835400X0.812800*%
%ADD35RoundRect,0.100000X0.217500X0.100000X-0.217500X0.100000X-0.217500X-0.100000X0.217500X-0.100000X0*%
G04 APERTURE END LIST*
D10*
X155906666Y-47874819D02*
X155906666Y-48589104D01*
X155906666Y-48589104D02*
X155859047Y-48731961D01*
X155859047Y-48731961D02*
X155763809Y-48827200D01*
X155763809Y-48827200D02*
X155620952Y-48874819D01*
X155620952Y-48874819D02*
X155525714Y-48874819D01*
X156287619Y-47874819D02*
X156906666Y-47874819D01*
X156906666Y-47874819D02*
X156573333Y-48255771D01*
X156573333Y-48255771D02*
X156716190Y-48255771D01*
X156716190Y-48255771D02*
X156811428Y-48303390D01*
X156811428Y-48303390D02*
X156859047Y-48351009D01*
X156859047Y-48351009D02*
X156906666Y-48446247D01*
X156906666Y-48446247D02*
X156906666Y-48684342D01*
X156906666Y-48684342D02*
X156859047Y-48779580D01*
X156859047Y-48779580D02*
X156811428Y-48827200D01*
X156811428Y-48827200D02*
X156716190Y-48874819D01*
X156716190Y-48874819D02*
X156430476Y-48874819D01*
X156430476Y-48874819D02*
X156335238Y-48827200D01*
X156335238Y-48827200D02*
X156287619Y-48779580D01*
X106141666Y-91824819D02*
X106141666Y-92539104D01*
X106141666Y-92539104D02*
X106094047Y-92681961D01*
X106094047Y-92681961D02*
X105998809Y-92777200D01*
X105998809Y-92777200D02*
X105855952Y-92824819D01*
X105855952Y-92824819D02*
X105760714Y-92824819D01*
X106570238Y-91920057D02*
X106617857Y-91872438D01*
X106617857Y-91872438D02*
X106713095Y-91824819D01*
X106713095Y-91824819D02*
X106951190Y-91824819D01*
X106951190Y-91824819D02*
X107046428Y-91872438D01*
X107046428Y-91872438D02*
X107094047Y-91920057D01*
X107094047Y-91920057D02*
X107141666Y-92015295D01*
X107141666Y-92015295D02*
X107141666Y-92110533D01*
X107141666Y-92110533D02*
X107094047Y-92253390D01*
X107094047Y-92253390D02*
X106522619Y-92824819D01*
X106522619Y-92824819D02*
X107141666Y-92824819D01*
X159354819Y-68838094D02*
X158354819Y-68838094D01*
X158354819Y-68838094D02*
X158354819Y-68599999D01*
X158354819Y-68599999D02*
X158402438Y-68457142D01*
X158402438Y-68457142D02*
X158497676Y-68361904D01*
X158497676Y-68361904D02*
X158592914Y-68314285D01*
X158592914Y-68314285D02*
X158783390Y-68266666D01*
X158783390Y-68266666D02*
X158926247Y-68266666D01*
X158926247Y-68266666D02*
X159116723Y-68314285D01*
X159116723Y-68314285D02*
X159211961Y-68361904D01*
X159211961Y-68361904D02*
X159307200Y-68457142D01*
X159307200Y-68457142D02*
X159354819Y-68599999D01*
X159354819Y-68599999D02*
X159354819Y-68838094D01*
X159354819Y-67314285D02*
X159354819Y-67885713D01*
X159354819Y-67599999D02*
X158354819Y-67599999D01*
X158354819Y-67599999D02*
X158497676Y-67695237D01*
X158497676Y-67695237D02*
X158592914Y-67790475D01*
X158592914Y-67790475D02*
X158640533Y-67885713D01*
X139738095Y-61554819D02*
X139738095Y-62364342D01*
X139738095Y-62364342D02*
X139785714Y-62459580D01*
X139785714Y-62459580D02*
X139833333Y-62507200D01*
X139833333Y-62507200D02*
X139928571Y-62554819D01*
X139928571Y-62554819D02*
X140119047Y-62554819D01*
X140119047Y-62554819D02*
X140214285Y-62507200D01*
X140214285Y-62507200D02*
X140261904Y-62459580D01*
X140261904Y-62459580D02*
X140309523Y-62364342D01*
X140309523Y-62364342D02*
X140309523Y-61554819D01*
X141309523Y-62554819D02*
X140738095Y-62554819D01*
X141023809Y-62554819D02*
X141023809Y-61554819D01*
X141023809Y-61554819D02*
X140928571Y-61697676D01*
X140928571Y-61697676D02*
X140833333Y-61792914D01*
X140833333Y-61792914D02*
X140738095Y-61840533D01*
X158909580Y-60066666D02*
X158957200Y-60114285D01*
X158957200Y-60114285D02*
X159004819Y-60257142D01*
X159004819Y-60257142D02*
X159004819Y-60352380D01*
X159004819Y-60352380D02*
X158957200Y-60495237D01*
X158957200Y-60495237D02*
X158861961Y-60590475D01*
X158861961Y-60590475D02*
X158766723Y-60638094D01*
X158766723Y-60638094D02*
X158576247Y-60685713D01*
X158576247Y-60685713D02*
X158433390Y-60685713D01*
X158433390Y-60685713D02*
X158242914Y-60638094D01*
X158242914Y-60638094D02*
X158147676Y-60590475D01*
X158147676Y-60590475D02*
X158052438Y-60495237D01*
X158052438Y-60495237D02*
X158004819Y-60352380D01*
X158004819Y-60352380D02*
X158004819Y-60257142D01*
X158004819Y-60257142D02*
X158052438Y-60114285D01*
X158052438Y-60114285D02*
X158100057Y-60066666D01*
X158004819Y-59209523D02*
X158004819Y-59399999D01*
X158004819Y-59399999D02*
X158052438Y-59495237D01*
X158052438Y-59495237D02*
X158100057Y-59542856D01*
X158100057Y-59542856D02*
X158242914Y-59638094D01*
X158242914Y-59638094D02*
X158433390Y-59685713D01*
X158433390Y-59685713D02*
X158814342Y-59685713D01*
X158814342Y-59685713D02*
X158909580Y-59638094D01*
X158909580Y-59638094D02*
X158957200Y-59590475D01*
X158957200Y-59590475D02*
X159004819Y-59495237D01*
X159004819Y-59495237D02*
X159004819Y-59304761D01*
X159004819Y-59304761D02*
X158957200Y-59209523D01*
X158957200Y-59209523D02*
X158909580Y-59161904D01*
X158909580Y-59161904D02*
X158814342Y-59114285D01*
X158814342Y-59114285D02*
X158576247Y-59114285D01*
X158576247Y-59114285D02*
X158481009Y-59161904D01*
X158481009Y-59161904D02*
X158433390Y-59209523D01*
X158433390Y-59209523D02*
X158385771Y-59304761D01*
X158385771Y-59304761D02*
X158385771Y-59495237D01*
X158385771Y-59495237D02*
X158433390Y-59590475D01*
X158433390Y-59590475D02*
X158481009Y-59638094D01*
X158481009Y-59638094D02*
X158576247Y-59685713D01*
D11*
X117978571Y-51377190D02*
X117954762Y-51401000D01*
X117954762Y-51401000D02*
X117883333Y-51424809D01*
X117883333Y-51424809D02*
X117835714Y-51424809D01*
X117835714Y-51424809D02*
X117764286Y-51401000D01*
X117764286Y-51401000D02*
X117716667Y-51353380D01*
X117716667Y-51353380D02*
X117692857Y-51305761D01*
X117692857Y-51305761D02*
X117669048Y-51210523D01*
X117669048Y-51210523D02*
X117669048Y-51139095D01*
X117669048Y-51139095D02*
X117692857Y-51043857D01*
X117692857Y-51043857D02*
X117716667Y-50996238D01*
X117716667Y-50996238D02*
X117764286Y-50948619D01*
X117764286Y-50948619D02*
X117835714Y-50924809D01*
X117835714Y-50924809D02*
X117883333Y-50924809D01*
X117883333Y-50924809D02*
X117954762Y-50948619D01*
X117954762Y-50948619D02*
X117978571Y-50972428D01*
X118454762Y-51424809D02*
X118169048Y-51424809D01*
X118311905Y-51424809D02*
X118311905Y-50924809D01*
X118311905Y-50924809D02*
X118264286Y-50996238D01*
X118264286Y-50996238D02*
X118216667Y-51043857D01*
X118216667Y-51043857D02*
X118169048Y-51067666D01*
X118621428Y-50924809D02*
X118930952Y-50924809D01*
X118930952Y-50924809D02*
X118764285Y-51115285D01*
X118764285Y-51115285D02*
X118835714Y-51115285D01*
X118835714Y-51115285D02*
X118883333Y-51139095D01*
X118883333Y-51139095D02*
X118907142Y-51162904D01*
X118907142Y-51162904D02*
X118930952Y-51210523D01*
X118930952Y-51210523D02*
X118930952Y-51329571D01*
X118930952Y-51329571D02*
X118907142Y-51377190D01*
X118907142Y-51377190D02*
X118883333Y-51401000D01*
X118883333Y-51401000D02*
X118835714Y-51424809D01*
X118835714Y-51424809D02*
X118692857Y-51424809D01*
X118692857Y-51424809D02*
X118645238Y-51401000D01*
X118645238Y-51401000D02*
X118621428Y-51377190D01*
D10*
X148466666Y-41554819D02*
X148466666Y-42269104D01*
X148466666Y-42269104D02*
X148419047Y-42411961D01*
X148419047Y-42411961D02*
X148323809Y-42507200D01*
X148323809Y-42507200D02*
X148180952Y-42554819D01*
X148180952Y-42554819D02*
X148085714Y-42554819D01*
X149371428Y-41554819D02*
X149180952Y-41554819D01*
X149180952Y-41554819D02*
X149085714Y-41602438D01*
X149085714Y-41602438D02*
X149038095Y-41650057D01*
X149038095Y-41650057D02*
X148942857Y-41792914D01*
X148942857Y-41792914D02*
X148895238Y-41983390D01*
X148895238Y-41983390D02*
X148895238Y-42364342D01*
X148895238Y-42364342D02*
X148942857Y-42459580D01*
X148942857Y-42459580D02*
X148990476Y-42507200D01*
X148990476Y-42507200D02*
X149085714Y-42554819D01*
X149085714Y-42554819D02*
X149276190Y-42554819D01*
X149276190Y-42554819D02*
X149371428Y-42507200D01*
X149371428Y-42507200D02*
X149419047Y-42459580D01*
X149419047Y-42459580D02*
X149466666Y-42364342D01*
X149466666Y-42364342D02*
X149466666Y-42126247D01*
X149466666Y-42126247D02*
X149419047Y-42031009D01*
X149419047Y-42031009D02*
X149371428Y-41983390D01*
X149371428Y-41983390D02*
X149276190Y-41935771D01*
X149276190Y-41935771D02*
X149085714Y-41935771D01*
X149085714Y-41935771D02*
X148990476Y-41983390D01*
X148990476Y-41983390D02*
X148942857Y-42031009D01*
X148942857Y-42031009D02*
X148895238Y-42126247D01*
X124666666Y-41854819D02*
X124666666Y-42569104D01*
X124666666Y-42569104D02*
X124619047Y-42711961D01*
X124619047Y-42711961D02*
X124523809Y-42807200D01*
X124523809Y-42807200D02*
X124380952Y-42854819D01*
X124380952Y-42854819D02*
X124285714Y-42854819D01*
X125666666Y-42854819D02*
X125095238Y-42854819D01*
X125380952Y-42854819D02*
X125380952Y-41854819D01*
X125380952Y-41854819D02*
X125285714Y-41997676D01*
X125285714Y-41997676D02*
X125190476Y-42092914D01*
X125190476Y-42092914D02*
X125095238Y-42140533D01*
D11*
X143316666Y-58824809D02*
X143150000Y-58586714D01*
X143030952Y-58824809D02*
X143030952Y-58324809D01*
X143030952Y-58324809D02*
X143221428Y-58324809D01*
X143221428Y-58324809D02*
X143269047Y-58348619D01*
X143269047Y-58348619D02*
X143292857Y-58372428D01*
X143292857Y-58372428D02*
X143316666Y-58420047D01*
X143316666Y-58420047D02*
X143316666Y-58491476D01*
X143316666Y-58491476D02*
X143292857Y-58539095D01*
X143292857Y-58539095D02*
X143269047Y-58562904D01*
X143269047Y-58562904D02*
X143221428Y-58586714D01*
X143221428Y-58586714D02*
X143030952Y-58586714D01*
X143792857Y-58824809D02*
X143507143Y-58824809D01*
X143650000Y-58824809D02*
X143650000Y-58324809D01*
X143650000Y-58324809D02*
X143602381Y-58396238D01*
X143602381Y-58396238D02*
X143554762Y-58443857D01*
X143554762Y-58443857D02*
X143507143Y-58467666D01*
D12*
X128178571Y-72078490D02*
X128154762Y-72102300D01*
X128154762Y-72102300D02*
X128083333Y-72126109D01*
X128083333Y-72126109D02*
X128035714Y-72126109D01*
X128035714Y-72126109D02*
X127964286Y-72102300D01*
X127964286Y-72102300D02*
X127916667Y-72054680D01*
X127916667Y-72054680D02*
X127892857Y-72007061D01*
X127892857Y-72007061D02*
X127869048Y-71911823D01*
X127869048Y-71911823D02*
X127869048Y-71840395D01*
X127869048Y-71840395D02*
X127892857Y-71745157D01*
X127892857Y-71745157D02*
X127916667Y-71697538D01*
X127916667Y-71697538D02*
X127964286Y-71649919D01*
X127964286Y-71649919D02*
X128035714Y-71626109D01*
X128035714Y-71626109D02*
X128083333Y-71626109D01*
X128083333Y-71626109D02*
X128154762Y-71649919D01*
X128154762Y-71649919D02*
X128178571Y-71673728D01*
X128654762Y-72126109D02*
X128369048Y-72126109D01*
X128511905Y-72126109D02*
X128511905Y-71626109D01*
X128511905Y-71626109D02*
X128464286Y-71697538D01*
X128464286Y-71697538D02*
X128416667Y-71745157D01*
X128416667Y-71745157D02*
X128369048Y-71768966D01*
X129083333Y-71792776D02*
X129083333Y-72126109D01*
X128964285Y-71602300D02*
X128845238Y-71959442D01*
X128845238Y-71959442D02*
X129154761Y-71959442D01*
X128916666Y-69278490D02*
X128892857Y-69302300D01*
X128892857Y-69302300D02*
X128821428Y-69326109D01*
X128821428Y-69326109D02*
X128773809Y-69326109D01*
X128773809Y-69326109D02*
X128702381Y-69302300D01*
X128702381Y-69302300D02*
X128654762Y-69254680D01*
X128654762Y-69254680D02*
X128630952Y-69207061D01*
X128630952Y-69207061D02*
X128607143Y-69111823D01*
X128607143Y-69111823D02*
X128607143Y-69040395D01*
X128607143Y-69040395D02*
X128630952Y-68945157D01*
X128630952Y-68945157D02*
X128654762Y-68897538D01*
X128654762Y-68897538D02*
X128702381Y-68849919D01*
X128702381Y-68849919D02*
X128773809Y-68826109D01*
X128773809Y-68826109D02*
X128821428Y-68826109D01*
X128821428Y-68826109D02*
X128892857Y-68849919D01*
X128892857Y-68849919D02*
X128916666Y-68873728D01*
X129107143Y-68873728D02*
X129130952Y-68849919D01*
X129130952Y-68849919D02*
X129178571Y-68826109D01*
X129178571Y-68826109D02*
X129297619Y-68826109D01*
X129297619Y-68826109D02*
X129345238Y-68849919D01*
X129345238Y-68849919D02*
X129369047Y-68873728D01*
X129369047Y-68873728D02*
X129392857Y-68921347D01*
X129392857Y-68921347D02*
X129392857Y-68968966D01*
X129392857Y-68968966D02*
X129369047Y-69040395D01*
X129369047Y-69040395D02*
X129083333Y-69326109D01*
X129083333Y-69326109D02*
X129392857Y-69326109D01*
D11*
X119378571Y-50377190D02*
X119354762Y-50401000D01*
X119354762Y-50401000D02*
X119283333Y-50424809D01*
X119283333Y-50424809D02*
X119235714Y-50424809D01*
X119235714Y-50424809D02*
X119164286Y-50401000D01*
X119164286Y-50401000D02*
X119116667Y-50353380D01*
X119116667Y-50353380D02*
X119092857Y-50305761D01*
X119092857Y-50305761D02*
X119069048Y-50210523D01*
X119069048Y-50210523D02*
X119069048Y-50139095D01*
X119069048Y-50139095D02*
X119092857Y-50043857D01*
X119092857Y-50043857D02*
X119116667Y-49996238D01*
X119116667Y-49996238D02*
X119164286Y-49948619D01*
X119164286Y-49948619D02*
X119235714Y-49924809D01*
X119235714Y-49924809D02*
X119283333Y-49924809D01*
X119283333Y-49924809D02*
X119354762Y-49948619D01*
X119354762Y-49948619D02*
X119378571Y-49972428D01*
X119854762Y-50424809D02*
X119569048Y-50424809D01*
X119711905Y-50424809D02*
X119711905Y-49924809D01*
X119711905Y-49924809D02*
X119664286Y-49996238D01*
X119664286Y-49996238D02*
X119616667Y-50043857D01*
X119616667Y-50043857D02*
X119569048Y-50067666D01*
X120045238Y-49972428D02*
X120069047Y-49948619D01*
X120069047Y-49948619D02*
X120116666Y-49924809D01*
X120116666Y-49924809D02*
X120235714Y-49924809D01*
X120235714Y-49924809D02*
X120283333Y-49948619D01*
X120283333Y-49948619D02*
X120307142Y-49972428D01*
X120307142Y-49972428D02*
X120330952Y-50020047D01*
X120330952Y-50020047D02*
X120330952Y-50067666D01*
X120330952Y-50067666D02*
X120307142Y-50139095D01*
X120307142Y-50139095D02*
X120021428Y-50424809D01*
X120021428Y-50424809D02*
X120330952Y-50424809D01*
D10*
X126954819Y-73066666D02*
X126954819Y-73542856D01*
X126954819Y-73542856D02*
X125954819Y-73542856D01*
X126954819Y-72209523D02*
X126954819Y-72780951D01*
X126954819Y-72495237D02*
X125954819Y-72495237D01*
X125954819Y-72495237D02*
X126097676Y-72590475D01*
X126097676Y-72590475D02*
X126192914Y-72685713D01*
X126192914Y-72685713D02*
X126240533Y-72780951D01*
X158804819Y-63974166D02*
X158328628Y-64307499D01*
X158804819Y-64545594D02*
X157804819Y-64545594D01*
X157804819Y-64545594D02*
X157804819Y-64164642D01*
X157804819Y-64164642D02*
X157852438Y-64069404D01*
X157852438Y-64069404D02*
X157900057Y-64021785D01*
X157900057Y-64021785D02*
X157995295Y-63974166D01*
X157995295Y-63974166D02*
X158138152Y-63974166D01*
X158138152Y-63974166D02*
X158233390Y-64021785D01*
X158233390Y-64021785D02*
X158281009Y-64069404D01*
X158281009Y-64069404D02*
X158328628Y-64164642D01*
X158328628Y-64164642D02*
X158328628Y-64545594D01*
X157804819Y-63640832D02*
X157804819Y-63021785D01*
X157804819Y-63021785D02*
X158185771Y-63355118D01*
X158185771Y-63355118D02*
X158185771Y-63212261D01*
X158185771Y-63212261D02*
X158233390Y-63117023D01*
X158233390Y-63117023D02*
X158281009Y-63069404D01*
X158281009Y-63069404D02*
X158376247Y-63021785D01*
X158376247Y-63021785D02*
X158614342Y-63021785D01*
X158614342Y-63021785D02*
X158709580Y-63069404D01*
X158709580Y-63069404D02*
X158757200Y-63117023D01*
X158757200Y-63117023D02*
X158804819Y-63212261D01*
X158804819Y-63212261D02*
X158804819Y-63497975D01*
X158804819Y-63497975D02*
X158757200Y-63593213D01*
X158757200Y-63593213D02*
X158709580Y-63640832D01*
D12*
X126816666Y-69278490D02*
X126792857Y-69302300D01*
X126792857Y-69302300D02*
X126721428Y-69326109D01*
X126721428Y-69326109D02*
X126673809Y-69326109D01*
X126673809Y-69326109D02*
X126602381Y-69302300D01*
X126602381Y-69302300D02*
X126554762Y-69254680D01*
X126554762Y-69254680D02*
X126530952Y-69207061D01*
X126530952Y-69207061D02*
X126507143Y-69111823D01*
X126507143Y-69111823D02*
X126507143Y-69040395D01*
X126507143Y-69040395D02*
X126530952Y-68945157D01*
X126530952Y-68945157D02*
X126554762Y-68897538D01*
X126554762Y-68897538D02*
X126602381Y-68849919D01*
X126602381Y-68849919D02*
X126673809Y-68826109D01*
X126673809Y-68826109D02*
X126721428Y-68826109D01*
X126721428Y-68826109D02*
X126792857Y-68849919D01*
X126792857Y-68849919D02*
X126816666Y-68873728D01*
X127245238Y-68992776D02*
X127245238Y-69326109D01*
X127126190Y-68802300D02*
X127007143Y-69159442D01*
X127007143Y-69159442D02*
X127316666Y-69159442D01*
X128978571Y-75278490D02*
X128954762Y-75302300D01*
X128954762Y-75302300D02*
X128883333Y-75326109D01*
X128883333Y-75326109D02*
X128835714Y-75326109D01*
X128835714Y-75326109D02*
X128764286Y-75302300D01*
X128764286Y-75302300D02*
X128716667Y-75254680D01*
X128716667Y-75254680D02*
X128692857Y-75207061D01*
X128692857Y-75207061D02*
X128669048Y-75111823D01*
X128669048Y-75111823D02*
X128669048Y-75040395D01*
X128669048Y-75040395D02*
X128692857Y-74945157D01*
X128692857Y-74945157D02*
X128716667Y-74897538D01*
X128716667Y-74897538D02*
X128764286Y-74849919D01*
X128764286Y-74849919D02*
X128835714Y-74826109D01*
X128835714Y-74826109D02*
X128883333Y-74826109D01*
X128883333Y-74826109D02*
X128954762Y-74849919D01*
X128954762Y-74849919D02*
X128978571Y-74873728D01*
X129454762Y-75326109D02*
X129169048Y-75326109D01*
X129311905Y-75326109D02*
X129311905Y-74826109D01*
X129311905Y-74826109D02*
X129264286Y-74897538D01*
X129264286Y-74897538D02*
X129216667Y-74945157D01*
X129216667Y-74945157D02*
X129169048Y-74968966D01*
X129907142Y-74826109D02*
X129669047Y-74826109D01*
X129669047Y-74826109D02*
X129645238Y-75064204D01*
X129645238Y-75064204D02*
X129669047Y-75040395D01*
X129669047Y-75040395D02*
X129716666Y-75016585D01*
X129716666Y-75016585D02*
X129835714Y-75016585D01*
X129835714Y-75016585D02*
X129883333Y-75040395D01*
X129883333Y-75040395D02*
X129907142Y-75064204D01*
X129907142Y-75064204D02*
X129930952Y-75111823D01*
X129930952Y-75111823D02*
X129930952Y-75230871D01*
X129930952Y-75230871D02*
X129907142Y-75278490D01*
X129907142Y-75278490D02*
X129883333Y-75302300D01*
X129883333Y-75302300D02*
X129835714Y-75326109D01*
X129835714Y-75326109D02*
X129716666Y-75326109D01*
X129716666Y-75326109D02*
X129669047Y-75302300D01*
X129669047Y-75302300D02*
X129645238Y-75278490D01*
D10*
X153324819Y-68938094D02*
X152324819Y-68938094D01*
X152324819Y-68938094D02*
X152324819Y-68699999D01*
X152324819Y-68699999D02*
X152372438Y-68557142D01*
X152372438Y-68557142D02*
X152467676Y-68461904D01*
X152467676Y-68461904D02*
X152562914Y-68414285D01*
X152562914Y-68414285D02*
X152753390Y-68366666D01*
X152753390Y-68366666D02*
X152896247Y-68366666D01*
X152896247Y-68366666D02*
X153086723Y-68414285D01*
X153086723Y-68414285D02*
X153181961Y-68461904D01*
X153181961Y-68461904D02*
X153277200Y-68557142D01*
X153277200Y-68557142D02*
X153324819Y-68699999D01*
X153324819Y-68699999D02*
X153324819Y-68938094D01*
X152420057Y-67985713D02*
X152372438Y-67938094D01*
X152372438Y-67938094D02*
X152324819Y-67842856D01*
X152324819Y-67842856D02*
X152324819Y-67604761D01*
X152324819Y-67604761D02*
X152372438Y-67509523D01*
X152372438Y-67509523D02*
X152420057Y-67461904D01*
X152420057Y-67461904D02*
X152515295Y-67414285D01*
X152515295Y-67414285D02*
X152610533Y-67414285D01*
X152610533Y-67414285D02*
X152753390Y-67461904D01*
X152753390Y-67461904D02*
X153324819Y-68033332D01*
X153324819Y-68033332D02*
X153324819Y-67414285D01*
X105966666Y-54654819D02*
X105966666Y-55369104D01*
X105966666Y-55369104D02*
X105919047Y-55511961D01*
X105919047Y-55511961D02*
X105823809Y-55607200D01*
X105823809Y-55607200D02*
X105680952Y-55654819D01*
X105680952Y-55654819D02*
X105585714Y-55654819D01*
X106347619Y-54654819D02*
X107014285Y-54654819D01*
X107014285Y-54654819D02*
X106585714Y-55654819D01*
X130857142Y-54459580D02*
X130809523Y-54507200D01*
X130809523Y-54507200D02*
X130666666Y-54554819D01*
X130666666Y-54554819D02*
X130571428Y-54554819D01*
X130571428Y-54554819D02*
X130428571Y-54507200D01*
X130428571Y-54507200D02*
X130333333Y-54411961D01*
X130333333Y-54411961D02*
X130285714Y-54316723D01*
X130285714Y-54316723D02*
X130238095Y-54126247D01*
X130238095Y-54126247D02*
X130238095Y-53983390D01*
X130238095Y-53983390D02*
X130285714Y-53792914D01*
X130285714Y-53792914D02*
X130333333Y-53697676D01*
X130333333Y-53697676D02*
X130428571Y-53602438D01*
X130428571Y-53602438D02*
X130571428Y-53554819D01*
X130571428Y-53554819D02*
X130666666Y-53554819D01*
X130666666Y-53554819D02*
X130809523Y-53602438D01*
X130809523Y-53602438D02*
X130857142Y-53650057D01*
X131809523Y-54554819D02*
X131238095Y-54554819D01*
X131523809Y-54554819D02*
X131523809Y-53554819D01*
X131523809Y-53554819D02*
X131428571Y-53697676D01*
X131428571Y-53697676D02*
X131333333Y-53792914D01*
X131333333Y-53792914D02*
X131238095Y-53840533D01*
X132761904Y-54554819D02*
X132190476Y-54554819D01*
X132476190Y-54554819D02*
X132476190Y-53554819D01*
X132476190Y-53554819D02*
X132380952Y-53697676D01*
X132380952Y-53697676D02*
X132285714Y-53792914D01*
X132285714Y-53792914D02*
X132190476Y-53840533D01*
X110238095Y-46554819D02*
X110238095Y-47364342D01*
X110238095Y-47364342D02*
X110285714Y-47459580D01*
X110285714Y-47459580D02*
X110333333Y-47507200D01*
X110333333Y-47507200D02*
X110428571Y-47554819D01*
X110428571Y-47554819D02*
X110619047Y-47554819D01*
X110619047Y-47554819D02*
X110714285Y-47507200D01*
X110714285Y-47507200D02*
X110761904Y-47459580D01*
X110761904Y-47459580D02*
X110809523Y-47364342D01*
X110809523Y-47364342D02*
X110809523Y-46554819D01*
X111190476Y-46554819D02*
X111809523Y-46554819D01*
X111809523Y-46554819D02*
X111476190Y-46935771D01*
X111476190Y-46935771D02*
X111619047Y-46935771D01*
X111619047Y-46935771D02*
X111714285Y-46983390D01*
X111714285Y-46983390D02*
X111761904Y-47031009D01*
X111761904Y-47031009D02*
X111809523Y-47126247D01*
X111809523Y-47126247D02*
X111809523Y-47364342D01*
X111809523Y-47364342D02*
X111761904Y-47459580D01*
X111761904Y-47459580D02*
X111714285Y-47507200D01*
X111714285Y-47507200D02*
X111619047Y-47554819D01*
X111619047Y-47554819D02*
X111333333Y-47554819D01*
X111333333Y-47554819D02*
X111238095Y-47507200D01*
X111238095Y-47507200D02*
X111190476Y-47459580D01*
X160166666Y-48954819D02*
X160166666Y-49669104D01*
X160166666Y-49669104D02*
X160119047Y-49811961D01*
X160119047Y-49811961D02*
X160023809Y-49907200D01*
X160023809Y-49907200D02*
X159880952Y-49954819D01*
X159880952Y-49954819D02*
X159785714Y-49954819D01*
X161119047Y-48954819D02*
X160642857Y-48954819D01*
X160642857Y-48954819D02*
X160595238Y-49431009D01*
X160595238Y-49431009D02*
X160642857Y-49383390D01*
X160642857Y-49383390D02*
X160738095Y-49335771D01*
X160738095Y-49335771D02*
X160976190Y-49335771D01*
X160976190Y-49335771D02*
X161071428Y-49383390D01*
X161071428Y-49383390D02*
X161119047Y-49431009D01*
X161119047Y-49431009D02*
X161166666Y-49526247D01*
X161166666Y-49526247D02*
X161166666Y-49764342D01*
X161166666Y-49764342D02*
X161119047Y-49859580D01*
X161119047Y-49859580D02*
X161071428Y-49907200D01*
X161071428Y-49907200D02*
X160976190Y-49954819D01*
X160976190Y-49954819D02*
X160738095Y-49954819D01*
X160738095Y-49954819D02*
X160642857Y-49907200D01*
X160642857Y-49907200D02*
X160595238Y-49859580D01*
X130666666Y-78454819D02*
X130666666Y-79169104D01*
X130666666Y-79169104D02*
X130619047Y-79311961D01*
X130619047Y-79311961D02*
X130523809Y-79407200D01*
X130523809Y-79407200D02*
X130380952Y-79454819D01*
X130380952Y-79454819D02*
X130285714Y-79454819D01*
X131571428Y-78788152D02*
X131571428Y-79454819D01*
X131333333Y-78407200D02*
X131095238Y-79121485D01*
X131095238Y-79121485D02*
X131714285Y-79121485D01*
X117757142Y-39154819D02*
X117423809Y-38678628D01*
X117185714Y-39154819D02*
X117185714Y-38154819D01*
X117185714Y-38154819D02*
X117566666Y-38154819D01*
X117566666Y-38154819D02*
X117661904Y-38202438D01*
X117661904Y-38202438D02*
X117709523Y-38250057D01*
X117709523Y-38250057D02*
X117757142Y-38345295D01*
X117757142Y-38345295D02*
X117757142Y-38488152D01*
X117757142Y-38488152D02*
X117709523Y-38583390D01*
X117709523Y-38583390D02*
X117661904Y-38631009D01*
X117661904Y-38631009D02*
X117566666Y-38678628D01*
X117566666Y-38678628D02*
X117185714Y-38678628D01*
X118709523Y-39154819D02*
X118138095Y-39154819D01*
X118423809Y-39154819D02*
X118423809Y-38154819D01*
X118423809Y-38154819D02*
X118328571Y-38297676D01*
X118328571Y-38297676D02*
X118233333Y-38392914D01*
X118233333Y-38392914D02*
X118138095Y-38440533D01*
X119042857Y-38154819D02*
X119661904Y-38154819D01*
X119661904Y-38154819D02*
X119328571Y-38535771D01*
X119328571Y-38535771D02*
X119471428Y-38535771D01*
X119471428Y-38535771D02*
X119566666Y-38583390D01*
X119566666Y-38583390D02*
X119614285Y-38631009D01*
X119614285Y-38631009D02*
X119661904Y-38726247D01*
X119661904Y-38726247D02*
X119661904Y-38964342D01*
X119661904Y-38964342D02*
X119614285Y-39059580D01*
X119614285Y-39059580D02*
X119566666Y-39107200D01*
X119566666Y-39107200D02*
X119471428Y-39154819D01*
X119471428Y-39154819D02*
X119185714Y-39154819D01*
X119185714Y-39154819D02*
X119090476Y-39107200D01*
X119090476Y-39107200D02*
X119042857Y-39059580D01*
D12*
X125816666Y-69378490D02*
X125792857Y-69402300D01*
X125792857Y-69402300D02*
X125721428Y-69426109D01*
X125721428Y-69426109D02*
X125673809Y-69426109D01*
X125673809Y-69426109D02*
X125602381Y-69402300D01*
X125602381Y-69402300D02*
X125554762Y-69354680D01*
X125554762Y-69354680D02*
X125530952Y-69307061D01*
X125530952Y-69307061D02*
X125507143Y-69211823D01*
X125507143Y-69211823D02*
X125507143Y-69140395D01*
X125507143Y-69140395D02*
X125530952Y-69045157D01*
X125530952Y-69045157D02*
X125554762Y-68997538D01*
X125554762Y-68997538D02*
X125602381Y-68949919D01*
X125602381Y-68949919D02*
X125673809Y-68926109D01*
X125673809Y-68926109D02*
X125721428Y-68926109D01*
X125721428Y-68926109D02*
X125792857Y-68949919D01*
X125792857Y-68949919D02*
X125816666Y-68973728D01*
X126269047Y-68926109D02*
X126030952Y-68926109D01*
X126030952Y-68926109D02*
X126007143Y-69164204D01*
X126007143Y-69164204D02*
X126030952Y-69140395D01*
X126030952Y-69140395D02*
X126078571Y-69116585D01*
X126078571Y-69116585D02*
X126197619Y-69116585D01*
X126197619Y-69116585D02*
X126245238Y-69140395D01*
X126245238Y-69140395D02*
X126269047Y-69164204D01*
X126269047Y-69164204D02*
X126292857Y-69211823D01*
X126292857Y-69211823D02*
X126292857Y-69330871D01*
X126292857Y-69330871D02*
X126269047Y-69378490D01*
X126269047Y-69378490D02*
X126245238Y-69402300D01*
X126245238Y-69402300D02*
X126197619Y-69426109D01*
X126197619Y-69426109D02*
X126078571Y-69426109D01*
X126078571Y-69426109D02*
X126030952Y-69402300D01*
X126030952Y-69402300D02*
X126007143Y-69378490D01*
D10*
X159966666Y-93884819D02*
X159966666Y-94599104D01*
X159966666Y-94599104D02*
X159919047Y-94741961D01*
X159919047Y-94741961D02*
X159823809Y-94837200D01*
X159823809Y-94837200D02*
X159680952Y-94884819D01*
X159680952Y-94884819D02*
X159585714Y-94884819D01*
X160585714Y-94313390D02*
X160490476Y-94265771D01*
X160490476Y-94265771D02*
X160442857Y-94218152D01*
X160442857Y-94218152D02*
X160395238Y-94122914D01*
X160395238Y-94122914D02*
X160395238Y-94075295D01*
X160395238Y-94075295D02*
X160442857Y-93980057D01*
X160442857Y-93980057D02*
X160490476Y-93932438D01*
X160490476Y-93932438D02*
X160585714Y-93884819D01*
X160585714Y-93884819D02*
X160776190Y-93884819D01*
X160776190Y-93884819D02*
X160871428Y-93932438D01*
X160871428Y-93932438D02*
X160919047Y-93980057D01*
X160919047Y-93980057D02*
X160966666Y-94075295D01*
X160966666Y-94075295D02*
X160966666Y-94122914D01*
X160966666Y-94122914D02*
X160919047Y-94218152D01*
X160919047Y-94218152D02*
X160871428Y-94265771D01*
X160871428Y-94265771D02*
X160776190Y-94313390D01*
X160776190Y-94313390D02*
X160585714Y-94313390D01*
X160585714Y-94313390D02*
X160490476Y-94361009D01*
X160490476Y-94361009D02*
X160442857Y-94408628D01*
X160442857Y-94408628D02*
X160395238Y-94503866D01*
X160395238Y-94503866D02*
X160395238Y-94694342D01*
X160395238Y-94694342D02*
X160442857Y-94789580D01*
X160442857Y-94789580D02*
X160490476Y-94837200D01*
X160490476Y-94837200D02*
X160585714Y-94884819D01*
X160585714Y-94884819D02*
X160776190Y-94884819D01*
X160776190Y-94884819D02*
X160871428Y-94837200D01*
X160871428Y-94837200D02*
X160919047Y-94789580D01*
X160919047Y-94789580D02*
X160966666Y-94694342D01*
X160966666Y-94694342D02*
X160966666Y-94503866D01*
X160966666Y-94503866D02*
X160919047Y-94408628D01*
X160919047Y-94408628D02*
X160871428Y-94361009D01*
X160871428Y-94361009D02*
X160776190Y-94313390D01*
X131409580Y-63866666D02*
X131457200Y-63914285D01*
X131457200Y-63914285D02*
X131504819Y-64057142D01*
X131504819Y-64057142D02*
X131504819Y-64152380D01*
X131504819Y-64152380D02*
X131457200Y-64295237D01*
X131457200Y-64295237D02*
X131361961Y-64390475D01*
X131361961Y-64390475D02*
X131266723Y-64438094D01*
X131266723Y-64438094D02*
X131076247Y-64485713D01*
X131076247Y-64485713D02*
X130933390Y-64485713D01*
X130933390Y-64485713D02*
X130742914Y-64438094D01*
X130742914Y-64438094D02*
X130647676Y-64390475D01*
X130647676Y-64390475D02*
X130552438Y-64295237D01*
X130552438Y-64295237D02*
X130504819Y-64152380D01*
X130504819Y-64152380D02*
X130504819Y-64057142D01*
X130504819Y-64057142D02*
X130552438Y-63914285D01*
X130552438Y-63914285D02*
X130600057Y-63866666D01*
X131504819Y-63390475D02*
X131504819Y-63199999D01*
X131504819Y-63199999D02*
X131457200Y-63104761D01*
X131457200Y-63104761D02*
X131409580Y-63057142D01*
X131409580Y-63057142D02*
X131266723Y-62961904D01*
X131266723Y-62961904D02*
X131076247Y-62914285D01*
X131076247Y-62914285D02*
X130695295Y-62914285D01*
X130695295Y-62914285D02*
X130600057Y-62961904D01*
X130600057Y-62961904D02*
X130552438Y-63009523D01*
X130552438Y-63009523D02*
X130504819Y-63104761D01*
X130504819Y-63104761D02*
X130504819Y-63295237D01*
X130504819Y-63295237D02*
X130552438Y-63390475D01*
X130552438Y-63390475D02*
X130600057Y-63438094D01*
X130600057Y-63438094D02*
X130695295Y-63485713D01*
X130695295Y-63485713D02*
X130933390Y-63485713D01*
X130933390Y-63485713D02*
X131028628Y-63438094D01*
X131028628Y-63438094D02*
X131076247Y-63390475D01*
X131076247Y-63390475D02*
X131123866Y-63295237D01*
X131123866Y-63295237D02*
X131123866Y-63104761D01*
X131123866Y-63104761D02*
X131076247Y-63009523D01*
X131076247Y-63009523D02*
X131028628Y-62961904D01*
X131028628Y-62961904D02*
X130933390Y-62914285D01*
D11*
X142216666Y-58677190D02*
X142192857Y-58701000D01*
X142192857Y-58701000D02*
X142121428Y-58724809D01*
X142121428Y-58724809D02*
X142073809Y-58724809D01*
X142073809Y-58724809D02*
X142002381Y-58701000D01*
X142002381Y-58701000D02*
X141954762Y-58653380D01*
X141954762Y-58653380D02*
X141930952Y-58605761D01*
X141930952Y-58605761D02*
X141907143Y-58510523D01*
X141907143Y-58510523D02*
X141907143Y-58439095D01*
X141907143Y-58439095D02*
X141930952Y-58343857D01*
X141930952Y-58343857D02*
X141954762Y-58296238D01*
X141954762Y-58296238D02*
X142002381Y-58248619D01*
X142002381Y-58248619D02*
X142073809Y-58224809D01*
X142073809Y-58224809D02*
X142121428Y-58224809D01*
X142121428Y-58224809D02*
X142192857Y-58248619D01*
X142192857Y-58248619D02*
X142216666Y-58272428D01*
X142383333Y-58224809D02*
X142716666Y-58224809D01*
X142716666Y-58224809D02*
X142502381Y-58724809D01*
D10*
X140261905Y-96954819D02*
X140261905Y-95954819D01*
X140261905Y-95954819D02*
X140500000Y-95954819D01*
X140500000Y-95954819D02*
X140642857Y-96002438D01*
X140642857Y-96002438D02*
X140738095Y-96097676D01*
X140738095Y-96097676D02*
X140785714Y-96192914D01*
X140785714Y-96192914D02*
X140833333Y-96383390D01*
X140833333Y-96383390D02*
X140833333Y-96526247D01*
X140833333Y-96526247D02*
X140785714Y-96716723D01*
X140785714Y-96716723D02*
X140738095Y-96811961D01*
X140738095Y-96811961D02*
X140642857Y-96907200D01*
X140642857Y-96907200D02*
X140500000Y-96954819D01*
X140500000Y-96954819D02*
X140261905Y-96954819D01*
X141166667Y-95954819D02*
X141785714Y-95954819D01*
X141785714Y-95954819D02*
X141452381Y-96335771D01*
X141452381Y-96335771D02*
X141595238Y-96335771D01*
X141595238Y-96335771D02*
X141690476Y-96383390D01*
X141690476Y-96383390D02*
X141738095Y-96431009D01*
X141738095Y-96431009D02*
X141785714Y-96526247D01*
X141785714Y-96526247D02*
X141785714Y-96764342D01*
X141785714Y-96764342D02*
X141738095Y-96859580D01*
X141738095Y-96859580D02*
X141690476Y-96907200D01*
X141690476Y-96907200D02*
X141595238Y-96954819D01*
X141595238Y-96954819D02*
X141309524Y-96954819D01*
X141309524Y-96954819D02*
X141214286Y-96907200D01*
X141214286Y-96907200D02*
X141166667Y-96859580D01*
X120833333Y-64559580D02*
X120785714Y-64607200D01*
X120785714Y-64607200D02*
X120642857Y-64654819D01*
X120642857Y-64654819D02*
X120547619Y-64654819D01*
X120547619Y-64654819D02*
X120404762Y-64607200D01*
X120404762Y-64607200D02*
X120309524Y-64511961D01*
X120309524Y-64511961D02*
X120261905Y-64416723D01*
X120261905Y-64416723D02*
X120214286Y-64226247D01*
X120214286Y-64226247D02*
X120214286Y-64083390D01*
X120214286Y-64083390D02*
X120261905Y-63892914D01*
X120261905Y-63892914D02*
X120309524Y-63797676D01*
X120309524Y-63797676D02*
X120404762Y-63702438D01*
X120404762Y-63702438D02*
X120547619Y-63654819D01*
X120547619Y-63654819D02*
X120642857Y-63654819D01*
X120642857Y-63654819D02*
X120785714Y-63702438D01*
X120785714Y-63702438D02*
X120833333Y-63750057D01*
X121404762Y-64083390D02*
X121309524Y-64035771D01*
X121309524Y-64035771D02*
X121261905Y-63988152D01*
X121261905Y-63988152D02*
X121214286Y-63892914D01*
X121214286Y-63892914D02*
X121214286Y-63845295D01*
X121214286Y-63845295D02*
X121261905Y-63750057D01*
X121261905Y-63750057D02*
X121309524Y-63702438D01*
X121309524Y-63702438D02*
X121404762Y-63654819D01*
X121404762Y-63654819D02*
X121595238Y-63654819D01*
X121595238Y-63654819D02*
X121690476Y-63702438D01*
X121690476Y-63702438D02*
X121738095Y-63750057D01*
X121738095Y-63750057D02*
X121785714Y-63845295D01*
X121785714Y-63845295D02*
X121785714Y-63892914D01*
X121785714Y-63892914D02*
X121738095Y-63988152D01*
X121738095Y-63988152D02*
X121690476Y-64035771D01*
X121690476Y-64035771D02*
X121595238Y-64083390D01*
X121595238Y-64083390D02*
X121404762Y-64083390D01*
X121404762Y-64083390D02*
X121309524Y-64131009D01*
X121309524Y-64131009D02*
X121261905Y-64178628D01*
X121261905Y-64178628D02*
X121214286Y-64273866D01*
X121214286Y-64273866D02*
X121214286Y-64464342D01*
X121214286Y-64464342D02*
X121261905Y-64559580D01*
X121261905Y-64559580D02*
X121309524Y-64607200D01*
X121309524Y-64607200D02*
X121404762Y-64654819D01*
X121404762Y-64654819D02*
X121595238Y-64654819D01*
X121595238Y-64654819D02*
X121690476Y-64607200D01*
X121690476Y-64607200D02*
X121738095Y-64559580D01*
X121738095Y-64559580D02*
X121785714Y-64464342D01*
X121785714Y-64464342D02*
X121785714Y-64273866D01*
X121785714Y-64273866D02*
X121738095Y-64178628D01*
X121738095Y-64178628D02*
X121690476Y-64131009D01*
X121690476Y-64131009D02*
X121595238Y-64083390D01*
D12*
X129916666Y-66078490D02*
X129892857Y-66102300D01*
X129892857Y-66102300D02*
X129821428Y-66126109D01*
X129821428Y-66126109D02*
X129773809Y-66126109D01*
X129773809Y-66126109D02*
X129702381Y-66102300D01*
X129702381Y-66102300D02*
X129654762Y-66054680D01*
X129654762Y-66054680D02*
X129630952Y-66007061D01*
X129630952Y-66007061D02*
X129607143Y-65911823D01*
X129607143Y-65911823D02*
X129607143Y-65840395D01*
X129607143Y-65840395D02*
X129630952Y-65745157D01*
X129630952Y-65745157D02*
X129654762Y-65697538D01*
X129654762Y-65697538D02*
X129702381Y-65649919D01*
X129702381Y-65649919D02*
X129773809Y-65626109D01*
X129773809Y-65626109D02*
X129821428Y-65626109D01*
X129821428Y-65626109D02*
X129892857Y-65649919D01*
X129892857Y-65649919D02*
X129916666Y-65673728D01*
X130392857Y-66126109D02*
X130107143Y-66126109D01*
X130250000Y-66126109D02*
X130250000Y-65626109D01*
X130250000Y-65626109D02*
X130202381Y-65697538D01*
X130202381Y-65697538D02*
X130154762Y-65745157D01*
X130154762Y-65745157D02*
X130107143Y-65768966D01*
D10*
X106859580Y-52462857D02*
X106907200Y-52510476D01*
X106907200Y-52510476D02*
X106954819Y-52653333D01*
X106954819Y-52653333D02*
X106954819Y-52748571D01*
X106954819Y-52748571D02*
X106907200Y-52891428D01*
X106907200Y-52891428D02*
X106811961Y-52986666D01*
X106811961Y-52986666D02*
X106716723Y-53034285D01*
X106716723Y-53034285D02*
X106526247Y-53081904D01*
X106526247Y-53081904D02*
X106383390Y-53081904D01*
X106383390Y-53081904D02*
X106192914Y-53034285D01*
X106192914Y-53034285D02*
X106097676Y-52986666D01*
X106097676Y-52986666D02*
X106002438Y-52891428D01*
X106002438Y-52891428D02*
X105954819Y-52748571D01*
X105954819Y-52748571D02*
X105954819Y-52653333D01*
X105954819Y-52653333D02*
X106002438Y-52510476D01*
X106002438Y-52510476D02*
X106050057Y-52462857D01*
X106954819Y-51510476D02*
X106954819Y-52081904D01*
X106954819Y-51796190D02*
X105954819Y-51796190D01*
X105954819Y-51796190D02*
X106097676Y-51891428D01*
X106097676Y-51891428D02*
X106192914Y-51986666D01*
X106192914Y-51986666D02*
X106240533Y-52081904D01*
X105954819Y-50891428D02*
X105954819Y-50796190D01*
X105954819Y-50796190D02*
X106002438Y-50700952D01*
X106002438Y-50700952D02*
X106050057Y-50653333D01*
X106050057Y-50653333D02*
X106145295Y-50605714D01*
X106145295Y-50605714D02*
X106335771Y-50558095D01*
X106335771Y-50558095D02*
X106573866Y-50558095D01*
X106573866Y-50558095D02*
X106764342Y-50605714D01*
X106764342Y-50605714D02*
X106859580Y-50653333D01*
X106859580Y-50653333D02*
X106907200Y-50700952D01*
X106907200Y-50700952D02*
X106954819Y-50796190D01*
X106954819Y-50796190D02*
X106954819Y-50891428D01*
X106954819Y-50891428D02*
X106907200Y-50986666D01*
X106907200Y-50986666D02*
X106859580Y-51034285D01*
X106859580Y-51034285D02*
X106764342Y-51081904D01*
X106764342Y-51081904D02*
X106573866Y-51129523D01*
X106573866Y-51129523D02*
X106335771Y-51129523D01*
X106335771Y-51129523D02*
X106145295Y-51081904D01*
X106145295Y-51081904D02*
X106050057Y-51034285D01*
X106050057Y-51034285D02*
X106002438Y-50986666D01*
X106002438Y-50986666D02*
X105954819Y-50891428D01*
X112157142Y-41554819D02*
X111823809Y-41078628D01*
X111585714Y-41554819D02*
X111585714Y-40554819D01*
X111585714Y-40554819D02*
X111966666Y-40554819D01*
X111966666Y-40554819D02*
X112061904Y-40602438D01*
X112061904Y-40602438D02*
X112109523Y-40650057D01*
X112109523Y-40650057D02*
X112157142Y-40745295D01*
X112157142Y-40745295D02*
X112157142Y-40888152D01*
X112157142Y-40888152D02*
X112109523Y-40983390D01*
X112109523Y-40983390D02*
X112061904Y-41031009D01*
X112061904Y-41031009D02*
X111966666Y-41078628D01*
X111966666Y-41078628D02*
X111585714Y-41078628D01*
X113109523Y-41554819D02*
X112538095Y-41554819D01*
X112823809Y-41554819D02*
X112823809Y-40554819D01*
X112823809Y-40554819D02*
X112728571Y-40697676D01*
X112728571Y-40697676D02*
X112633333Y-40792914D01*
X112633333Y-40792914D02*
X112538095Y-40840533D01*
X113490476Y-40650057D02*
X113538095Y-40602438D01*
X113538095Y-40602438D02*
X113633333Y-40554819D01*
X113633333Y-40554819D02*
X113871428Y-40554819D01*
X113871428Y-40554819D02*
X113966666Y-40602438D01*
X113966666Y-40602438D02*
X114014285Y-40650057D01*
X114014285Y-40650057D02*
X114061904Y-40745295D01*
X114061904Y-40745295D02*
X114061904Y-40840533D01*
X114061904Y-40840533D02*
X114014285Y-40983390D01*
X114014285Y-40983390D02*
X113442857Y-41554819D01*
X113442857Y-41554819D02*
X114061904Y-41554819D01*
X124676190Y-63254819D02*
X125342856Y-64254819D01*
X125342856Y-63254819D02*
X124676190Y-64254819D01*
X125580952Y-63254819D02*
X126152380Y-63254819D01*
X125866666Y-64254819D02*
X125866666Y-63254819D01*
X126438095Y-63969104D02*
X126914285Y-63969104D01*
X126342857Y-64254819D02*
X126676190Y-63254819D01*
X126676190Y-63254819D02*
X127009523Y-64254819D01*
X127819047Y-64254819D02*
X127342857Y-64254819D01*
X127342857Y-64254819D02*
X127342857Y-63254819D01*
X128676190Y-64254819D02*
X128104762Y-64254819D01*
X128390476Y-64254819D02*
X128390476Y-63254819D01*
X128390476Y-63254819D02*
X128295238Y-63397676D01*
X128295238Y-63397676D02*
X128200000Y-63492914D01*
X128200000Y-63492914D02*
X128104762Y-63540533D01*
X127438095Y-49354819D02*
X127438095Y-50164342D01*
X127438095Y-50164342D02*
X127485714Y-50259580D01*
X127485714Y-50259580D02*
X127533333Y-50307200D01*
X127533333Y-50307200D02*
X127628571Y-50354819D01*
X127628571Y-50354819D02*
X127819047Y-50354819D01*
X127819047Y-50354819D02*
X127914285Y-50307200D01*
X127914285Y-50307200D02*
X127961904Y-50259580D01*
X127961904Y-50259580D02*
X128009523Y-50164342D01*
X128009523Y-50164342D02*
X128009523Y-49354819D01*
X128438095Y-49450057D02*
X128485714Y-49402438D01*
X128485714Y-49402438D02*
X128580952Y-49354819D01*
X128580952Y-49354819D02*
X128819047Y-49354819D01*
X128819047Y-49354819D02*
X128914285Y-49402438D01*
X128914285Y-49402438D02*
X128961904Y-49450057D01*
X128961904Y-49450057D02*
X129009523Y-49545295D01*
X129009523Y-49545295D02*
X129009523Y-49640533D01*
X129009523Y-49640533D02*
X128961904Y-49783390D01*
X128961904Y-49783390D02*
X128390476Y-50354819D01*
X128390476Y-50354819D02*
X129009523Y-50354819D01*
X119757142Y-56854819D02*
X119423809Y-56378628D01*
X119185714Y-56854819D02*
X119185714Y-55854819D01*
X119185714Y-55854819D02*
X119566666Y-55854819D01*
X119566666Y-55854819D02*
X119661904Y-55902438D01*
X119661904Y-55902438D02*
X119709523Y-55950057D01*
X119709523Y-55950057D02*
X119757142Y-56045295D01*
X119757142Y-56045295D02*
X119757142Y-56188152D01*
X119757142Y-56188152D02*
X119709523Y-56283390D01*
X119709523Y-56283390D02*
X119661904Y-56331009D01*
X119661904Y-56331009D02*
X119566666Y-56378628D01*
X119566666Y-56378628D02*
X119185714Y-56378628D01*
X120709523Y-56854819D02*
X120138095Y-56854819D01*
X120423809Y-56854819D02*
X120423809Y-55854819D01*
X120423809Y-55854819D02*
X120328571Y-55997676D01*
X120328571Y-55997676D02*
X120233333Y-56092914D01*
X120233333Y-56092914D02*
X120138095Y-56140533D01*
X121566666Y-56188152D02*
X121566666Y-56854819D01*
X121328571Y-55807200D02*
X121090476Y-56521485D01*
X121090476Y-56521485D02*
X121709523Y-56521485D01*
D12*
X127916666Y-69278490D02*
X127892857Y-69302300D01*
X127892857Y-69302300D02*
X127821428Y-69326109D01*
X127821428Y-69326109D02*
X127773809Y-69326109D01*
X127773809Y-69326109D02*
X127702381Y-69302300D01*
X127702381Y-69302300D02*
X127654762Y-69254680D01*
X127654762Y-69254680D02*
X127630952Y-69207061D01*
X127630952Y-69207061D02*
X127607143Y-69111823D01*
X127607143Y-69111823D02*
X127607143Y-69040395D01*
X127607143Y-69040395D02*
X127630952Y-68945157D01*
X127630952Y-68945157D02*
X127654762Y-68897538D01*
X127654762Y-68897538D02*
X127702381Y-68849919D01*
X127702381Y-68849919D02*
X127773809Y-68826109D01*
X127773809Y-68826109D02*
X127821428Y-68826109D01*
X127821428Y-68826109D02*
X127892857Y-68849919D01*
X127892857Y-68849919D02*
X127916666Y-68873728D01*
X128083333Y-68826109D02*
X128392857Y-68826109D01*
X128392857Y-68826109D02*
X128226190Y-69016585D01*
X128226190Y-69016585D02*
X128297619Y-69016585D01*
X128297619Y-69016585D02*
X128345238Y-69040395D01*
X128345238Y-69040395D02*
X128369047Y-69064204D01*
X128369047Y-69064204D02*
X128392857Y-69111823D01*
X128392857Y-69111823D02*
X128392857Y-69230871D01*
X128392857Y-69230871D02*
X128369047Y-69278490D01*
X128369047Y-69278490D02*
X128345238Y-69302300D01*
X128345238Y-69302300D02*
X128297619Y-69326109D01*
X128297619Y-69326109D02*
X128154762Y-69326109D01*
X128154762Y-69326109D02*
X128107143Y-69302300D01*
X128107143Y-69302300D02*
X128083333Y-69278490D01*
D10*
X123633333Y-68754819D02*
X123300000Y-68278628D01*
X123061905Y-68754819D02*
X123061905Y-67754819D01*
X123061905Y-67754819D02*
X123442857Y-67754819D01*
X123442857Y-67754819D02*
X123538095Y-67802438D01*
X123538095Y-67802438D02*
X123585714Y-67850057D01*
X123585714Y-67850057D02*
X123633333Y-67945295D01*
X123633333Y-67945295D02*
X123633333Y-68088152D01*
X123633333Y-68088152D02*
X123585714Y-68183390D01*
X123585714Y-68183390D02*
X123538095Y-68231009D01*
X123538095Y-68231009D02*
X123442857Y-68278628D01*
X123442857Y-68278628D02*
X123061905Y-68278628D01*
X124014286Y-67850057D02*
X124061905Y-67802438D01*
X124061905Y-67802438D02*
X124157143Y-67754819D01*
X124157143Y-67754819D02*
X124395238Y-67754819D01*
X124395238Y-67754819D02*
X124490476Y-67802438D01*
X124490476Y-67802438D02*
X124538095Y-67850057D01*
X124538095Y-67850057D02*
X124585714Y-67945295D01*
X124585714Y-67945295D02*
X124585714Y-68040533D01*
X124585714Y-68040533D02*
X124538095Y-68183390D01*
X124538095Y-68183390D02*
X123966667Y-68754819D01*
X123966667Y-68754819D02*
X124585714Y-68754819D01*
X109366666Y-89654819D02*
X109366666Y-90369104D01*
X109366666Y-90369104D02*
X109319047Y-90511961D01*
X109319047Y-90511961D02*
X109223809Y-90607200D01*
X109223809Y-90607200D02*
X109080952Y-90654819D01*
X109080952Y-90654819D02*
X108985714Y-90654819D01*
X109890476Y-90654819D02*
X110080952Y-90654819D01*
X110080952Y-90654819D02*
X110176190Y-90607200D01*
X110176190Y-90607200D02*
X110223809Y-90559580D01*
X110223809Y-90559580D02*
X110319047Y-90416723D01*
X110319047Y-90416723D02*
X110366666Y-90226247D01*
X110366666Y-90226247D02*
X110366666Y-89845295D01*
X110366666Y-89845295D02*
X110319047Y-89750057D01*
X110319047Y-89750057D02*
X110271428Y-89702438D01*
X110271428Y-89702438D02*
X110176190Y-89654819D01*
X110176190Y-89654819D02*
X109985714Y-89654819D01*
X109985714Y-89654819D02*
X109890476Y-89702438D01*
X109890476Y-89702438D02*
X109842857Y-89750057D01*
X109842857Y-89750057D02*
X109795238Y-89845295D01*
X109795238Y-89845295D02*
X109795238Y-90083390D01*
X109795238Y-90083390D02*
X109842857Y-90178628D01*
X109842857Y-90178628D02*
X109890476Y-90226247D01*
X109890476Y-90226247D02*
X109985714Y-90273866D01*
X109985714Y-90273866D02*
X110176190Y-90273866D01*
X110176190Y-90273866D02*
X110271428Y-90226247D01*
X110271428Y-90226247D02*
X110319047Y-90178628D01*
X110319047Y-90178628D02*
X110366666Y-90083390D01*
X155814819Y-64059166D02*
X155338628Y-64392499D01*
X155814819Y-64630594D02*
X154814819Y-64630594D01*
X154814819Y-64630594D02*
X154814819Y-64249642D01*
X154814819Y-64249642D02*
X154862438Y-64154404D01*
X154862438Y-64154404D02*
X154910057Y-64106785D01*
X154910057Y-64106785D02*
X155005295Y-64059166D01*
X155005295Y-64059166D02*
X155148152Y-64059166D01*
X155148152Y-64059166D02*
X155243390Y-64106785D01*
X155243390Y-64106785D02*
X155291009Y-64154404D01*
X155291009Y-64154404D02*
X155338628Y-64249642D01*
X155338628Y-64249642D02*
X155338628Y-64630594D01*
X155148152Y-63202023D02*
X155814819Y-63202023D01*
X154767200Y-63440118D02*
X155481485Y-63678213D01*
X155481485Y-63678213D02*
X155481485Y-63059166D01*
D13*
X162990000Y-46300000D02*
X162990000Y-42300000D01*
X162700000Y-47330000D02*
X162700000Y-41310000D01*
X162700000Y-41310000D02*
X149780000Y-41310000D01*
X162120000Y-47330000D02*
X162120000Y-46730000D01*
X162120000Y-46730000D02*
X160520000Y-46730000D01*
X161320000Y-42310000D02*
X161070000Y-42840000D01*
X161320000Y-42310000D02*
X151160000Y-42310000D01*
X161320000Y-41310000D02*
X161320000Y-42310000D01*
X161070000Y-42840000D02*
X151410000Y-42840000D01*
X161070000Y-41310000D02*
X161070000Y-42310000D01*
X160520000Y-46730000D02*
X160520000Y-47330000D01*
X159580000Y-47330000D02*
X159580000Y-46730000D01*
X159580000Y-46730000D02*
X157980000Y-46730000D01*
X157980000Y-46730000D02*
X157980000Y-47330000D01*
X157040000Y-47330000D02*
X157040000Y-46730000D01*
X157040000Y-46730000D02*
X155440000Y-46730000D01*
X155440000Y-46730000D02*
X155440000Y-47330000D01*
X154500000Y-47330000D02*
X154500000Y-46730000D01*
X154500000Y-46730000D02*
X152900000Y-46730000D01*
X152900000Y-46730000D02*
X152900000Y-47330000D01*
X151960000Y-47330000D02*
X151960000Y-46730000D01*
X151960000Y-46730000D02*
X150360000Y-46730000D01*
X151410000Y-42840000D02*
X151160000Y-42310000D01*
X151410000Y-41310000D02*
X151410000Y-42310000D01*
X151160000Y-42310000D02*
X151160000Y-41310000D01*
X150360000Y-46730000D02*
X150360000Y-47330000D01*
X149780000Y-47330000D02*
X162700000Y-47330000D01*
X149780000Y-41310000D02*
X149780000Y-47330000D01*
X105145000Y-88330000D02*
X105145000Y-80650000D01*
X105145000Y-90930000D02*
X105145000Y-89600000D01*
X106475000Y-90930000D02*
X105145000Y-90930000D01*
X107805000Y-80650000D02*
X105145000Y-80650000D01*
X107805000Y-88330000D02*
X105145000Y-88330000D01*
X107805000Y-88330000D02*
X107805000Y-80650000D01*
X156565000Y-67400000D02*
X156565000Y-69685000D01*
X156565000Y-69685000D02*
X158035000Y-69685000D01*
X158035000Y-69685000D02*
X158035000Y-67400000D01*
X132890000Y-65390000D02*
X132890000Y-66340000D01*
X132890000Y-75610000D02*
X132890000Y-74660000D01*
X133840000Y-65390000D02*
X132890000Y-65390000D01*
X133840000Y-75610000D02*
X132890000Y-75610000D01*
X142160000Y-65390000D02*
X143110000Y-65390000D01*
X142160000Y-75610000D02*
X143110000Y-75610000D01*
X143110000Y-65390000D02*
X143110000Y-66340000D01*
X143110000Y-75610000D02*
X143110000Y-74660000D01*
X132275000Y-66340000D02*
X131935000Y-65870000D01*
X132615000Y-65870000D01*
X132275000Y-66340000D01*
G36*
X132275000Y-66340000D02*
G01*
X131935000Y-65870000D01*
X132615000Y-65870000D01*
X132275000Y-66340000D01*
G37*
X128070000Y-43070000D02*
X128070000Y-45730000D01*
X145910000Y-43070000D02*
X128070000Y-43070000D01*
X145910000Y-43070000D02*
X145910000Y-45730000D01*
X145910000Y-45730000D02*
X128070000Y-45730000D01*
X148510000Y-44400000D02*
X148510000Y-45730000D01*
X148510000Y-45730000D02*
X147180000Y-45730000D01*
X114090000Y-42770000D02*
X114090000Y-45430000D01*
X121770000Y-42770000D02*
X114090000Y-42770000D01*
X121770000Y-42770000D02*
X121770000Y-45430000D01*
X121770000Y-45430000D02*
X114090000Y-45430000D01*
X124370000Y-44100000D02*
X124370000Y-45430000D01*
X124370000Y-45430000D02*
X123040000Y-45430000D01*
X153565000Y-67400000D02*
X153565000Y-69685000D01*
X153565000Y-69685000D02*
X155035000Y-69685000D01*
X155035000Y-69685000D02*
X155035000Y-67400000D01*
D14*
X108373000Y-54923000D02*
X108373000Y-68677001D01*
X108373000Y-68677001D02*
X118627000Y-68677001D01*
X118627000Y-54923000D02*
X108373000Y-54923000D01*
X118627000Y-68677001D02*
X118627000Y-54923000D01*
D15*
X108119000Y-61300000D02*
G75*
G02*
X107357000Y-61300000I-381000J0D01*
G01*
X107357000Y-61300000D02*
G75*
G02*
X108119000Y-61300000I381000J0D01*
G01*
D14*
X111617200Y-53378100D02*
X115782800Y-53378100D01*
X115782800Y-48221900D02*
X111617200Y-48221900D01*
X148518100Y-51758350D02*
X148518100Y-57016150D01*
X148518100Y-57016150D02*
X151792160Y-57016150D01*
X151792160Y-51758350D02*
X148518100Y-51758350D01*
X158198040Y-57016150D02*
X161472100Y-57016150D01*
X161472100Y-51758350D02*
X158198040Y-51758350D01*
X161472100Y-57016150D02*
X161472100Y-51758350D01*
D15*
X163631100Y-56407250D02*
G75*
G02*
X162869100Y-56407250I-381000J0D01*
G01*
X162869100Y-56407250D02*
G75*
G02*
X163631100Y-56407250I381000J0D01*
G01*
D13*
X128695000Y-79940000D02*
X128695000Y-81340000D01*
X128695000Y-79940000D02*
X142515000Y-79940000D01*
X128695000Y-89640000D02*
X128695000Y-83860000D01*
X128695000Y-92160000D02*
X128695000Y-94660000D01*
X128695000Y-94660000D02*
X142515000Y-94660000D01*
X142515000Y-79940000D02*
X142515000Y-81340000D01*
X142515000Y-83860000D02*
X142515000Y-89640000D01*
X142515000Y-92160000D02*
X142515000Y-94660000D01*
X158970000Y-90390000D02*
X158970000Y-75090000D01*
X158970000Y-92990000D02*
X158970000Y-91660000D01*
X160300000Y-92990000D02*
X158970000Y-92990000D01*
X161630000Y-75090000D02*
X158970000Y-75090000D01*
X161630000Y-90390000D02*
X158970000Y-90390000D01*
X161630000Y-90390000D02*
X161630000Y-75090000D01*
D14*
X131799400Y-97265000D02*
X131799400Y-98535000D01*
X131799400Y-97900000D02*
X132561400Y-97265000D01*
X131799400Y-97900000D02*
X132561400Y-97392000D01*
X131799400Y-97900000D02*
X132561400Y-97519000D01*
X131799400Y-97900000D02*
X132561400Y-97646000D01*
X131799400Y-97900000D02*
X132561400Y-97773000D01*
X131799400Y-97900000D02*
X132561400Y-98027000D01*
X131799400Y-97900000D02*
X132561400Y-98154000D01*
X131799400Y-97900000D02*
X132561400Y-98281000D01*
X131799400Y-97900000D02*
X132561400Y-98408000D01*
X131799400Y-97900000D02*
X132561400Y-98535000D01*
X132561400Y-97265000D02*
X132561400Y-98535000D01*
X132815400Y-97900000D02*
X131545400Y-97900000D01*
X134174300Y-95791800D02*
X134174300Y-96436960D01*
X134174300Y-99363040D02*
X134174300Y-100008200D01*
X134174300Y-100008200D02*
X139025700Y-100008200D01*
X139025700Y-95791800D02*
X134174300Y-95791800D01*
X139025700Y-96436960D02*
X139025700Y-95791800D01*
X139025700Y-100008200D02*
X139025700Y-99363040D01*
X121181800Y-57383800D02*
X121181800Y-59260860D01*
X121181800Y-60739140D02*
X121181800Y-62616200D01*
X121181800Y-62616200D02*
X133018200Y-62616200D01*
X133018200Y-57383800D02*
X121181800Y-57383800D01*
X133018200Y-59260860D02*
X133018200Y-57383800D01*
X133018200Y-62616200D02*
X133018200Y-60739140D01*
X124417200Y-56678100D02*
X128582800Y-56678100D01*
X128582800Y-51521900D02*
X124417200Y-51521900D01*
D13*
X108290000Y-91870000D02*
X109620000Y-91870000D01*
X108290000Y-93200000D02*
X108290000Y-91870000D01*
X110890000Y-91870000D02*
X118570000Y-91870000D01*
X110890000Y-94530000D02*
X110890000Y-91870000D01*
X110890000Y-94530000D02*
X118570000Y-94530000D01*
X118570000Y-94530000D02*
X118570000Y-91870000D01*
%LPC*%
D16*
X121871400Y-71000000D03*
D17*
X121871400Y-76000000D03*
X109371400Y-76000000D03*
X109371400Y-71000000D03*
D16*
X145971400Y-51100000D03*
D17*
X145971400Y-56100000D03*
X133471400Y-56100000D03*
X133471400Y-51100000D03*
D18*
X161320000Y-44300000D03*
D19*
X158780000Y-44300000D03*
X156240000Y-44300000D03*
X153700000Y-44300000D03*
X151160000Y-44300000D03*
D20*
X106475000Y-81980000D03*
X106475000Y-84520000D03*
X106475000Y-87060000D03*
D21*
X106475000Y-89600000D03*
D22*
X157300000Y-68987500D03*
X157300000Y-67412500D03*
D23*
X132325000Y-66750000D03*
X132325000Y-67250000D03*
X132325000Y-67750000D03*
X132325000Y-68250000D03*
X132325000Y-68750000D03*
X132325000Y-69250000D03*
X132325000Y-69750000D03*
X132325000Y-70250000D03*
X132325000Y-70750000D03*
X132325000Y-71250000D03*
X132325000Y-71750000D03*
X132325000Y-72250000D03*
X132325000Y-72750000D03*
X132325000Y-73250000D03*
X132325000Y-73750000D03*
X132325000Y-74250000D03*
D24*
X134250000Y-76175000D03*
X134750000Y-76175000D03*
X135250000Y-76175000D03*
X135750000Y-76175000D03*
X136250000Y-76175000D03*
X136750000Y-76175000D03*
X137250000Y-76175000D03*
X137750000Y-76175000D03*
X138250000Y-76175000D03*
X138750000Y-76175000D03*
X139250000Y-76175000D03*
X139750000Y-76175000D03*
X140250000Y-76175000D03*
X140750000Y-76175000D03*
X141250000Y-76175000D03*
X141750000Y-76175000D03*
D23*
X143675000Y-74250000D03*
X143675000Y-73750000D03*
X143675000Y-73250000D03*
X143675000Y-72750000D03*
X143675000Y-72250000D03*
X143675000Y-71750000D03*
X143675000Y-71250000D03*
X143675000Y-70750000D03*
X143675000Y-70250000D03*
X143675000Y-69750000D03*
X143675000Y-69250000D03*
X143675000Y-68750000D03*
X143675000Y-68250000D03*
X143675000Y-67750000D03*
X143675000Y-67250000D03*
X143675000Y-66750000D03*
D24*
X141750000Y-64825000D03*
X141250000Y-64825000D03*
X140750000Y-64825000D03*
X140250000Y-64825000D03*
X139750000Y-64825000D03*
X139250000Y-64825000D03*
X138750000Y-64825000D03*
X138250000Y-64825000D03*
X137750000Y-64825000D03*
X137250000Y-64825000D03*
X136750000Y-64825000D03*
X136250000Y-64825000D03*
X135750000Y-64825000D03*
X135250000Y-64825000D03*
X134750000Y-64825000D03*
X134250000Y-64825000D03*
D25*
X157500000Y-59780000D03*
X157500000Y-60420000D03*
X118700000Y-51980000D03*
X118700000Y-52620000D03*
D21*
X147180000Y-44400000D03*
D20*
X144640000Y-44400000D03*
X142100000Y-44400000D03*
X139560000Y-44400000D03*
X137020000Y-44400000D03*
X134480000Y-44400000D03*
X131940000Y-44400000D03*
X129400000Y-44400000D03*
D21*
X123040000Y-44100000D03*
D20*
X120500000Y-44100000D03*
X117960000Y-44100000D03*
X115420000Y-44100000D03*
D26*
X143300000Y-60300000D03*
X143300000Y-59485000D03*
D25*
X128500000Y-72780000D03*
X128500000Y-73420000D03*
X129000000Y-66860000D03*
X129000000Y-67500000D03*
D27*
X120600000Y-51520000D03*
X120600000Y-50880000D03*
X127600000Y-73420000D03*
X127600000Y-72780000D03*
D28*
X157300000Y-63400000D03*
X157300000Y-64215000D03*
D25*
X127000000Y-66880000D03*
X127000000Y-67520000D03*
X129400000Y-72780000D03*
X129400000Y-73420000D03*
D22*
X154300000Y-68987500D03*
X154300000Y-67412500D03*
D17*
X111000000Y-61300000D03*
X116000000Y-61300000D03*
D25*
X130670001Y-55430001D03*
X130670001Y-56070001D03*
D29*
X116405100Y-52705000D03*
X116405100Y-51435000D03*
X116405100Y-50165000D03*
X116405100Y-48895000D03*
X110994900Y-48895000D03*
X110994900Y-50165000D03*
X110994900Y-51435000D03*
X110994900Y-52705000D03*
D30*
X157535100Y-56407248D03*
X156265100Y-56407248D03*
X154995100Y-56407248D03*
X153725100Y-56407248D03*
X152455100Y-56407248D03*
X157535100Y-52367252D03*
X156265100Y-52367252D03*
X154995100Y-52367252D03*
X153725100Y-52367252D03*
X152455100Y-52367252D03*
D31*
X132400000Y-85200000D03*
X133500000Y-85200000D03*
X134600000Y-85200000D03*
X135700000Y-85200000D03*
X136800000Y-85200000D03*
X137900000Y-85200000D03*
X139000000Y-85200000D03*
X140100000Y-85200000D03*
D32*
X128730000Y-82600000D03*
X128730000Y-90900000D03*
X142480000Y-82600000D03*
X142480000Y-90900000D03*
D26*
X115400000Y-41407500D03*
X115400000Y-40592500D03*
D25*
X126000000Y-66880000D03*
X126000000Y-67520000D03*
D21*
X160300000Y-91660000D03*
D20*
X160300000Y-89120000D03*
X160300000Y-86580000D03*
X160300000Y-84040000D03*
X160300000Y-81500000D03*
X160300000Y-78960000D03*
X160300000Y-76420000D03*
D25*
X130000000Y-63380000D03*
X130000000Y-64020000D03*
X142400000Y-59380000D03*
X142400000Y-60020000D03*
D33*
X134555300Y-97900000D03*
X138644700Y-97900000D03*
D25*
X122600000Y-63680000D03*
X122600000Y-64320000D03*
X130000000Y-66860000D03*
X130000000Y-67500000D03*
D27*
X108266600Y-52140000D03*
X108266600Y-51500000D03*
D26*
X118100000Y-41407500D03*
X118100000Y-40592500D03*
D34*
X122642300Y-60000000D03*
X131557700Y-60000000D03*
D29*
X123794900Y-52195000D03*
X123794900Y-53465000D03*
X123794900Y-54735000D03*
X123794900Y-56005000D03*
X129205100Y-56005000D03*
X129205100Y-54735000D03*
X129205100Y-53465000D03*
X129205100Y-52195000D03*
D35*
X122207500Y-54700000D03*
X121392500Y-54700000D03*
D25*
X128000000Y-66880000D03*
X128000000Y-67520000D03*
D26*
X123800000Y-70607500D03*
X123800000Y-69792500D03*
D21*
X109620000Y-93200000D03*
D20*
X112160000Y-93200000D03*
X114700000Y-93200000D03*
X117240000Y-93200000D03*
D28*
X154310000Y-63485000D03*
X154310000Y-64300000D03*
%LPD*%
M02*
