G04 #@! TF.GenerationSoftware,KiCad,Pcbnew,8.0.7*
G04 #@! TF.CreationDate,2025-02-15T14:10:27-06:00*
G04 #@! TF.ProjectId,Rocket,526f636b-6574-42e6-9b69-6361645f7063,rev?*
G04 #@! TF.SameCoordinates,Original*
G04 #@! TF.FileFunction,Copper,L2,Bot*
G04 #@! TF.FilePolarity,Positive*
%FSLAX46Y46*%
G04 Gerber Fmt 4.6, Leading zero omitted, Abs format (unit mm)*
G04 Created by KiCad (PCBNEW 8.0.7) date 2025-02-15 14:10:27*
%MOMM*%
%LPD*%
G01*
G04 APERTURE LIST*
G04 Aperture macros list*
%AMRoundRect*
0 Rectangle with rounded corners*
0 $1 Rounding radius*
0 $2 $3 $4 $5 $6 $7 $8 $9 X,Y pos of 4 corners*
0 Add a 4 corners polygon primitive as box body*
4,1,4,$2,$3,$4,$5,$6,$7,$8,$9,$2,$3,0*
0 Add four circle primitives for the rounded corners*
1,1,$1+$1,$2,$3*
1,1,$1+$1,$4,$5*
1,1,$1+$1,$6,$7*
1,1,$1+$1,$8,$9*
0 Add four rect primitives between the rounded corners*
20,1,$1+$1,$2,$3,$4,$5,0*
20,1,$1+$1,$4,$5,$6,$7,0*
20,1,$1+$1,$6,$7,$8,$9,0*
20,1,$1+$1,$8,$9,$2,$3,0*%
G04 Aperture macros list end*
G04 #@! TA.AperFunction,ComponentPad*
%ADD10R,1.803400X1.803400*%
G04 #@! TD*
G04 #@! TA.AperFunction,ComponentPad*
%ADD11C,1.803400*%
G04 #@! TD*
G04 #@! TA.AperFunction,ComponentPad*
%ADD12RoundRect,0.250000X0.620000X0.845000X-0.620000X0.845000X-0.620000X-0.845000X0.620000X-0.845000X0*%
G04 #@! TD*
G04 #@! TA.AperFunction,ComponentPad*
%ADD13O,1.740000X2.190000*%
G04 #@! TD*
G04 #@! TA.AperFunction,ComponentPad*
%ADD14O,1.700000X1.700000*%
G04 #@! TD*
G04 #@! TA.AperFunction,ComponentPad*
%ADD15R,1.700000X1.700000*%
G04 #@! TD*
G04 #@! TA.AperFunction,SMDPad,CuDef*
%ADD16RoundRect,0.100000X-0.100000X0.217500X-0.100000X-0.217500X0.100000X-0.217500X0.100000X0.217500X0*%
G04 #@! TD*
G04 #@! TA.AperFunction,SMDPad,CuDef*
%ADD17R,0.558800X0.304800*%
G04 #@! TD*
G04 #@! TA.AperFunction,ViaPad*
%ADD18C,0.600000*%
G04 #@! TD*
G04 #@! TA.AperFunction,Conductor*
%ADD19C,0.200000*%
G04 #@! TD*
G04 APERTURE END LIST*
D10*
X121871400Y-71000000D03*
D11*
X121871400Y-76000000D03*
X109371400Y-76000000D03*
X109371400Y-71000000D03*
D10*
X145971400Y-51100000D03*
D11*
X145971400Y-56100000D03*
X133471400Y-56100000D03*
X133471400Y-51100000D03*
D12*
X161320000Y-44300000D03*
D13*
X158780000Y-44300000D03*
X156240000Y-44300000D03*
X153700000Y-44300000D03*
X151160000Y-44300000D03*
D14*
X106475000Y-81980000D03*
X106475000Y-84520000D03*
X106475000Y-87060000D03*
D15*
X106475000Y-89600000D03*
X147180000Y-44400000D03*
D14*
X144640000Y-44400000D03*
X142100000Y-44400000D03*
X139560000Y-44400000D03*
X137020000Y-44400000D03*
X134480000Y-44400000D03*
X131940000Y-44400000D03*
X129400000Y-44400000D03*
D15*
X123040000Y-44100000D03*
D14*
X120500000Y-44100000D03*
X117960000Y-44100000D03*
X115420000Y-44100000D03*
D11*
X111000000Y-61300000D03*
X116000000Y-61300000D03*
D15*
X160300000Y-91660000D03*
D14*
X160300000Y-89120000D03*
X160300000Y-86580000D03*
X160300000Y-84040000D03*
X160300000Y-81500000D03*
X160300000Y-78960000D03*
X160300000Y-76420000D03*
D15*
X109620000Y-93200000D03*
D14*
X112160000Y-93200000D03*
X114700000Y-93200000D03*
X117240000Y-93200000D03*
D16*
X133800000Y-87492500D03*
X133800000Y-88307500D03*
D17*
X141200000Y-87517500D03*
X141200000Y-86882500D03*
D16*
X137500000Y-87492500D03*
X137500000Y-88307500D03*
D17*
X136400000Y-88117500D03*
X136400000Y-87482500D03*
D16*
X142300000Y-86792500D03*
X142300000Y-87607500D03*
D17*
X132600000Y-88117500D03*
X132600000Y-87482500D03*
X129900000Y-87717500D03*
X129900000Y-87082500D03*
D16*
X131100000Y-87092500D03*
X131100000Y-87907500D03*
D18*
X123100000Y-73100000D03*
X161400000Y-46900000D03*
X130050000Y-75350000D03*
X110500000Y-84400000D03*
X109980000Y-81980000D03*
X126000000Y-65800000D03*
X128400000Y-68300000D03*
X129000000Y-65500000D03*
X130000000Y-69100000D03*
X134100000Y-86800000D03*
X136700000Y-78000000D03*
X139700000Y-86700000D03*
X138000000Y-79400000D03*
X131700000Y-86600000D03*
X136600000Y-86500000D03*
X135600000Y-78900000D03*
X136600000Y-83300000D03*
X136300000Y-62800000D03*
X139150000Y-42050000D03*
X137800000Y-40700000D03*
X118900000Y-48100000D03*
X119400000Y-47000000D03*
X136900000Y-62300000D03*
X145200000Y-81800000D03*
X141400000Y-78100000D03*
X140100000Y-83700000D03*
X132300000Y-83700000D03*
X131000000Y-70500000D03*
X143500000Y-62500000D03*
X141700000Y-54200000D03*
X138400000Y-62200000D03*
X144400000Y-88300000D03*
X131000000Y-89000000D03*
X137000000Y-89500000D03*
X144300000Y-87600000D03*
X133500000Y-89500000D03*
X122600000Y-65400000D03*
X120475000Y-93175000D03*
X121000000Y-46000000D03*
X144535000Y-46200000D03*
X142400000Y-61000000D03*
X153500000Y-59000000D03*
X118066600Y-50300000D03*
X157525000Y-92000000D03*
X130536801Y-72065456D03*
X130000000Y-64800000D03*
X145500000Y-67000000D03*
X142000000Y-77500000D03*
X119700000Y-51000000D03*
X122235000Y-53465000D03*
X129400000Y-74300000D03*
X133852062Y-77852062D03*
X157300000Y-70300000D03*
X126000000Y-68400000D03*
X157600000Y-61200000D03*
X150500000Y-58900000D03*
X133300000Y-63420000D03*
X131900000Y-55500000D03*
X109266600Y-51500000D03*
X137800000Y-83300000D03*
X108666600Y-50300000D03*
X119466600Y-61400000D03*
X153725100Y-50225100D03*
D19*
X141745000Y-57855000D02*
X141745000Y-54155000D01*
X138400000Y-62200000D02*
X138300000Y-62100000D01*
X138300000Y-62100000D02*
X138300000Y-61300000D01*
X138300000Y-61300000D02*
X141745000Y-57855000D01*
X130050000Y-75350000D02*
X130100000Y-75300000D01*
X121000000Y-84400000D02*
X130050000Y-75350000D01*
X110500000Y-84400000D02*
X121000000Y-84400000D01*
X126000000Y-65800000D02*
X128400000Y-68200000D01*
X128400000Y-68300000D02*
X128500000Y-68400000D01*
X128400000Y-68200000D02*
X128400000Y-68300000D01*
X129000000Y-68100000D02*
X130000000Y-69100000D01*
X129000000Y-65500000D02*
X129000000Y-68100000D01*
X133800000Y-87100000D02*
X134100000Y-86800000D01*
X132600000Y-87482500D02*
X133790000Y-87482500D01*
X133790000Y-87482500D02*
X133800000Y-87492500D01*
X133800000Y-87492500D02*
X133800000Y-87100000D01*
X139700000Y-86700000D02*
X141017500Y-86700000D01*
X138000000Y-79400000D02*
X136800000Y-78200000D01*
X141290000Y-86792500D02*
X141200000Y-86882500D01*
X142300000Y-86792500D02*
X141290000Y-86792500D01*
X141017500Y-86700000D02*
X141200000Y-86882500D01*
X131100000Y-87092500D02*
X131592500Y-86600000D01*
X131090000Y-87082500D02*
X131100000Y-87092500D01*
X131592500Y-86600000D02*
X131700000Y-86600000D01*
X131700000Y-86600000D02*
X131800000Y-86600000D01*
X129900000Y-87082500D02*
X131090000Y-87082500D01*
X137500000Y-87492500D02*
X136410000Y-87492500D01*
X136600000Y-79900000D02*
X136600000Y-83300000D01*
X136410000Y-87492500D02*
X136400000Y-87482500D01*
X136400000Y-86700000D02*
X136600000Y-86500000D01*
X136400000Y-87482500D02*
X136400000Y-86700000D01*
X135600000Y-78900000D02*
X136600000Y-79900000D01*
X139150000Y-42050000D02*
X137800000Y-40700000D01*
X136300000Y-62800000D02*
X133600000Y-62800000D01*
X133600000Y-62800000D02*
X118900000Y-48100000D01*
X134620000Y-62220000D02*
X119400000Y-47000000D01*
X136820000Y-62220000D02*
X134620000Y-62220000D01*
X136900000Y-62300000D02*
X136820000Y-62220000D01*
X145100000Y-81800000D02*
X145200000Y-81800000D01*
X141400000Y-78100000D02*
X145100000Y-81800000D01*
X139800000Y-84000000D02*
X140100000Y-83700000D01*
X132600000Y-84000000D02*
X139800000Y-84000000D01*
X132300000Y-83700000D02*
X132600000Y-84000000D01*
X143500000Y-62500000D02*
X142000000Y-64000000D01*
X131000000Y-64500000D02*
X131000000Y-70500000D01*
X142000000Y-64000000D02*
X131500000Y-64000000D01*
X131500000Y-64000000D02*
X131000000Y-64500000D01*
X133800000Y-89200000D02*
X133500000Y-89500000D01*
X131100000Y-88900000D02*
X131000000Y-89000000D01*
X142300000Y-87607500D02*
X144292500Y-87607500D01*
X144392500Y-88307500D02*
X144400000Y-88300000D01*
X131100000Y-87907500D02*
X131100000Y-88900000D01*
X137500000Y-89000000D02*
X137000000Y-89500000D01*
X144292500Y-87607500D02*
X144300000Y-87600000D01*
X137500000Y-88307500D02*
X144392500Y-88307500D01*
X133800000Y-88307500D02*
X133800000Y-89200000D01*
X137500000Y-88307500D02*
X137500000Y-89000000D01*
X141500000Y-54200000D02*
X141700000Y-54200000D01*
G04 #@! TA.AperFunction,Conductor*
G36*
X164942539Y-37320185D02*
G01*
X164988294Y-37372989D01*
X164999500Y-37424500D01*
X164999500Y-99675500D01*
X164979815Y-99742539D01*
X164927011Y-99788294D01*
X164875500Y-99799500D01*
X103424500Y-99799500D01*
X103357461Y-99779815D01*
X103311706Y-99727011D01*
X103300500Y-99675500D01*
X103300500Y-92332218D01*
X108589500Y-92332218D01*
X108589500Y-94067774D01*
X108599973Y-94120428D01*
X108599974Y-94120431D01*
X108639867Y-94180134D01*
X108692930Y-94215589D01*
X108699572Y-94220027D01*
X108699575Y-94220027D01*
X108699576Y-94220028D01*
X108725897Y-94225263D01*
X108752223Y-94230500D01*
X110487776Y-94230499D01*
X110540428Y-94220027D01*
X110600133Y-94180133D01*
X110640027Y-94120428D01*
X110650500Y-94067777D01*
X110650499Y-93200000D01*
X111124514Y-93200000D01*
X111144410Y-93402011D01*
X111203337Y-93596267D01*
X111299021Y-93775279D01*
X111299025Y-93775286D01*
X111427800Y-93932199D01*
X111584713Y-94060974D01*
X111584720Y-94060978D01*
X111763732Y-94156662D01*
X111763734Y-94156662D01*
X111763737Y-94156664D01*
X111957987Y-94215589D01*
X111957986Y-94215589D01*
X111976099Y-94217372D01*
X112160000Y-94235486D01*
X112362013Y-94215589D01*
X112556263Y-94156664D01*
X112735285Y-94060975D01*
X112892199Y-93932199D01*
X113020975Y-93775285D01*
X113116664Y-93596263D01*
X113175589Y-93402013D01*
X113195486Y-93200000D01*
X113664514Y-93200000D01*
X113684410Y-93402011D01*
X113743337Y-93596267D01*
X113839021Y-93775279D01*
X113839025Y-93775286D01*
X113967800Y-93932199D01*
X114124713Y-94060974D01*
X114124720Y-94060978D01*
X114303732Y-94156662D01*
X114303734Y-94156662D01*
X114303737Y-94156664D01*
X114497987Y-94215589D01*
X114497986Y-94215589D01*
X114516099Y-94217372D01*
X114700000Y-94235486D01*
X114902013Y-94215589D01*
X115096263Y-94156664D01*
X115275285Y-94060975D01*
X115432199Y-93932199D01*
X115560975Y-93775285D01*
X115656664Y-93596263D01*
X115685603Y-93500861D01*
X115723899Y-93442425D01*
X115787711Y-93413968D01*
X115856778Y-93424527D01*
X115909172Y-93470751D01*
X115924038Y-93504764D01*
X115966567Y-93663486D01*
X115966570Y-93663492D01*
X116066399Y-93877578D01*
X116201894Y-94071082D01*
X116368917Y-94238105D01*
X116562421Y-94373600D01*
X116776507Y-94473429D01*
X116776516Y-94473433D01*
X116990000Y-94530634D01*
X116990000Y-93633012D01*
X117047007Y-93665925D01*
X117174174Y-93700000D01*
X117305826Y-93700000D01*
X117432993Y-93665925D01*
X117490000Y-93633012D01*
X117490000Y-94530633D01*
X117703483Y-94473433D01*
X117703492Y-94473429D01*
X117917578Y-94373600D01*
X118111082Y-94238105D01*
X118278105Y-94071082D01*
X118413600Y-93877578D01*
X118513429Y-93663492D01*
X118513432Y-93663486D01*
X118570636Y-93450000D01*
X117673012Y-93450000D01*
X117705925Y-93392993D01*
X117740000Y-93265826D01*
X117740000Y-93134174D01*
X117705925Y-93007007D01*
X117673012Y-92950000D01*
X118570636Y-92950000D01*
X118570635Y-92949999D01*
X118513432Y-92736513D01*
X118513429Y-92736507D01*
X118413600Y-92522422D01*
X118413599Y-92522420D01*
X118278113Y-92328926D01*
X118278108Y-92328920D01*
X118111082Y-92161894D01*
X117917578Y-92026399D01*
X117703492Y-91926570D01*
X117703486Y-91926567D01*
X117490000Y-91869364D01*
X117490000Y-92766988D01*
X117432993Y-92734075D01*
X117305826Y-92700000D01*
X117174174Y-92700000D01*
X117047007Y-92734075D01*
X116990000Y-92766988D01*
X116990000Y-91869364D01*
X116989999Y-91869364D01*
X116776513Y-91926567D01*
X116776507Y-91926570D01*
X116562422Y-92026399D01*
X116562420Y-92026400D01*
X116368926Y-92161886D01*
X116368920Y-92161891D01*
X116201891Y-92328920D01*
X116201886Y-92328926D01*
X116066400Y-92522420D01*
X116066399Y-92522422D01*
X115966570Y-92736507D01*
X115966567Y-92736514D01*
X115924038Y-92895235D01*
X115887673Y-92954895D01*
X115824826Y-92985424D01*
X115755450Y-92977129D01*
X115701572Y-92932644D01*
X115685604Y-92899141D01*
X115656664Y-92803737D01*
X115560975Y-92624715D01*
X115560974Y-92624713D01*
X115432199Y-92467800D01*
X115275286Y-92339025D01*
X115275279Y-92339021D01*
X115096267Y-92243337D01*
X114999138Y-92213873D01*
X114902013Y-92184411D01*
X114902011Y-92184410D01*
X114902013Y-92184410D01*
X114700000Y-92164514D01*
X114497988Y-92184410D01*
X114303732Y-92243337D01*
X114124720Y-92339021D01*
X114124713Y-92339025D01*
X113967800Y-92467800D01*
X113839025Y-92624713D01*
X113839021Y-92624720D01*
X113743337Y-92803732D01*
X113684410Y-92997988D01*
X113664514Y-93200000D01*
X113195486Y-93200000D01*
X113175589Y-92997987D01*
X113116664Y-92803737D01*
X113116662Y-92803734D01*
X113116662Y-92803732D01*
X113020978Y-92624720D01*
X113020974Y-92624713D01*
X112892199Y-92467800D01*
X112735286Y-92339025D01*
X112735279Y-92339021D01*
X112556267Y-92243337D01*
X112459138Y-92213873D01*
X112362013Y-92184411D01*
X112362011Y-92184410D01*
X112362013Y-92184410D01*
X112160000Y-92164514D01*
X111957988Y-92184410D01*
X111763732Y-92243337D01*
X111584720Y-92339021D01*
X111584713Y-92339025D01*
X111427800Y-92467800D01*
X111299025Y-92624713D01*
X111299021Y-92624720D01*
X111203337Y-92803732D01*
X111144410Y-92997988D01*
X111124514Y-93200000D01*
X110650499Y-93200000D01*
X110650499Y-92332224D01*
X110640027Y-92279572D01*
X110640025Y-92279569D01*
X110640025Y-92279568D01*
X110600132Y-92219865D01*
X110540430Y-92179974D01*
X110540423Y-92179971D01*
X110487780Y-92169500D01*
X108752225Y-92169500D01*
X108699571Y-92179973D01*
X108699568Y-92179974D01*
X108639865Y-92219867D01*
X108599974Y-92279569D01*
X108599971Y-92279576D01*
X108589500Y-92332218D01*
X103300500Y-92332218D01*
X103300500Y-90762155D01*
X158950000Y-90762155D01*
X158950000Y-91410000D01*
X159866988Y-91410000D01*
X159834075Y-91467007D01*
X159800000Y-91594174D01*
X159800000Y-91725826D01*
X159834075Y-91852993D01*
X159866988Y-91910000D01*
X158950000Y-91910000D01*
X158950000Y-92557844D01*
X158956401Y-92617372D01*
X158956403Y-92617379D01*
X159006645Y-92752086D01*
X159006649Y-92752093D01*
X159092809Y-92867187D01*
X159092812Y-92867190D01*
X159207906Y-92953350D01*
X159207913Y-92953354D01*
X159342620Y-93003596D01*
X159342627Y-93003598D01*
X159402155Y-93009999D01*
X159402172Y-93010000D01*
X160050000Y-93010000D01*
X160050000Y-92093012D01*
X160107007Y-92125925D01*
X160234174Y-92160000D01*
X160365826Y-92160000D01*
X160492993Y-92125925D01*
X160550000Y-92093012D01*
X160550000Y-93010000D01*
X161197828Y-93010000D01*
X161197844Y-93009999D01*
X161257372Y-93003598D01*
X161257379Y-93003596D01*
X161392086Y-92953354D01*
X161392093Y-92953350D01*
X161507187Y-92867190D01*
X161507190Y-92867187D01*
X161593350Y-92752093D01*
X161593354Y-92752086D01*
X161643596Y-92617379D01*
X161643598Y-92617372D01*
X161649999Y-92557844D01*
X161650000Y-92557827D01*
X161650000Y-91910000D01*
X160733012Y-91910000D01*
X160765925Y-91852993D01*
X160800000Y-91725826D01*
X160800000Y-91594174D01*
X160765925Y-91467007D01*
X160733012Y-91410000D01*
X161650000Y-91410000D01*
X161650000Y-90762172D01*
X161649999Y-90762155D01*
X161643598Y-90702627D01*
X161643596Y-90702620D01*
X161593354Y-90567913D01*
X161593350Y-90567906D01*
X161507190Y-90452812D01*
X161507187Y-90452809D01*
X161392093Y-90366649D01*
X161392086Y-90366645D01*
X161257379Y-90316403D01*
X161257372Y-90316401D01*
X161197844Y-90310000D01*
X160754758Y-90310000D01*
X160687719Y-90290315D01*
X160641964Y-90237511D01*
X160632020Y-90168353D01*
X160661045Y-90104797D01*
X160696305Y-90076642D01*
X160875279Y-89980978D01*
X160875285Y-89980975D01*
X161032199Y-89852199D01*
X161160975Y-89695285D01*
X161256664Y-89516263D01*
X161315589Y-89322013D01*
X161335486Y-89120000D01*
X161315589Y-88917987D01*
X161256664Y-88723737D01*
X161256662Y-88723734D01*
X161256662Y-88723732D01*
X161160978Y-88544720D01*
X161160974Y-88544713D01*
X161032199Y-88387800D01*
X160875286Y-88259025D01*
X160875279Y-88259021D01*
X160696267Y-88163337D01*
X160599138Y-88133873D01*
X160502013Y-88104411D01*
X160502011Y-88104410D01*
X160502013Y-88104410D01*
X160300000Y-88084514D01*
X160097988Y-88104410D01*
X159903732Y-88163337D01*
X159724720Y-88259021D01*
X159724713Y-88259025D01*
X159567800Y-88387800D01*
X159439025Y-88544713D01*
X159439021Y-88544720D01*
X159343337Y-88723732D01*
X159284410Y-88917988D01*
X159264514Y-89120000D01*
X159284410Y-89322011D01*
X159343337Y-89516267D01*
X159439021Y-89695279D01*
X159439025Y-89695286D01*
X159567800Y-89852199D01*
X159724713Y-89980974D01*
X159724720Y-89980978D01*
X159903695Y-90076642D01*
X159953539Y-90125604D01*
X159969000Y-90193741D01*
X159945169Y-90259421D01*
X159889611Y-90301790D01*
X159845242Y-90310000D01*
X159402155Y-90310000D01*
X159342627Y-90316401D01*
X159342620Y-90316403D01*
X159207913Y-90366645D01*
X159207906Y-90366649D01*
X159092812Y-90452809D01*
X159092809Y-90452812D01*
X159006649Y-90567906D01*
X159006645Y-90567913D01*
X158956403Y-90702620D01*
X158956401Y-90702627D01*
X158950000Y-90762155D01*
X103300500Y-90762155D01*
X103300500Y-88732218D01*
X105444500Y-88732218D01*
X105444500Y-90467774D01*
X105454973Y-90520428D01*
X105454974Y-90520431D01*
X105494867Y-90580134D01*
X105554569Y-90620025D01*
X105554572Y-90620027D01*
X105554575Y-90620027D01*
X105554576Y-90620028D01*
X105580897Y-90625263D01*
X105607223Y-90630500D01*
X107342776Y-90630499D01*
X107395428Y-90620027D01*
X107455133Y-90580133D01*
X107495027Y-90520428D01*
X107505500Y-90467777D01*
X107505499Y-88732224D01*
X107495027Y-88679572D01*
X107495025Y-88679569D01*
X107495025Y-88679568D01*
X107455132Y-88619865D01*
X107395430Y-88579974D01*
X107395423Y-88579971D01*
X107342780Y-88569500D01*
X105607225Y-88569500D01*
X105554571Y-88579973D01*
X105554568Y-88579974D01*
X105494865Y-88619867D01*
X105454974Y-88679569D01*
X105454971Y-88679576D01*
X105444500Y-88732218D01*
X103300500Y-88732218D01*
X103300500Y-87060000D01*
X105439514Y-87060000D01*
X105459410Y-87262011D01*
X105518337Y-87456267D01*
X105614021Y-87635279D01*
X105614025Y-87635286D01*
X105742800Y-87792199D01*
X105899713Y-87920974D01*
X105899720Y-87920978D01*
X106078732Y-88016662D01*
X106078734Y-88016662D01*
X106078737Y-88016664D01*
X106272987Y-88075589D01*
X106272986Y-88075589D01*
X106291099Y-88077372D01*
X106475000Y-88095486D01*
X106677013Y-88075589D01*
X106871263Y-88016664D01*
X107050285Y-87920975D01*
X107054222Y-87917744D01*
X129120600Y-87917744D01*
X129127001Y-87977272D01*
X129127003Y-87977279D01*
X129177245Y-88111986D01*
X129177249Y-88111993D01*
X129263409Y-88227087D01*
X129263412Y-88227090D01*
X129378506Y-88313250D01*
X129378513Y-88313254D01*
X129513220Y-88363496D01*
X129513227Y-88363498D01*
X129572755Y-88369899D01*
X129572772Y-88369900D01*
X129747600Y-88369900D01*
X129747600Y-87869900D01*
X129120600Y-87869900D01*
X129120600Y-87917744D01*
X107054222Y-87917744D01*
X107207199Y-87792199D01*
X107335975Y-87635285D01*
X107399063Y-87517255D01*
X129120600Y-87517255D01*
X129120600Y-87565100D01*
X129776000Y-87565100D01*
X129843039Y-87584785D01*
X129888794Y-87637589D01*
X129900000Y-87689100D01*
X129900000Y-87717500D01*
X129928400Y-87717500D01*
X129995439Y-87737185D01*
X130041194Y-87789989D01*
X130052400Y-87841500D01*
X130052400Y-88369900D01*
X130227228Y-88369900D01*
X130227244Y-88369899D01*
X130286772Y-88363498D01*
X130286779Y-88363496D01*
X130421486Y-88313254D01*
X130421493Y-88313250D01*
X130536587Y-88227090D01*
X130542860Y-88220818D01*
X130543792Y-88221750D01*
X130592427Y-88185340D01*
X130662118Y-88180353D01*
X130723443Y-88213835D01*
X130749198Y-88251431D01*
X130764580Y-88286267D01*
X130764581Y-88286268D01*
X130783181Y-88304868D01*
X130816666Y-88366191D01*
X130819500Y-88392549D01*
X130819500Y-88477119D01*
X130799815Y-88544158D01*
X130762540Y-88581434D01*
X130682106Y-88633126D01*
X130682104Y-88633127D01*
X130682104Y-88633128D01*
X130603595Y-88723732D01*
X130591621Y-88737551D01*
X130591620Y-88737552D01*
X130534222Y-88863234D01*
X130514559Y-89000000D01*
X130534222Y-89136765D01*
X130579966Y-89236928D01*
X130591621Y-89262449D01*
X130682104Y-89366872D01*
X130682106Y-89366873D01*
X130682108Y-89366875D01*
X130798338Y-89441572D01*
X130798343Y-89441574D01*
X130930912Y-89480499D01*
X130930914Y-89480500D01*
X130930915Y-89480500D01*
X131069086Y-89480500D01*
X131069086Y-89480499D01*
X131201659Y-89441573D01*
X131317896Y-89366872D01*
X131408379Y-89262449D01*
X131465777Y-89136765D01*
X131485441Y-89000000D01*
X131465777Y-88863235D01*
X131451718Y-88832451D01*
X131446644Y-88821340D01*
X131408379Y-88737551D01*
X131408374Y-88737545D01*
X131403584Y-88730091D01*
X131405537Y-88728835D01*
X131381762Y-88676772D01*
X131380500Y-88659128D01*
X131380500Y-88392549D01*
X131400185Y-88325510D01*
X131406443Y-88317744D01*
X131820600Y-88317744D01*
X131827001Y-88377272D01*
X131827003Y-88377279D01*
X131877245Y-88511986D01*
X131877249Y-88511993D01*
X131963409Y-88627087D01*
X131963412Y-88627090D01*
X132078506Y-88713250D01*
X132078513Y-88713254D01*
X132213220Y-88763496D01*
X132213227Y-88763498D01*
X132272755Y-88769899D01*
X132272772Y-88769900D01*
X132447600Y-88769900D01*
X132447600Y-88269900D01*
X131820600Y-88269900D01*
X131820600Y-88317744D01*
X131406443Y-88317744D01*
X131416819Y-88304868D01*
X131421687Y-88300000D01*
X131435420Y-88286267D01*
X131477779Y-88190333D01*
X131480500Y-88166880D01*
X131480500Y-87917255D01*
X131820600Y-87917255D01*
X131820600Y-87965100D01*
X132476000Y-87965100D01*
X132543039Y-87984785D01*
X132588794Y-88037589D01*
X132600000Y-88089100D01*
X132600000Y-88117500D01*
X132628400Y-88117500D01*
X132695439Y-88137185D01*
X132741194Y-88189989D01*
X132752400Y-88241500D01*
X132752400Y-88769900D01*
X132927228Y-88769900D01*
X132927244Y-88769899D01*
X132986772Y-88763498D01*
X132986779Y-88763496D01*
X133121486Y-88713254D01*
X133121493Y-88713250D01*
X133236587Y-88627090D01*
X133242860Y-88620818D01*
X133243792Y-88621750D01*
X133292427Y-88585340D01*
X133362118Y-88580353D01*
X133423443Y-88613835D01*
X133449198Y-88651431D01*
X133464580Y-88686267D01*
X133464581Y-88686268D01*
X133483181Y-88704868D01*
X133516666Y-88766191D01*
X133519500Y-88792549D01*
X133519500Y-88900663D01*
X133499815Y-88967702D01*
X133447011Y-89013457D01*
X133430435Y-89019640D01*
X133298341Y-89058426D01*
X133298338Y-89058427D01*
X133182108Y-89133124D01*
X133182106Y-89133126D01*
X133091621Y-89237551D01*
X133091620Y-89237552D01*
X133034222Y-89363234D01*
X133014559Y-89500000D01*
X133034222Y-89636765D01*
X133091620Y-89762447D01*
X133091621Y-89762449D01*
X133182104Y-89866872D01*
X133182106Y-89866873D01*
X133182108Y-89866875D01*
X133298338Y-89941572D01*
X133298343Y-89941574D01*
X133430912Y-89980499D01*
X133430914Y-89980500D01*
X133430915Y-89980500D01*
X133569086Y-89980500D01*
X133569086Y-89980499D01*
X133701659Y-89941573D01*
X133817896Y-89866872D01*
X133908379Y-89762449D01*
X133965777Y-89636765D01*
X133985441Y-89500000D01*
X133983117Y-89483838D01*
X133993061Y-89414682D01*
X134018175Y-89378511D01*
X134024456Y-89372231D01*
X134061384Y-89308269D01*
X134080500Y-89236928D01*
X134080500Y-88792549D01*
X134100185Y-88725510D01*
X134116819Y-88704868D01*
X134135420Y-88686267D01*
X134177779Y-88590333D01*
X134180500Y-88566880D01*
X134180500Y-88317744D01*
X135620600Y-88317744D01*
X135627001Y-88377272D01*
X135627003Y-88377279D01*
X135677245Y-88511986D01*
X135677249Y-88511993D01*
X135763409Y-88627087D01*
X135763412Y-88627090D01*
X135878506Y-88713250D01*
X135878513Y-88713254D01*
X136013220Y-88763496D01*
X136013227Y-88763498D01*
X136072755Y-88769899D01*
X136072772Y-88769900D01*
X136247600Y-88769900D01*
X136247600Y-88269900D01*
X135620600Y-88269900D01*
X135620600Y-88317744D01*
X134180500Y-88317744D01*
X134180500Y-88048120D01*
X134177779Y-88024667D01*
X134144847Y-87950084D01*
X134140548Y-87917255D01*
X135620600Y-87917255D01*
X135620600Y-87965100D01*
X136276000Y-87965100D01*
X136343039Y-87984785D01*
X136388794Y-88037589D01*
X136400000Y-88089100D01*
X136400000Y-88117500D01*
X136428400Y-88117500D01*
X136495439Y-88137185D01*
X136541194Y-88189989D01*
X136552400Y-88241500D01*
X136552400Y-88769900D01*
X136727228Y-88769900D01*
X136727244Y-88769899D01*
X136786772Y-88763498D01*
X136786779Y-88763496D01*
X136921486Y-88713254D01*
X136921489Y-88713252D01*
X136990870Y-88661314D01*
X137056335Y-88636896D01*
X137124608Y-88651747D01*
X137155198Y-88679398D01*
X137156455Y-88678142D01*
X137183181Y-88704868D01*
X137216666Y-88766191D01*
X137219500Y-88792549D01*
X137219500Y-88832451D01*
X137199815Y-88899490D01*
X137183181Y-88920132D01*
X137120132Y-88983181D01*
X137058809Y-89016666D01*
X137032451Y-89019500D01*
X136930912Y-89019500D01*
X136798343Y-89058425D01*
X136798338Y-89058427D01*
X136682108Y-89133124D01*
X136682106Y-89133126D01*
X136591621Y-89237551D01*
X136591620Y-89237552D01*
X136534222Y-89363234D01*
X136514559Y-89500000D01*
X136534222Y-89636765D01*
X136591620Y-89762447D01*
X136591621Y-89762449D01*
X136682104Y-89866872D01*
X136682106Y-89866873D01*
X136682108Y-89866875D01*
X136798338Y-89941572D01*
X136798343Y-89941574D01*
X136930912Y-89980499D01*
X136930914Y-89980500D01*
X136930915Y-89980500D01*
X137069086Y-89980500D01*
X137069086Y-89980499D01*
X137201659Y-89941573D01*
X137317896Y-89866872D01*
X137408379Y-89762449D01*
X137465777Y-89636765D01*
X137485441Y-89500000D01*
X137483117Y-89483840D01*
X137493058Y-89414685D01*
X137518168Y-89378518D01*
X137724456Y-89172231D01*
X137761384Y-89108269D01*
X137780500Y-89036928D01*
X137780500Y-88963071D01*
X137780500Y-88792549D01*
X137800185Y-88725510D01*
X137816819Y-88704868D01*
X137835420Y-88686267D01*
X137846173Y-88661914D01*
X137891259Y-88608537D01*
X137958045Y-88588010D01*
X137959607Y-88588000D01*
X143957132Y-88588000D01*
X144024171Y-88607685D01*
X144050844Y-88630797D01*
X144082101Y-88666869D01*
X144082108Y-88666875D01*
X144198338Y-88741572D01*
X144198343Y-88741574D01*
X144330912Y-88780499D01*
X144330914Y-88780500D01*
X144330915Y-88780500D01*
X144469086Y-88780500D01*
X144469086Y-88780499D01*
X144601659Y-88741573D01*
X144607915Y-88737553D01*
X144698139Y-88679569D01*
X144717896Y-88666872D01*
X144808379Y-88562449D01*
X144865777Y-88436765D01*
X144885441Y-88300000D01*
X144865777Y-88163235D01*
X144853880Y-88137185D01*
X144813206Y-88048121D01*
X144808379Y-88037551D01*
X144742710Y-87961764D01*
X144713686Y-87898212D01*
X144723628Y-87829057D01*
X144765777Y-87736765D01*
X144785441Y-87600000D01*
X144765777Y-87463235D01*
X144763258Y-87457720D01*
X144725633Y-87375333D01*
X144708379Y-87337551D01*
X144617896Y-87233128D01*
X144617893Y-87233126D01*
X144617891Y-87233124D01*
X144501661Y-87158427D01*
X144501656Y-87158425D01*
X144369087Y-87119500D01*
X144369085Y-87119500D01*
X144230915Y-87119500D01*
X144230912Y-87119500D01*
X144098343Y-87158425D01*
X144098338Y-87158427D01*
X143982108Y-87233124D01*
X143982105Y-87233127D01*
X143937846Y-87284204D01*
X143879068Y-87321977D01*
X143844134Y-87327000D01*
X142759607Y-87327000D01*
X142692568Y-87307315D01*
X142646813Y-87254511D01*
X142646178Y-87253098D01*
X142645992Y-87252676D01*
X142644852Y-87250096D01*
X142635774Y-87180821D01*
X142644846Y-87149917D01*
X142677779Y-87075333D01*
X142680500Y-87051880D01*
X142680500Y-86580000D01*
X159264514Y-86580000D01*
X159284410Y-86782011D01*
X159343337Y-86976267D01*
X159439021Y-87155279D01*
X159439025Y-87155286D01*
X159567800Y-87312199D01*
X159724713Y-87440974D01*
X159724720Y-87440978D01*
X159903732Y-87536662D01*
X159903734Y-87536662D01*
X159903737Y-87536664D01*
X160097987Y-87595589D01*
X160097986Y-87595589D01*
X160116099Y-87597372D01*
X160300000Y-87615486D01*
X160502013Y-87595589D01*
X160696263Y-87536664D01*
X160875285Y-87440975D01*
X161032199Y-87312199D01*
X161160975Y-87155285D01*
X161236202Y-87014544D01*
X161256662Y-86976267D01*
X161256662Y-86976266D01*
X161256664Y-86976263D01*
X161315589Y-86782013D01*
X161335486Y-86580000D01*
X161315589Y-86377987D01*
X161256664Y-86183737D01*
X161256662Y-86183734D01*
X161256662Y-86183732D01*
X161160978Y-86004720D01*
X161160974Y-86004713D01*
X161032199Y-85847800D01*
X160875286Y-85719025D01*
X160875279Y-85719021D01*
X160696267Y-85623337D01*
X160599138Y-85593873D01*
X160502013Y-85564411D01*
X160502011Y-85564410D01*
X160502013Y-85564410D01*
X160300000Y-85544514D01*
X160097988Y-85564410D01*
X159903732Y-85623337D01*
X159724720Y-85719021D01*
X159724713Y-85719025D01*
X159567800Y-85847800D01*
X159439025Y-86004713D01*
X159439021Y-86004720D01*
X159343337Y-86183732D01*
X159284410Y-86377988D01*
X159264514Y-86580000D01*
X142680500Y-86580000D01*
X142680500Y-86533120D01*
X142677779Y-86509667D01*
X142670117Y-86492315D01*
X142662206Y-86474398D01*
X142635420Y-86413733D01*
X142561267Y-86339580D01*
X142534588Y-86327800D01*
X142465334Y-86297221D01*
X142441881Y-86294500D01*
X142441880Y-86294500D01*
X142158120Y-86294500D01*
X142158118Y-86294500D01*
X142134666Y-86297221D01*
X142134664Y-86297221D01*
X142038732Y-86339580D01*
X141964579Y-86413733D01*
X141953827Y-86438086D01*
X141908741Y-86491463D01*
X141841955Y-86511990D01*
X141840393Y-86512000D01*
X141277549Y-86512000D01*
X141210510Y-86492315D01*
X141189868Y-86475681D01*
X141189732Y-86475545D01*
X141189731Y-86475544D01*
X141125769Y-86438616D01*
X141123791Y-86438086D01*
X141105288Y-86433127D01*
X141105288Y-86433128D01*
X141054429Y-86419500D01*
X141054428Y-86419500D01*
X140149367Y-86419500D01*
X140082328Y-86399815D01*
X140055655Y-86376704D01*
X140043983Y-86363234D01*
X140017896Y-86333128D01*
X140017893Y-86333126D01*
X140017891Y-86333124D01*
X139901661Y-86258427D01*
X139901656Y-86258425D01*
X139769087Y-86219500D01*
X139769085Y-86219500D01*
X139630915Y-86219500D01*
X139630912Y-86219500D01*
X139498343Y-86258425D01*
X139498338Y-86258427D01*
X139382108Y-86333124D01*
X139382106Y-86333126D01*
X139382104Y-86333127D01*
X139382104Y-86333128D01*
X139312260Y-86413732D01*
X139291621Y-86437551D01*
X139291620Y-86437552D01*
X139234222Y-86563234D01*
X139214559Y-86700000D01*
X139234222Y-86836765D01*
X139282087Y-86941572D01*
X139291621Y-86962449D01*
X139382104Y-87066872D01*
X139382106Y-87066873D01*
X139382108Y-87066875D01*
X139498338Y-87141572D01*
X139498343Y-87141574D01*
X139630912Y-87180499D01*
X139630914Y-87180500D01*
X139630915Y-87180500D01*
X139769086Y-87180500D01*
X139769086Y-87180499D01*
X139901659Y-87141573D01*
X139911984Y-87134938D01*
X139996692Y-87080499D01*
X140017896Y-87066872D01*
X140055655Y-87023296D01*
X140114433Y-86985523D01*
X140149367Y-86980500D01*
X140351807Y-86980500D01*
X140418846Y-87000185D01*
X140464601Y-87052989D01*
X140474545Y-87122147D01*
X140467989Y-87147834D01*
X140427002Y-87257723D01*
X140427001Y-87257727D01*
X140420600Y-87317255D01*
X140420600Y-87365100D01*
X141076000Y-87365100D01*
X141143039Y-87384785D01*
X141188794Y-87437589D01*
X141200000Y-87489100D01*
X141200000Y-87545900D01*
X141180315Y-87612939D01*
X141127511Y-87658694D01*
X141076000Y-87669900D01*
X140420600Y-87669900D01*
X140420600Y-87717744D01*
X140427001Y-87777272D01*
X140427003Y-87777279D01*
X140457732Y-87859667D01*
X140462716Y-87929358D01*
X140429231Y-87990681D01*
X140367908Y-88024166D01*
X140341550Y-88027000D01*
X137959607Y-88027000D01*
X137892568Y-88007315D01*
X137846813Y-87954511D01*
X137846178Y-87953098D01*
X137844852Y-87950096D01*
X137835774Y-87880821D01*
X137844846Y-87849917D01*
X137877779Y-87775333D01*
X137880500Y-87751880D01*
X137880500Y-87233120D01*
X137877779Y-87209667D01*
X137874389Y-87201990D01*
X137858071Y-87165033D01*
X137835420Y-87113733D01*
X137761267Y-87039580D01*
X137728611Y-87025161D01*
X137665334Y-86997221D01*
X137641881Y-86994500D01*
X137641880Y-86994500D01*
X137358120Y-86994500D01*
X137358118Y-86994500D01*
X137334666Y-86997221D01*
X137334664Y-86997221D01*
X137238732Y-87039580D01*
X137164579Y-87113733D01*
X137153827Y-87138086D01*
X137108741Y-87191463D01*
X137041955Y-87211990D01*
X137040393Y-87212000D01*
X136865157Y-87212000D01*
X136798118Y-87192315D01*
X136796265Y-87191101D01*
X136759005Y-87166204D01*
X136714201Y-87112592D01*
X136705494Y-87043267D01*
X136735649Y-86980239D01*
X136792967Y-86944125D01*
X136801659Y-86941573D01*
X136809141Y-86936765D01*
X136889193Y-86885318D01*
X136917896Y-86866872D01*
X137008379Y-86762449D01*
X137065777Y-86636765D01*
X137085441Y-86500000D01*
X137065777Y-86363235D01*
X137063581Y-86358427D01*
X137034387Y-86294500D01*
X137008379Y-86237551D01*
X136917896Y-86133128D01*
X136917893Y-86133126D01*
X136917891Y-86133124D01*
X136801661Y-86058427D01*
X136801656Y-86058425D01*
X136669087Y-86019500D01*
X136669085Y-86019500D01*
X136530915Y-86019500D01*
X136530912Y-86019500D01*
X136398343Y-86058425D01*
X136398338Y-86058427D01*
X136282108Y-86133124D01*
X136282106Y-86133126D01*
X136282104Y-86133127D01*
X136282104Y-86133128D01*
X136225004Y-86199025D01*
X136191621Y-86237551D01*
X136191620Y-86237552D01*
X136134222Y-86363234D01*
X136114559Y-86500000D01*
X136127923Y-86592955D01*
X136124960Y-86642694D01*
X136119500Y-86663071D01*
X136119500Y-87048501D01*
X136099815Y-87115540D01*
X136058833Y-87151051D01*
X136060327Y-87153287D01*
X135990465Y-87199967D01*
X135950574Y-87259669D01*
X135950571Y-87259676D01*
X135940100Y-87312318D01*
X135940100Y-87414544D01*
X135920415Y-87481583D01*
X135884534Y-87514995D01*
X135885611Y-87516433D01*
X135763409Y-87607913D01*
X135677249Y-87723006D01*
X135677245Y-87723013D01*
X135627003Y-87857720D01*
X135627001Y-87857727D01*
X135620600Y-87917255D01*
X134140548Y-87917255D01*
X134135776Y-87880809D01*
X134144846Y-87849917D01*
X134177779Y-87775333D01*
X134180500Y-87751880D01*
X134180500Y-87369973D01*
X134200185Y-87302934D01*
X134252989Y-87257179D01*
X134269559Y-87250997D01*
X134301659Y-87241573D01*
X134314802Y-87233127D01*
X134417891Y-87166875D01*
X134417890Y-87166875D01*
X134417896Y-87166872D01*
X134508379Y-87062449D01*
X134565777Y-86936765D01*
X134585441Y-86800000D01*
X134565849Y-86663737D01*
X134565777Y-86663234D01*
X134508379Y-86537552D01*
X134508379Y-86537551D01*
X134417896Y-86433128D01*
X134417893Y-86433126D01*
X134417891Y-86433124D01*
X134301661Y-86358427D01*
X134301656Y-86358425D01*
X134169087Y-86319500D01*
X134169085Y-86319500D01*
X134030915Y-86319500D01*
X134030912Y-86319500D01*
X133898343Y-86358425D01*
X133898338Y-86358427D01*
X133782108Y-86433124D01*
X133782106Y-86433126D01*
X133782104Y-86433127D01*
X133782104Y-86433128D01*
X133715783Y-86509667D01*
X133691621Y-86537551D01*
X133691620Y-86537552D01*
X133634222Y-86663234D01*
X133614559Y-86800000D01*
X133614559Y-86800001D01*
X133616882Y-86816160D01*
X133606938Y-86885318D01*
X133581829Y-86921483D01*
X133575543Y-86927768D01*
X133545101Y-86980495D01*
X133545102Y-86980496D01*
X133538618Y-86991727D01*
X133538615Y-86991734D01*
X133529658Y-87025161D01*
X133497566Y-87080745D01*
X133464581Y-87113730D01*
X133458242Y-87128088D01*
X133413155Y-87181464D01*
X133346368Y-87201990D01*
X133344808Y-87202000D01*
X133050190Y-87202000D01*
X132983151Y-87182315D01*
X132981340Y-87181128D01*
X132957251Y-87165033D01*
X132949827Y-87160072D01*
X132949823Y-87160071D01*
X132897180Y-87149600D01*
X132302825Y-87149600D01*
X132250171Y-87160073D01*
X132250168Y-87160074D01*
X132190465Y-87199967D01*
X132150574Y-87259669D01*
X132150571Y-87259676D01*
X132140100Y-87312318D01*
X132140100Y-87414544D01*
X132120415Y-87481583D01*
X132084534Y-87514995D01*
X132085611Y-87516433D01*
X131963409Y-87607913D01*
X131877249Y-87723006D01*
X131877245Y-87723013D01*
X131827003Y-87857720D01*
X131827001Y-87857727D01*
X131820600Y-87917255D01*
X131480500Y-87917255D01*
X131480500Y-87648120D01*
X131477779Y-87624667D01*
X131444847Y-87550084D01*
X131435776Y-87480809D01*
X131444846Y-87449917D01*
X131477779Y-87375333D01*
X131480500Y-87351880D01*
X131480500Y-87201977D01*
X131500185Y-87134938D01*
X131552989Y-87089183D01*
X131622147Y-87079239D01*
X131622149Y-87079239D01*
X131630911Y-87080498D01*
X131630915Y-87080500D01*
X131630919Y-87080500D01*
X131769086Y-87080500D01*
X131769086Y-87080499D01*
X131901659Y-87041573D01*
X131904761Y-87039580D01*
X131996690Y-86980500D01*
X132017896Y-86966872D01*
X132108379Y-86862449D01*
X132165777Y-86736765D01*
X132185441Y-86600000D01*
X132168248Y-86480426D01*
X132165777Y-86463234D01*
X132126846Y-86377988D01*
X132108379Y-86337551D01*
X132017896Y-86233128D01*
X132017893Y-86233126D01*
X132017891Y-86233124D01*
X131901661Y-86158427D01*
X131901656Y-86158425D01*
X131769087Y-86119500D01*
X131769085Y-86119500D01*
X131630915Y-86119500D01*
X131630912Y-86119500D01*
X131498343Y-86158425D01*
X131498338Y-86158427D01*
X131382108Y-86233124D01*
X131382106Y-86233126D01*
X131382104Y-86233127D01*
X131382104Y-86233128D01*
X131328925Y-86294500D01*
X131291621Y-86337551D01*
X131291618Y-86337554D01*
X131234224Y-86463230D01*
X131234222Y-86463238D01*
X131230641Y-86488147D01*
X131201616Y-86551703D01*
X131142838Y-86589477D01*
X131107903Y-86594500D01*
X130958118Y-86594500D01*
X130934666Y-86597221D01*
X130934664Y-86597221D01*
X130838732Y-86639580D01*
X130764582Y-86713730D01*
X130764576Y-86713738D01*
X130758242Y-86728086D01*
X130713156Y-86781463D01*
X130646370Y-86801990D01*
X130644808Y-86802000D01*
X130350190Y-86802000D01*
X130283151Y-86782315D01*
X130281340Y-86781128D01*
X130253384Y-86762449D01*
X130249827Y-86760072D01*
X130249823Y-86760071D01*
X130197180Y-86749600D01*
X129602825Y-86749600D01*
X129550171Y-86760073D01*
X129550168Y-86760074D01*
X129490465Y-86799967D01*
X129450574Y-86859669D01*
X129450571Y-86859676D01*
X129440100Y-86912318D01*
X129440100Y-87014544D01*
X129420415Y-87081583D01*
X129384534Y-87114995D01*
X129385611Y-87116433D01*
X129263409Y-87207913D01*
X129177249Y-87323006D01*
X129177245Y-87323013D01*
X129127003Y-87457720D01*
X129127001Y-87457727D01*
X129120600Y-87517255D01*
X107399063Y-87517255D01*
X107423644Y-87471267D01*
X107431662Y-87456267D01*
X107431662Y-87456266D01*
X107431664Y-87456263D01*
X107490589Y-87262013D01*
X107510486Y-87060000D01*
X107490589Y-86857987D01*
X107431664Y-86663737D01*
X107431662Y-86663734D01*
X107431662Y-86663732D01*
X107335978Y-86484720D01*
X107335974Y-86484713D01*
X107207199Y-86327800D01*
X107050286Y-86199025D01*
X107050279Y-86199021D01*
X106871267Y-86103337D01*
X106774138Y-86073873D01*
X106677013Y-86044411D01*
X106677011Y-86044410D01*
X106677013Y-86044410D01*
X106475000Y-86024514D01*
X106272988Y-86044410D01*
X106078732Y-86103337D01*
X105899720Y-86199021D01*
X105899713Y-86199025D01*
X105742800Y-86327800D01*
X105614025Y-86484713D01*
X105614021Y-86484720D01*
X105518337Y-86663732D01*
X105459410Y-86857988D01*
X105439514Y-87060000D01*
X103300500Y-87060000D01*
X103300500Y-81729999D01*
X105144364Y-81729999D01*
X105144364Y-81730000D01*
X106041988Y-81730000D01*
X106009075Y-81787007D01*
X105975000Y-81914174D01*
X105975000Y-82045826D01*
X106009075Y-82172993D01*
X106041988Y-82230000D01*
X105144364Y-82230000D01*
X105201567Y-82443486D01*
X105201570Y-82443492D01*
X105301399Y-82657578D01*
X105436894Y-82851082D01*
X105603917Y-83018105D01*
X105797421Y-83153600D01*
X106011507Y-83253429D01*
X106011516Y-83253433D01*
X106170234Y-83295961D01*
X106229895Y-83332326D01*
X106260424Y-83395173D01*
X106252129Y-83464548D01*
X106207644Y-83518426D01*
X106174137Y-83534396D01*
X106078735Y-83563336D01*
X105899720Y-83659021D01*
X105899713Y-83659025D01*
X105742800Y-83787800D01*
X105614025Y-83944713D01*
X105614021Y-83944720D01*
X105518337Y-84123732D01*
X105459410Y-84317988D01*
X105439514Y-84520000D01*
X105459410Y-84722011D01*
X105518337Y-84916267D01*
X105614021Y-85095279D01*
X105614025Y-85095286D01*
X105742800Y-85252199D01*
X105899713Y-85380974D01*
X105899720Y-85380978D01*
X106078732Y-85476662D01*
X106078734Y-85476662D01*
X106078737Y-85476664D01*
X106272987Y-85535589D01*
X106272986Y-85535589D01*
X106291099Y-85537372D01*
X106475000Y-85555486D01*
X106677013Y-85535589D01*
X106871263Y-85476664D01*
X107050285Y-85380975D01*
X107207199Y-85252199D01*
X107335975Y-85095285D01*
X107431664Y-84916263D01*
X107490589Y-84722013D01*
X107510486Y-84520000D01*
X107498667Y-84400000D01*
X110014559Y-84400000D01*
X110034222Y-84536765D01*
X110091134Y-84661383D01*
X110091621Y-84662449D01*
X110182104Y-84766872D01*
X110182106Y-84766873D01*
X110182108Y-84766875D01*
X110298338Y-84841572D01*
X110298343Y-84841574D01*
X110430912Y-84880499D01*
X110430914Y-84880500D01*
X110430915Y-84880500D01*
X110569086Y-84880500D01*
X110569086Y-84880499D01*
X110701659Y-84841573D01*
X110817896Y-84766872D01*
X110855655Y-84723296D01*
X110914433Y-84685523D01*
X110949367Y-84680500D01*
X121036927Y-84680500D01*
X121036929Y-84680500D01*
X121108269Y-84661384D01*
X121140021Y-84643052D01*
X121172231Y-84624456D01*
X121224456Y-84572231D01*
X121224456Y-84572229D01*
X121234660Y-84562026D01*
X121234663Y-84562021D01*
X122096684Y-83700000D01*
X131814559Y-83700000D01*
X131834222Y-83836765D01*
X131883521Y-83944713D01*
X131891621Y-83962449D01*
X131982104Y-84066872D01*
X131982106Y-84066873D01*
X131982108Y-84066875D01*
X132098338Y-84141572D01*
X132098343Y-84141574D01*
X132230912Y-84180499D01*
X132230914Y-84180500D01*
X132332451Y-84180500D01*
X132399490Y-84200185D01*
X132420132Y-84216819D01*
X132427769Y-84224456D01*
X132491731Y-84261384D01*
X132563071Y-84280500D01*
X132563072Y-84280500D01*
X132563073Y-84280500D01*
X139836927Y-84280500D01*
X139836929Y-84280500D01*
X139908269Y-84261384D01*
X139972231Y-84224456D01*
X139979865Y-84216820D01*
X140041186Y-84183335D01*
X140067549Y-84180500D01*
X140169086Y-84180500D01*
X140169086Y-84180499D01*
X140301659Y-84141573D01*
X140307918Y-84137551D01*
X140417891Y-84066875D01*
X140417890Y-84066875D01*
X140417896Y-84066872D01*
X140441181Y-84040000D01*
X159264514Y-84040000D01*
X159284410Y-84242011D01*
X159343337Y-84436267D01*
X159439021Y-84615279D01*
X159439025Y-84615286D01*
X159567800Y-84772199D01*
X159724713Y-84900974D01*
X159724720Y-84900978D01*
X159903732Y-84996662D01*
X159903734Y-84996662D01*
X159903737Y-84996664D01*
X160097987Y-85055589D01*
X160097986Y-85055589D01*
X160116099Y-85057372D01*
X160300000Y-85075486D01*
X160502013Y-85055589D01*
X160696263Y-84996664D01*
X160875285Y-84900975D01*
X161032199Y-84772199D01*
X161160975Y-84615285D01*
X161256664Y-84436263D01*
X161315589Y-84242013D01*
X161335486Y-84040000D01*
X161315589Y-83837987D01*
X161256664Y-83643737D01*
X161256662Y-83643734D01*
X161256662Y-83643732D01*
X161160978Y-83464720D01*
X161160974Y-83464713D01*
X161032199Y-83307800D01*
X160875286Y-83179025D01*
X160875279Y-83179021D01*
X160696267Y-83083337D01*
X160545333Y-83037552D01*
X160502013Y-83024411D01*
X160502011Y-83024410D01*
X160502013Y-83024410D01*
X160300000Y-83004514D01*
X160097988Y-83024410D01*
X159903732Y-83083337D01*
X159724720Y-83179021D01*
X159724713Y-83179025D01*
X159567800Y-83307800D01*
X159439025Y-83464713D01*
X159439021Y-83464720D01*
X159343337Y-83643732D01*
X159284410Y-83837988D01*
X159264514Y-84040000D01*
X140441181Y-84040000D01*
X140508379Y-83962449D01*
X140565777Y-83836765D01*
X140585441Y-83700000D01*
X140565777Y-83563235D01*
X140556987Y-83543988D01*
X140529826Y-83484514D01*
X140508379Y-83437551D01*
X140417896Y-83333128D01*
X140417893Y-83333126D01*
X140417891Y-83333124D01*
X140301661Y-83258427D01*
X140301656Y-83258425D01*
X140169087Y-83219500D01*
X140169085Y-83219500D01*
X140030915Y-83219500D01*
X140030912Y-83219500D01*
X139898343Y-83258425D01*
X139898338Y-83258427D01*
X139782108Y-83333124D01*
X139782106Y-83333126D01*
X139691621Y-83437551D01*
X139691620Y-83437552D01*
X139634222Y-83563234D01*
X139627047Y-83613146D01*
X139598023Y-83676702D01*
X139539245Y-83714477D01*
X139504309Y-83719500D01*
X137129604Y-83719500D01*
X137062565Y-83699815D01*
X137016810Y-83647011D01*
X137006866Y-83577853D01*
X137016810Y-83543988D01*
X137065777Y-83436765D01*
X137076351Y-83363220D01*
X137085441Y-83300000D01*
X137065777Y-83163235D01*
X137008379Y-83037551D01*
X136917896Y-82933128D01*
X136917894Y-82933126D01*
X136912088Y-82926426D01*
X136914584Y-82924262D01*
X136885512Y-82878994D01*
X136880500Y-82844095D01*
X136880500Y-79863074D01*
X136880500Y-79863072D01*
X136861384Y-79791731D01*
X136824456Y-79727769D01*
X136772231Y-79675544D01*
X136772230Y-79675543D01*
X136118174Y-79021487D01*
X136084689Y-78960164D01*
X136083118Y-78916156D01*
X136085441Y-78900001D01*
X136085441Y-78900000D01*
X136065777Y-78763234D01*
X136008379Y-78637552D01*
X136008379Y-78637551D01*
X135917896Y-78533128D01*
X135917893Y-78533126D01*
X135917891Y-78533124D01*
X135801661Y-78458427D01*
X135801656Y-78458425D01*
X135669087Y-78419500D01*
X135669085Y-78419500D01*
X135530915Y-78419500D01*
X135530912Y-78419500D01*
X135398343Y-78458425D01*
X135398338Y-78458427D01*
X135282108Y-78533124D01*
X135282106Y-78533126D01*
X135282104Y-78533127D01*
X135282104Y-78533128D01*
X135255581Y-78563737D01*
X135191621Y-78637551D01*
X135191620Y-78637552D01*
X135134222Y-78763234D01*
X135114559Y-78900000D01*
X135134222Y-79036765D01*
X135180250Y-79137551D01*
X135191621Y-79162449D01*
X135282104Y-79266872D01*
X135282106Y-79266873D01*
X135282108Y-79266875D01*
X135398338Y-79341572D01*
X135398343Y-79341574D01*
X135448384Y-79356267D01*
X135519526Y-79377156D01*
X135530912Y-79380499D01*
X135530914Y-79380500D01*
X135632452Y-79380500D01*
X135699491Y-79400185D01*
X135720133Y-79416819D01*
X136283181Y-79979867D01*
X136316666Y-80041190D01*
X136319500Y-80067548D01*
X136319500Y-82844095D01*
X136299815Y-82911134D01*
X136287144Y-82925761D01*
X136287912Y-82926426D01*
X136282105Y-82933127D01*
X136282104Y-82933128D01*
X136220248Y-83004514D01*
X136191621Y-83037551D01*
X136191620Y-83037552D01*
X136134222Y-83163234D01*
X136114559Y-83300000D01*
X136134222Y-83436765D01*
X136183190Y-83543988D01*
X136193134Y-83613147D01*
X136164109Y-83676702D01*
X136105331Y-83714477D01*
X136070396Y-83719500D01*
X132895691Y-83719500D01*
X132828652Y-83699815D01*
X132782897Y-83647011D01*
X132772953Y-83613146D01*
X132765777Y-83563234D01*
X132729826Y-83484514D01*
X132708379Y-83437551D01*
X132617896Y-83333128D01*
X132617893Y-83333126D01*
X132617891Y-83333124D01*
X132501661Y-83258427D01*
X132501656Y-83258425D01*
X132369087Y-83219500D01*
X132369085Y-83219500D01*
X132230915Y-83219500D01*
X132230912Y-83219500D01*
X132098343Y-83258425D01*
X132098338Y-83258427D01*
X131982108Y-83333124D01*
X131982106Y-83333126D01*
X131891621Y-83437551D01*
X131891620Y-83437552D01*
X131834222Y-83563234D01*
X131814559Y-83700000D01*
X122096684Y-83700000D01*
X127796685Y-78000000D01*
X136214559Y-78000000D01*
X136234222Y-78136765D01*
X136291620Y-78262447D01*
X136291621Y-78262449D01*
X136382104Y-78366872D01*
X136382106Y-78366873D01*
X136382108Y-78366875D01*
X136498338Y-78441572D01*
X136498343Y-78441574D01*
X136630912Y-78480499D01*
X136630914Y-78480500D01*
X136630915Y-78480500D01*
X136632452Y-78480500D01*
X136633927Y-78480933D01*
X136639692Y-78481762D01*
X136639572Y-78482590D01*
X136699491Y-78500185D01*
X136720133Y-78516819D01*
X137481825Y-79278512D01*
X137515310Y-79339835D01*
X137516882Y-79383837D01*
X137514559Y-79399996D01*
X137514559Y-79399999D01*
X137534222Y-79536765D01*
X137591620Y-79662447D01*
X137591621Y-79662449D01*
X137682104Y-79766872D01*
X137682106Y-79766873D01*
X137682108Y-79766875D01*
X137798338Y-79841572D01*
X137798343Y-79841574D01*
X137930912Y-79880499D01*
X137930914Y-79880500D01*
X137930915Y-79880500D01*
X138069086Y-79880500D01*
X138069086Y-79880499D01*
X138201659Y-79841573D01*
X138233706Y-79820978D01*
X138317891Y-79766875D01*
X138317890Y-79766875D01*
X138317896Y-79766872D01*
X138408379Y-79662449D01*
X138465777Y-79536765D01*
X138485441Y-79400000D01*
X138465777Y-79263235D01*
X138408379Y-79137551D01*
X138317896Y-79033128D01*
X138317893Y-79033126D01*
X138317891Y-79033124D01*
X138201661Y-78958427D01*
X138201656Y-78958425D01*
X138069087Y-78919500D01*
X138069085Y-78919500D01*
X137967549Y-78919500D01*
X137900510Y-78899815D01*
X137879868Y-78883181D01*
X137205604Y-78208917D01*
X137172119Y-78147594D01*
X137170547Y-78103589D01*
X137171063Y-78100000D01*
X140914559Y-78100000D01*
X140934222Y-78236765D01*
X140945952Y-78262449D01*
X140991621Y-78362449D01*
X141082104Y-78466872D01*
X141082106Y-78466873D01*
X141082108Y-78466875D01*
X141198338Y-78541572D01*
X141198343Y-78541574D01*
X141273808Y-78563732D01*
X141319526Y-78577156D01*
X141330912Y-78580499D01*
X141330914Y-78580500D01*
X141432452Y-78580500D01*
X141499491Y-78600185D01*
X141520133Y-78616819D01*
X144687263Y-81783950D01*
X144720748Y-81845273D01*
X144722320Y-81853983D01*
X144730974Y-81914174D01*
X144734223Y-81936765D01*
X144791621Y-82062449D01*
X144882104Y-82166872D01*
X144882106Y-82166873D01*
X144882108Y-82166875D01*
X144998338Y-82241572D01*
X144998343Y-82241574D01*
X145130912Y-82280499D01*
X145130914Y-82280500D01*
X145130915Y-82280500D01*
X145269086Y-82280500D01*
X145269086Y-82280499D01*
X145401659Y-82241573D01*
X145416246Y-82232199D01*
X145468169Y-82198829D01*
X145517896Y-82166872D01*
X145608379Y-82062449D01*
X145665777Y-81936765D01*
X145685441Y-81800000D01*
X145665777Y-81663235D01*
X145608379Y-81537551D01*
X145575841Y-81500000D01*
X159264514Y-81500000D01*
X159284410Y-81702011D01*
X159343337Y-81896267D01*
X159439021Y-82075279D01*
X159439025Y-82075286D01*
X159567800Y-82232199D01*
X159724713Y-82360974D01*
X159724720Y-82360978D01*
X159903732Y-82456662D01*
X159903734Y-82456662D01*
X159903737Y-82456664D01*
X160097987Y-82515589D01*
X160097986Y-82515589D01*
X160116099Y-82517372D01*
X160300000Y-82535486D01*
X160502013Y-82515589D01*
X160696263Y-82456664D01*
X160720918Y-82443486D01*
X160875279Y-82360978D01*
X160875285Y-82360975D01*
X161032199Y-82232199D01*
X161160975Y-82075285D01*
X161256664Y-81896263D01*
X161315589Y-81702013D01*
X161335486Y-81500000D01*
X161315589Y-81297987D01*
X161256664Y-81103737D01*
X161256662Y-81103734D01*
X161256662Y-81103732D01*
X161160978Y-80924720D01*
X161160974Y-80924713D01*
X161032199Y-80767800D01*
X160875286Y-80639025D01*
X160875279Y-80639021D01*
X160696267Y-80543337D01*
X160599138Y-80513873D01*
X160502013Y-80484411D01*
X160502011Y-80484410D01*
X160502013Y-80484410D01*
X160300000Y-80464514D01*
X160097988Y-80484410D01*
X159903732Y-80543337D01*
X159724720Y-80639021D01*
X159724713Y-80639025D01*
X159567800Y-80767800D01*
X159439025Y-80924713D01*
X159439021Y-80924720D01*
X159343337Y-81103732D01*
X159284410Y-81297988D01*
X159264514Y-81500000D01*
X145575841Y-81500000D01*
X145517896Y-81433128D01*
X145517893Y-81433126D01*
X145517891Y-81433124D01*
X145401661Y-81358427D01*
X145401656Y-81358425D01*
X145269087Y-81319500D01*
X145269085Y-81319500D01*
X145130915Y-81319500D01*
X145130913Y-81319500D01*
X145112813Y-81324814D01*
X145042943Y-81324810D01*
X144990203Y-81293516D01*
X142656687Y-78960000D01*
X159264514Y-78960000D01*
X159284410Y-79162011D01*
X159343337Y-79356267D01*
X159439021Y-79535279D01*
X159439025Y-79535286D01*
X159567800Y-79692199D01*
X159724713Y-79820974D01*
X159724720Y-79820978D01*
X159903732Y-79916662D01*
X159903734Y-79916662D01*
X159903737Y-79916664D01*
X160097987Y-79975589D01*
X160097986Y-79975589D01*
X160116099Y-79977372D01*
X160300000Y-79995486D01*
X160502013Y-79975589D01*
X160696263Y-79916664D01*
X160875285Y-79820975D01*
X161032199Y-79692199D01*
X161160975Y-79535285D01*
X161233288Y-79399996D01*
X161256662Y-79356267D01*
X161256662Y-79356266D01*
X161256664Y-79356263D01*
X161315589Y-79162013D01*
X161335486Y-78960000D01*
X161315589Y-78757987D01*
X161256664Y-78563737D01*
X161256662Y-78563734D01*
X161256662Y-78563732D01*
X161160978Y-78384720D01*
X161160974Y-78384713D01*
X161032199Y-78227800D01*
X160875286Y-78099025D01*
X160875279Y-78099021D01*
X160696267Y-78003337D01*
X160599138Y-77973873D01*
X160502013Y-77944411D01*
X160502011Y-77944410D01*
X160502013Y-77944410D01*
X160300000Y-77924514D01*
X160097988Y-77944410D01*
X159903732Y-78003337D01*
X159724720Y-78099021D01*
X159724713Y-78099025D01*
X159567800Y-78227800D01*
X159439025Y-78384713D01*
X159439021Y-78384720D01*
X159343337Y-78563732D01*
X159284410Y-78757988D01*
X159264514Y-78960000D01*
X142656687Y-78960000D01*
X141918174Y-78221487D01*
X141884689Y-78160164D01*
X141883118Y-78116156D01*
X141885441Y-78100001D01*
X141885441Y-78100000D01*
X141865777Y-77963234D01*
X141808379Y-77837552D01*
X141808379Y-77837551D01*
X141717896Y-77733128D01*
X141717893Y-77733126D01*
X141717891Y-77733124D01*
X141601661Y-77658427D01*
X141601656Y-77658425D01*
X141469087Y-77619500D01*
X141469085Y-77619500D01*
X141330915Y-77619500D01*
X141330912Y-77619500D01*
X141198343Y-77658425D01*
X141198338Y-77658427D01*
X141082108Y-77733124D01*
X141082106Y-77733126D01*
X141082104Y-77733127D01*
X141082104Y-77733128D01*
X141078271Y-77737552D01*
X140991621Y-77837551D01*
X140991620Y-77837552D01*
X140934222Y-77963234D01*
X140914559Y-78100000D01*
X137171063Y-78100000D01*
X137171204Y-78099021D01*
X137185441Y-78000000D01*
X137165777Y-77863235D01*
X137108379Y-77737551D01*
X137017896Y-77633128D01*
X137017893Y-77633126D01*
X137017891Y-77633124D01*
X136901661Y-77558427D01*
X136901656Y-77558425D01*
X136769087Y-77519500D01*
X136769085Y-77519500D01*
X136630915Y-77519500D01*
X136630912Y-77519500D01*
X136498343Y-77558425D01*
X136498338Y-77558427D01*
X136382108Y-77633124D01*
X136382106Y-77633126D01*
X136382104Y-77633127D01*
X136382104Y-77633128D01*
X136295457Y-77733124D01*
X136291621Y-77737551D01*
X136291620Y-77737552D01*
X136234222Y-77863234D01*
X136214559Y-78000000D01*
X127796685Y-78000000D01*
X129376686Y-76420000D01*
X159264514Y-76420000D01*
X159284410Y-76622011D01*
X159343337Y-76816267D01*
X159439021Y-76995279D01*
X159439025Y-76995286D01*
X159567800Y-77152199D01*
X159724713Y-77280974D01*
X159724720Y-77280978D01*
X159903732Y-77376662D01*
X159903734Y-77376662D01*
X159903737Y-77376664D01*
X160097987Y-77435589D01*
X160097986Y-77435589D01*
X160116099Y-77437372D01*
X160300000Y-77455486D01*
X160502013Y-77435589D01*
X160696263Y-77376664D01*
X160875285Y-77280975D01*
X161032199Y-77152199D01*
X161160975Y-76995285D01*
X161256664Y-76816263D01*
X161315589Y-76622013D01*
X161335486Y-76420000D01*
X161315589Y-76217987D01*
X161256664Y-76023737D01*
X161256662Y-76023734D01*
X161256662Y-76023732D01*
X161160978Y-75844720D01*
X161160974Y-75844713D01*
X161032199Y-75687800D01*
X160875286Y-75559025D01*
X160875279Y-75559021D01*
X160696267Y-75463337D01*
X160579301Y-75427856D01*
X160502013Y-75404411D01*
X160502011Y-75404410D01*
X160502013Y-75404410D01*
X160300000Y-75384514D01*
X160097988Y-75404410D01*
X159903732Y-75463337D01*
X159724720Y-75559021D01*
X159724713Y-75559025D01*
X159567800Y-75687800D01*
X159439025Y-75844713D01*
X159439021Y-75844720D01*
X159343337Y-76023732D01*
X159284410Y-76217988D01*
X159264514Y-76420000D01*
X129376686Y-76420000D01*
X129929867Y-75866819D01*
X129991190Y-75833334D01*
X130017548Y-75830500D01*
X130119086Y-75830500D01*
X130119086Y-75830499D01*
X130251659Y-75791573D01*
X130367896Y-75716872D01*
X130458379Y-75612449D01*
X130515777Y-75486765D01*
X130535441Y-75350000D01*
X130515777Y-75213235D01*
X130458379Y-75087551D01*
X130367896Y-74983128D01*
X130367893Y-74983126D01*
X130367891Y-74983124D01*
X130251661Y-74908427D01*
X130251656Y-74908425D01*
X130119087Y-74869500D01*
X130119085Y-74869500D01*
X129980915Y-74869500D01*
X129980912Y-74869500D01*
X129848343Y-74908425D01*
X129848338Y-74908427D01*
X129732108Y-74983124D01*
X129732106Y-74983126D01*
X129732104Y-74983127D01*
X129732104Y-74983128D01*
X129693999Y-75027104D01*
X129641621Y-75087551D01*
X129641620Y-75087552D01*
X129584222Y-75213234D01*
X129564559Y-75350000D01*
X129564559Y-75350001D01*
X129566882Y-75366160D01*
X129556938Y-75435318D01*
X129531825Y-75471486D01*
X120920133Y-84083181D01*
X120858810Y-84116666D01*
X120832452Y-84119500D01*
X110949367Y-84119500D01*
X110882328Y-84099815D01*
X110855655Y-84076704D01*
X110847135Y-84066872D01*
X110817896Y-84033128D01*
X110817893Y-84033126D01*
X110817891Y-84033124D01*
X110701661Y-83958427D01*
X110701656Y-83958425D01*
X110569087Y-83919500D01*
X110569085Y-83919500D01*
X110430915Y-83919500D01*
X110430912Y-83919500D01*
X110298343Y-83958425D01*
X110298338Y-83958427D01*
X110182108Y-84033124D01*
X110182106Y-84033126D01*
X110182104Y-84033127D01*
X110182104Y-84033128D01*
X110109718Y-84116666D01*
X110091621Y-84137551D01*
X110091620Y-84137552D01*
X110034222Y-84263234D01*
X110014559Y-84400000D01*
X107498667Y-84400000D01*
X107490589Y-84317987D01*
X107431664Y-84123737D01*
X107431662Y-84123734D01*
X107431662Y-84123732D01*
X107335978Y-83944720D01*
X107335974Y-83944713D01*
X107207199Y-83787800D01*
X107050286Y-83659025D01*
X107050279Y-83659021D01*
X106871269Y-83563338D01*
X106871263Y-83563336D01*
X106775860Y-83534396D01*
X106717424Y-83496099D01*
X106688967Y-83432287D01*
X106699528Y-83363220D01*
X106745752Y-83310826D01*
X106779765Y-83295961D01*
X106938483Y-83253433D01*
X106938492Y-83253429D01*
X107152578Y-83153600D01*
X107346082Y-83018105D01*
X107513105Y-82851082D01*
X107648600Y-82657578D01*
X107748429Y-82443492D01*
X107748432Y-82443486D01*
X107805636Y-82230000D01*
X106908012Y-82230000D01*
X106940925Y-82172993D01*
X106975000Y-82045826D01*
X106975000Y-81914174D01*
X106940925Y-81787007D01*
X106908012Y-81730000D01*
X107805636Y-81730000D01*
X107805635Y-81729999D01*
X107748432Y-81516513D01*
X107748429Y-81516507D01*
X107648600Y-81302422D01*
X107648599Y-81302420D01*
X107513113Y-81108926D01*
X107513108Y-81108920D01*
X107346082Y-80941894D01*
X107152578Y-80806399D01*
X106938492Y-80706570D01*
X106938486Y-80706567D01*
X106725000Y-80649364D01*
X106725000Y-81546988D01*
X106667993Y-81514075D01*
X106540826Y-81480000D01*
X106409174Y-81480000D01*
X106282007Y-81514075D01*
X106225000Y-81546988D01*
X106225000Y-80649364D01*
X106224999Y-80649364D01*
X106011513Y-80706567D01*
X106011507Y-80706570D01*
X105797422Y-80806399D01*
X105797420Y-80806400D01*
X105603926Y-80941886D01*
X105603920Y-80941891D01*
X105436891Y-81108920D01*
X105436886Y-81108926D01*
X105301400Y-81302420D01*
X105301399Y-81302422D01*
X105201570Y-81516507D01*
X105201567Y-81516513D01*
X105144364Y-81729999D01*
X103300500Y-81729999D01*
X103300500Y-75999999D01*
X108284564Y-75999999D01*
X108284564Y-76000000D01*
X108303069Y-76199706D01*
X108357957Y-76392614D01*
X108357957Y-76392616D01*
X108447351Y-76572143D01*
X108568220Y-76732199D01*
X108716434Y-76867313D01*
X108716436Y-76867315D01*
X108886952Y-76972894D01*
X108886953Y-76972894D01*
X108886956Y-76972896D01*
X109073973Y-77045347D01*
X109271119Y-77082200D01*
X109271121Y-77082200D01*
X109471679Y-77082200D01*
X109471681Y-77082200D01*
X109668827Y-77045347D01*
X109855844Y-76972896D01*
X110026365Y-76867314D01*
X110174581Y-76732197D01*
X110295447Y-76572145D01*
X110371206Y-76420000D01*
X110384842Y-76392616D01*
X110384842Y-76392614D01*
X110384841Y-76392614D01*
X110384844Y-76392610D01*
X110439731Y-76199706D01*
X110458236Y-76000000D01*
X110458236Y-75999999D01*
X120784564Y-75999999D01*
X120784564Y-76000000D01*
X120803069Y-76199706D01*
X120857957Y-76392614D01*
X120857957Y-76392616D01*
X120947351Y-76572143D01*
X121068220Y-76732199D01*
X121216434Y-76867313D01*
X121216436Y-76867315D01*
X121386952Y-76972894D01*
X121386953Y-76972894D01*
X121386956Y-76972896D01*
X121573973Y-77045347D01*
X121771119Y-77082200D01*
X121771121Y-77082200D01*
X121971679Y-77082200D01*
X121971681Y-77082200D01*
X122168827Y-77045347D01*
X122355844Y-76972896D01*
X122526365Y-76867314D01*
X122674581Y-76732197D01*
X122795447Y-76572145D01*
X122871206Y-76420000D01*
X122884842Y-76392616D01*
X122884842Y-76392614D01*
X122884841Y-76392614D01*
X122884844Y-76392610D01*
X122939731Y-76199706D01*
X122958236Y-76000000D01*
X122939731Y-75800294D01*
X122884844Y-75607390D01*
X122884842Y-75607385D01*
X122884842Y-75607383D01*
X122795448Y-75427856D01*
X122674579Y-75267800D01*
X122526365Y-75132686D01*
X122526363Y-75132684D01*
X122355847Y-75027105D01*
X122355841Y-75027103D01*
X122168827Y-74954653D01*
X121971681Y-74917800D01*
X121771119Y-74917800D01*
X121573973Y-74954653D01*
X121500481Y-74983124D01*
X121386958Y-75027103D01*
X121386952Y-75027105D01*
X121216436Y-75132684D01*
X121216434Y-75132686D01*
X121068220Y-75267800D01*
X120947351Y-75427856D01*
X120857957Y-75607383D01*
X120857957Y-75607385D01*
X120803069Y-75800293D01*
X120784564Y-75999999D01*
X110458236Y-75999999D01*
X110439731Y-75800294D01*
X110384844Y-75607390D01*
X110384842Y-75607385D01*
X110384842Y-75607383D01*
X110295448Y-75427856D01*
X110174579Y-75267800D01*
X110026365Y-75132686D01*
X110026363Y-75132684D01*
X109855847Y-75027105D01*
X109855841Y-75027103D01*
X109668827Y-74954653D01*
X109471681Y-74917800D01*
X109271119Y-74917800D01*
X109073973Y-74954653D01*
X109000481Y-74983124D01*
X108886958Y-75027103D01*
X108886952Y-75027105D01*
X108716436Y-75132684D01*
X108716434Y-75132686D01*
X108568220Y-75267800D01*
X108447351Y-75427856D01*
X108357957Y-75607383D01*
X108357957Y-75607385D01*
X108303069Y-75800293D01*
X108284564Y-75999999D01*
X103300500Y-75999999D01*
X103300500Y-70999999D01*
X108284564Y-70999999D01*
X108284564Y-71000000D01*
X108303069Y-71199706D01*
X108357957Y-71392614D01*
X108357957Y-71392616D01*
X108447351Y-71572143D01*
X108568220Y-71732199D01*
X108716434Y-71867313D01*
X108716436Y-71867315D01*
X108886952Y-71972894D01*
X108886953Y-71972894D01*
X108886956Y-71972896D01*
X109073973Y-72045347D01*
X109271119Y-72082200D01*
X109271121Y-72082200D01*
X109471679Y-72082200D01*
X109471681Y-72082200D01*
X109668827Y-72045347D01*
X109855844Y-71972896D01*
X110026365Y-71867314D01*
X110174581Y-71732197D01*
X110295447Y-71572145D01*
X110329827Y-71503101D01*
X110384842Y-71392616D01*
X110384842Y-71392614D01*
X110384841Y-71392614D01*
X110384844Y-71392610D01*
X110439731Y-71199706D01*
X110458236Y-71000000D01*
X110439731Y-70800294D01*
X110384844Y-70607390D01*
X110384842Y-70607385D01*
X110384842Y-70607383D01*
X110295448Y-70427856D01*
X110174579Y-70267800D01*
X110026365Y-70132686D01*
X110026363Y-70132684D01*
X109893559Y-70050455D01*
X120469700Y-70050455D01*
X120469700Y-70750000D01*
X121273888Y-70750000D01*
X121248591Y-70811073D01*
X121223700Y-70936207D01*
X121223700Y-71063793D01*
X121248591Y-71188927D01*
X121273888Y-71250000D01*
X120469700Y-71250000D01*
X120469700Y-71949544D01*
X120476101Y-72009072D01*
X120476103Y-72009079D01*
X120526345Y-72143786D01*
X120526349Y-72143793D01*
X120612509Y-72258887D01*
X120612512Y-72258890D01*
X120727606Y-72345050D01*
X120727613Y-72345054D01*
X120862320Y-72395296D01*
X120862327Y-72395298D01*
X120921855Y-72401699D01*
X120921872Y-72401700D01*
X121621400Y-72401700D01*
X121621400Y-71597511D01*
X121682473Y-71622809D01*
X121807607Y-71647700D01*
X121935193Y-71647700D01*
X122060327Y-71622809D01*
X122121400Y-71597511D01*
X122121400Y-72401700D01*
X122820928Y-72401700D01*
X122820944Y-72401699D01*
X122880472Y-72395298D01*
X122880479Y-72395296D01*
X123015186Y-72345054D01*
X123015193Y-72345050D01*
X123130287Y-72258890D01*
X123130290Y-72258887D01*
X123216450Y-72143793D01*
X123216454Y-72143786D01*
X123266696Y-72009079D01*
X123266698Y-72009072D01*
X123273099Y-71949544D01*
X123273100Y-71949527D01*
X123273100Y-71250000D01*
X122468912Y-71250000D01*
X122494209Y-71188927D01*
X122519100Y-71063793D01*
X122519100Y-70936207D01*
X122494209Y-70811073D01*
X122468912Y-70750000D01*
X123273100Y-70750000D01*
X123273100Y-70500000D01*
X130514559Y-70500000D01*
X130534222Y-70636765D01*
X130585936Y-70750000D01*
X130591621Y-70762449D01*
X130682104Y-70866872D01*
X130682106Y-70866873D01*
X130682108Y-70866875D01*
X130798338Y-70941572D01*
X130798343Y-70941574D01*
X130930912Y-70980499D01*
X130930914Y-70980500D01*
X130930915Y-70980500D01*
X131069086Y-70980500D01*
X131069086Y-70980499D01*
X131201659Y-70941573D01*
X131317896Y-70866872D01*
X131408379Y-70762449D01*
X131465777Y-70636765D01*
X131485441Y-70500000D01*
X131465777Y-70363235D01*
X131460783Y-70352300D01*
X131437078Y-70300393D01*
X131408379Y-70237551D01*
X131317896Y-70133128D01*
X131317894Y-70133126D01*
X131312088Y-70126426D01*
X131314584Y-70124262D01*
X131285512Y-70078994D01*
X131280500Y-70044095D01*
X131280500Y-64667548D01*
X131300185Y-64600509D01*
X131316819Y-64579867D01*
X131579868Y-64316819D01*
X131641191Y-64283334D01*
X131667549Y-64280500D01*
X142036927Y-64280500D01*
X142036929Y-64280500D01*
X142108269Y-64261384D01*
X142172231Y-64224456D01*
X142224456Y-64172231D01*
X142224456Y-64172229D01*
X142234660Y-64162026D01*
X142234663Y-64162021D01*
X143379867Y-63016819D01*
X143441190Y-62983334D01*
X143467548Y-62980500D01*
X143569086Y-62980500D01*
X143569086Y-62980499D01*
X143701659Y-62941573D01*
X143709141Y-62936765D01*
X143817891Y-62866875D01*
X143817890Y-62866875D01*
X143817896Y-62866872D01*
X143908379Y-62762449D01*
X143965777Y-62636765D01*
X143985441Y-62500000D01*
X143965777Y-62363235D01*
X143957607Y-62345346D01*
X143936899Y-62300000D01*
X143908379Y-62237551D01*
X143817896Y-62133128D01*
X143817893Y-62133126D01*
X143817891Y-62133124D01*
X143701661Y-62058427D01*
X143701656Y-62058425D01*
X143569087Y-62019500D01*
X143569085Y-62019500D01*
X143430915Y-62019500D01*
X143430912Y-62019500D01*
X143298343Y-62058425D01*
X143298338Y-62058427D01*
X143182108Y-62133124D01*
X143182106Y-62133126D01*
X143091621Y-62237551D01*
X143091620Y-62237552D01*
X143034222Y-62363234D01*
X143014559Y-62500000D01*
X143014559Y-62500001D01*
X143016882Y-62516160D01*
X143006938Y-62585318D01*
X142981825Y-62621486D01*
X141920133Y-63683181D01*
X141858810Y-63716666D01*
X141832452Y-63719500D01*
X131536929Y-63719500D01*
X131463072Y-63719500D01*
X131409566Y-63733837D01*
X131391730Y-63738616D01*
X131327770Y-63775543D01*
X131327767Y-63775545D01*
X130775545Y-64327767D01*
X130775543Y-64327770D01*
X130738616Y-64391730D01*
X130738616Y-64391731D01*
X130719500Y-64463072D01*
X130719500Y-64463074D01*
X130719500Y-68994168D01*
X130699815Y-69061207D01*
X130653276Y-69101533D01*
X130689213Y-69124628D01*
X130718238Y-69188184D01*
X130719500Y-69205831D01*
X130719500Y-70044095D01*
X130699815Y-70111134D01*
X130687144Y-70125761D01*
X130687912Y-70126426D01*
X130682105Y-70133127D01*
X130682104Y-70133128D01*
X130591621Y-70237551D01*
X130591620Y-70237552D01*
X130534222Y-70363234D01*
X130514559Y-70500000D01*
X123273100Y-70500000D01*
X123273100Y-70050472D01*
X123273099Y-70050455D01*
X123266698Y-69990927D01*
X123266696Y-69990920D01*
X123216454Y-69856213D01*
X123216450Y-69856206D01*
X123130290Y-69741112D01*
X123130287Y-69741109D01*
X123015193Y-69654949D01*
X123015186Y-69654945D01*
X122880479Y-69604703D01*
X122880472Y-69604701D01*
X122820944Y-69598300D01*
X122121400Y-69598300D01*
X122121400Y-70402488D01*
X122060327Y-70377191D01*
X121935193Y-70352300D01*
X121807607Y-70352300D01*
X121682473Y-70377191D01*
X121621400Y-70402488D01*
X121621400Y-69598300D01*
X120921855Y-69598300D01*
X120862327Y-69604701D01*
X120862320Y-69604703D01*
X120727613Y-69654945D01*
X120727606Y-69654949D01*
X120612512Y-69741109D01*
X120612509Y-69741112D01*
X120526349Y-69856206D01*
X120526345Y-69856213D01*
X120476103Y-69990920D01*
X120476101Y-69990927D01*
X120469700Y-70050455D01*
X109893559Y-70050455D01*
X109855847Y-70027105D01*
X109855841Y-70027103D01*
X109668827Y-69954653D01*
X109471681Y-69917800D01*
X109271119Y-69917800D01*
X109073973Y-69954653D01*
X108955705Y-70000470D01*
X108886958Y-70027103D01*
X108886952Y-70027105D01*
X108716436Y-70132684D01*
X108716434Y-70132686D01*
X108568220Y-70267800D01*
X108447351Y-70427856D01*
X108357957Y-70607383D01*
X108357957Y-70607385D01*
X108303069Y-70800293D01*
X108284564Y-70999999D01*
X103300500Y-70999999D01*
X103300500Y-65800000D01*
X125514559Y-65800000D01*
X125534222Y-65936765D01*
X125591620Y-66062447D01*
X125591621Y-66062449D01*
X125682104Y-66166872D01*
X125682106Y-66166873D01*
X125682108Y-66166875D01*
X125798338Y-66241572D01*
X125798343Y-66241574D01*
X125901220Y-66271780D01*
X125919526Y-66277156D01*
X125930912Y-66280499D01*
X125930914Y-66280500D01*
X126032452Y-66280500D01*
X126099491Y-66300185D01*
X126120133Y-66316819D01*
X127894395Y-68091082D01*
X127927880Y-68152405D01*
X127929452Y-68196409D01*
X127914559Y-68299999D01*
X127934222Y-68436765D01*
X127991620Y-68562447D01*
X127991621Y-68562449D01*
X128082104Y-68666872D01*
X128082106Y-68666873D01*
X128082108Y-68666875D01*
X128198338Y-68741572D01*
X128198343Y-68741574D01*
X128330912Y-68780499D01*
X128330914Y-68780500D01*
X128330915Y-68780500D01*
X128469086Y-68780500D01*
X128469086Y-68780499D01*
X128601659Y-68741573D01*
X128717896Y-68666872D01*
X128808379Y-68562449D01*
X128814880Y-68548212D01*
X128860634Y-68495408D01*
X128927673Y-68475723D01*
X128994713Y-68495407D01*
X129015354Y-68512041D01*
X129283812Y-68780499D01*
X129481825Y-68978512D01*
X129515310Y-69039835D01*
X129516882Y-69083837D01*
X129514559Y-69099996D01*
X129514559Y-69099999D01*
X129514559Y-69100000D01*
X129517030Y-69117191D01*
X129534222Y-69236765D01*
X129591620Y-69362447D01*
X129591621Y-69362449D01*
X129682104Y-69466872D01*
X129682106Y-69466873D01*
X129682108Y-69466875D01*
X129798338Y-69541572D01*
X129798343Y-69541574D01*
X129930912Y-69580499D01*
X129930914Y-69580500D01*
X129930915Y-69580500D01*
X130069086Y-69580500D01*
X130069086Y-69580499D01*
X130201659Y-69541573D01*
X130317896Y-69466872D01*
X130408379Y-69362449D01*
X130465777Y-69236765D01*
X130472762Y-69188184D01*
X130501787Y-69124628D01*
X130540410Y-69099806D01*
X130514297Y-69087881D01*
X130476523Y-69029103D01*
X130472762Y-69011815D01*
X130465777Y-68963234D01*
X130408379Y-68837552D01*
X130408379Y-68837551D01*
X130317896Y-68733128D01*
X130317893Y-68733126D01*
X130317891Y-68733124D01*
X130201661Y-68658427D01*
X130201656Y-68658425D01*
X130069087Y-68619500D01*
X130069085Y-68619500D01*
X129967548Y-68619500D01*
X129900509Y-68599815D01*
X129879867Y-68583181D01*
X129316819Y-68020132D01*
X129283334Y-67958809D01*
X129280500Y-67932451D01*
X129280500Y-65955905D01*
X129300185Y-65888866D01*
X129312858Y-65874242D01*
X129312088Y-65873575D01*
X129326755Y-65856647D01*
X129408379Y-65762449D01*
X129465777Y-65636765D01*
X129485441Y-65500000D01*
X129465777Y-65363235D01*
X129463581Y-65358427D01*
X129408379Y-65237552D01*
X129408379Y-65237551D01*
X129317896Y-65133128D01*
X129317893Y-65133126D01*
X129317891Y-65133124D01*
X129201661Y-65058427D01*
X129201656Y-65058425D01*
X129069087Y-65019500D01*
X129069085Y-65019500D01*
X128930915Y-65019500D01*
X128930912Y-65019500D01*
X128798343Y-65058425D01*
X128798338Y-65058427D01*
X128682108Y-65133124D01*
X128682106Y-65133126D01*
X128591621Y-65237551D01*
X128591620Y-65237552D01*
X128534222Y-65363234D01*
X128514559Y-65500000D01*
X128534222Y-65636765D01*
X128591620Y-65762447D01*
X128591621Y-65762449D01*
X128687912Y-65873575D01*
X128685408Y-65875744D01*
X128714472Y-65920953D01*
X128719500Y-65955905D01*
X128719500Y-67727383D01*
X128699815Y-67794422D01*
X128647011Y-67840177D01*
X128577853Y-67850121D01*
X128560566Y-67846360D01*
X128469087Y-67819500D01*
X128469085Y-67819500D01*
X128467549Y-67819500D01*
X128466074Y-67819067D01*
X128460308Y-67818238D01*
X128460427Y-67817408D01*
X128400510Y-67799815D01*
X128379868Y-67783181D01*
X126518174Y-65921487D01*
X126484689Y-65860164D01*
X126483118Y-65816156D01*
X126485441Y-65800001D01*
X126485441Y-65800000D01*
X126465777Y-65663234D01*
X126408379Y-65537552D01*
X126408379Y-65537551D01*
X126317896Y-65433128D01*
X126317893Y-65433126D01*
X126317891Y-65433124D01*
X126201661Y-65358427D01*
X126201656Y-65358425D01*
X126069087Y-65319500D01*
X126069085Y-65319500D01*
X125930915Y-65319500D01*
X125930912Y-65319500D01*
X125798343Y-65358425D01*
X125798338Y-65358427D01*
X125682108Y-65433124D01*
X125682106Y-65433126D01*
X125591621Y-65537551D01*
X125591620Y-65537552D01*
X125534222Y-65663234D01*
X125514559Y-65800000D01*
X103300500Y-65800000D01*
X103300500Y-61299999D01*
X109913164Y-61299999D01*
X109913164Y-61300000D01*
X109931669Y-61499706D01*
X109986557Y-61692614D01*
X109986557Y-61692616D01*
X110075951Y-61872143D01*
X110196820Y-62032199D01*
X110307535Y-62133128D01*
X110340559Y-62163234D01*
X110345034Y-62167313D01*
X110345036Y-62167315D01*
X110515552Y-62272894D01*
X110515553Y-62272894D01*
X110515556Y-62272896D01*
X110702573Y-62345347D01*
X110899719Y-62382200D01*
X110899721Y-62382200D01*
X111100279Y-62382200D01*
X111100281Y-62382200D01*
X111297427Y-62345347D01*
X111484444Y-62272896D01*
X111654965Y-62167314D01*
X111803181Y-62032197D01*
X111924047Y-61872145D01*
X111958427Y-61803101D01*
X112013442Y-61692616D01*
X112013442Y-61692614D01*
X112013441Y-61692614D01*
X112013444Y-61692610D01*
X112068331Y-61499706D01*
X112086836Y-61300000D01*
X112086835Y-61299994D01*
X114593496Y-61299994D01*
X114593496Y-61300005D01*
X114612678Y-61531499D01*
X114669704Y-61756691D01*
X114763016Y-61969421D01*
X114847584Y-62098862D01*
X115400718Y-61545727D01*
X115426016Y-61606801D01*
X115496899Y-61712885D01*
X115587115Y-61803101D01*
X115693199Y-61873984D01*
X115754271Y-61899281D01*
X115199989Y-62453562D01*
X115199989Y-62453563D01*
X115230712Y-62477476D01*
X115230717Y-62477479D01*
X115435007Y-62588035D01*
X115435017Y-62588040D01*
X115654721Y-62663464D01*
X115883853Y-62701700D01*
X116116147Y-62701700D01*
X116345278Y-62663464D01*
X116564982Y-62588040D01*
X116564992Y-62588035D01*
X116769281Y-62477480D01*
X116769287Y-62477475D01*
X116800009Y-62453563D01*
X116800010Y-62453562D01*
X116245728Y-61899281D01*
X116306801Y-61873984D01*
X116412885Y-61803101D01*
X116503101Y-61712885D01*
X116573984Y-61606801D01*
X116599280Y-61545728D01*
X117152414Y-62098862D01*
X117236982Y-61969423D01*
X117330295Y-61756691D01*
X117387321Y-61531499D01*
X117406504Y-61300005D01*
X117406504Y-61299994D01*
X117387321Y-61068500D01*
X117330295Y-60843308D01*
X117236984Y-60630581D01*
X117152414Y-60501136D01*
X116599280Y-61054270D01*
X116573984Y-60993199D01*
X116503101Y-60887115D01*
X116412885Y-60796899D01*
X116306801Y-60726016D01*
X116245726Y-60700718D01*
X116800009Y-60146436D01*
X116800009Y-60146434D01*
X116769293Y-60122527D01*
X116769282Y-60122520D01*
X116564992Y-60011964D01*
X116564982Y-60011959D01*
X116345278Y-59936535D01*
X116116147Y-59898300D01*
X115883853Y-59898300D01*
X115654721Y-59936535D01*
X115435017Y-60011959D01*
X115435012Y-60011961D01*
X115230707Y-60122527D01*
X115199989Y-60146434D01*
X115199988Y-60146436D01*
X115754271Y-60700718D01*
X115693199Y-60726016D01*
X115587115Y-60796899D01*
X115496899Y-60887115D01*
X115426016Y-60993199D01*
X115400718Y-61054272D01*
X114847583Y-60501137D01*
X114763016Y-60630578D01*
X114669704Y-60843308D01*
X114612678Y-61068500D01*
X114593496Y-61299994D01*
X112086835Y-61299994D01*
X112080925Y-61236207D01*
X112068331Y-61100294D01*
X112013444Y-60907390D01*
X112013442Y-60907385D01*
X112013442Y-60907383D01*
X111924048Y-60727856D01*
X111803179Y-60567800D01*
X111654965Y-60432686D01*
X111654963Y-60432684D01*
X111484447Y-60327105D01*
X111484441Y-60327103D01*
X111297427Y-60254653D01*
X111100281Y-60217800D01*
X110899719Y-60217800D01*
X110702573Y-60254653D01*
X110584305Y-60300470D01*
X110515558Y-60327103D01*
X110515552Y-60327105D01*
X110345036Y-60432684D01*
X110345034Y-60432686D01*
X110196820Y-60567800D01*
X110075951Y-60727856D01*
X109986557Y-60907383D01*
X109986557Y-60907385D01*
X109931669Y-61100293D01*
X109913164Y-61299999D01*
X103300500Y-61299999D01*
X103300500Y-48100000D01*
X118414559Y-48100000D01*
X118434222Y-48236765D01*
X118491620Y-48362447D01*
X118491621Y-48362449D01*
X118582104Y-48466872D01*
X118582106Y-48466873D01*
X118582108Y-48466875D01*
X118698338Y-48541572D01*
X118698343Y-48541574D01*
X118801220Y-48571780D01*
X118819526Y-48577156D01*
X118830912Y-48580499D01*
X118830914Y-48580500D01*
X118932452Y-48580500D01*
X118999491Y-48600185D01*
X119020132Y-48616818D01*
X133375543Y-62972230D01*
X133375544Y-62972231D01*
X133427769Y-63024456D01*
X133491731Y-63061384D01*
X133563071Y-63080500D01*
X133563072Y-63080500D01*
X135850633Y-63080500D01*
X135917672Y-63100185D01*
X135944345Y-63123296D01*
X135982104Y-63166872D01*
X135982106Y-63166873D01*
X135982108Y-63166875D01*
X136098338Y-63241572D01*
X136098343Y-63241574D01*
X136230912Y-63280499D01*
X136230914Y-63280500D01*
X136230915Y-63280500D01*
X136369086Y-63280500D01*
X136369086Y-63280499D01*
X136501659Y-63241573D01*
X136617896Y-63166872D01*
X136708379Y-63062449D01*
X136765777Y-62936765D01*
X136772953Y-62886853D01*
X136801977Y-62823298D01*
X136860755Y-62785523D01*
X136895691Y-62780500D01*
X136969086Y-62780500D01*
X136969086Y-62780499D01*
X137101659Y-62741573D01*
X137217896Y-62666872D01*
X137308379Y-62562449D01*
X137365777Y-62436765D01*
X137385441Y-62300000D01*
X137371063Y-62200000D01*
X137914559Y-62200000D01*
X137934222Y-62336765D01*
X137980836Y-62438834D01*
X137991621Y-62462449D01*
X138082104Y-62566872D01*
X138082106Y-62566873D01*
X138082108Y-62566875D01*
X138198338Y-62641572D01*
X138198343Y-62641574D01*
X138330912Y-62680499D01*
X138330914Y-62680500D01*
X138330915Y-62680500D01*
X138469086Y-62680500D01*
X138469086Y-62680499D01*
X138601659Y-62641573D01*
X138609141Y-62636765D01*
X138689193Y-62585318D01*
X138717896Y-62566872D01*
X138808379Y-62462449D01*
X138865777Y-62336765D01*
X138885441Y-62200000D01*
X138865777Y-62063235D01*
X138863581Y-62058427D01*
X138822934Y-61969423D01*
X138808379Y-61937551D01*
X138717896Y-61833128D01*
X138717893Y-61833126D01*
X138637460Y-61781434D01*
X138591705Y-61728630D01*
X138580500Y-61677119D01*
X138580500Y-61467548D01*
X138600185Y-61400509D01*
X138616819Y-61379867D01*
X140098386Y-59898300D01*
X141969456Y-58027231D01*
X142006384Y-57963269D01*
X142025500Y-57891928D01*
X142025500Y-56099999D01*
X144884564Y-56099999D01*
X144884564Y-56100000D01*
X144903069Y-56299706D01*
X144957957Y-56492614D01*
X144957957Y-56492616D01*
X145047351Y-56672143D01*
X145168220Y-56832199D01*
X145316434Y-56967313D01*
X145316436Y-56967315D01*
X145486952Y-57072894D01*
X145486953Y-57072894D01*
X145486956Y-57072896D01*
X145673973Y-57145347D01*
X145871119Y-57182200D01*
X145871121Y-57182200D01*
X146071679Y-57182200D01*
X146071681Y-57182200D01*
X146268827Y-57145347D01*
X146455844Y-57072896D01*
X146626365Y-56967314D01*
X146774581Y-56832197D01*
X146895447Y-56672145D01*
X146895448Y-56672143D01*
X146984842Y-56492616D01*
X146984842Y-56492614D01*
X146984841Y-56492614D01*
X146984844Y-56492610D01*
X147039731Y-56299706D01*
X147058236Y-56100000D01*
X147039731Y-55900294D01*
X146984844Y-55707390D01*
X146984842Y-55707385D01*
X146984842Y-55707383D01*
X146895448Y-55527856D01*
X146774579Y-55367800D01*
X146626365Y-55232686D01*
X146626363Y-55232684D01*
X146455847Y-55127105D01*
X146455841Y-55127103D01*
X146268827Y-55054653D01*
X146071681Y-55017800D01*
X145871119Y-55017800D01*
X145673973Y-55054653D01*
X145555705Y-55100470D01*
X145486958Y-55127103D01*
X145486952Y-55127105D01*
X145316436Y-55232684D01*
X145316434Y-55232686D01*
X145168220Y-55367800D01*
X145047351Y-55527856D01*
X144957957Y-55707383D01*
X144957957Y-55707385D01*
X144903069Y-55900293D01*
X144884564Y-56099999D01*
X142025500Y-56099999D01*
X142025500Y-54604346D01*
X142045185Y-54537307D01*
X142055787Y-54523143D01*
X142108379Y-54462449D01*
X142165777Y-54336765D01*
X142185441Y-54200000D01*
X142168248Y-54080426D01*
X142165777Y-54063234D01*
X142108379Y-53937552D01*
X142108379Y-53937551D01*
X142017896Y-53833128D01*
X142017893Y-53833126D01*
X142017891Y-53833124D01*
X141901661Y-53758427D01*
X141901656Y-53758425D01*
X141769087Y-53719500D01*
X141769085Y-53719500D01*
X141630915Y-53719500D01*
X141630912Y-53719500D01*
X141498343Y-53758425D01*
X141498338Y-53758427D01*
X141382108Y-53833124D01*
X141382106Y-53833126D01*
X141291621Y-53937550D01*
X141259914Y-54006979D01*
X141234224Y-54063234D01*
X141234222Y-54063238D01*
X141221345Y-54152797D01*
X141219967Y-54159520D01*
X141218512Y-54170576D01*
X141218238Y-54174410D01*
X141214559Y-54199999D01*
X141218238Y-54225587D01*
X141218512Y-54229427D01*
X141219970Y-54240496D01*
X141221345Y-54247202D01*
X141234222Y-54336765D01*
X141291620Y-54462447D01*
X141291621Y-54462449D01*
X141382104Y-54566872D01*
X141407538Y-54583217D01*
X141453293Y-54636019D01*
X141464500Y-54687533D01*
X141464500Y-57687451D01*
X141444815Y-57754490D01*
X141428181Y-57775132D01*
X138075545Y-61127767D01*
X138075543Y-61127770D01*
X138038616Y-61191730D01*
X138038616Y-61191731D01*
X138019500Y-61263072D01*
X138019500Y-61263074D01*
X138019500Y-61859128D01*
X137999815Y-61926167D01*
X137993613Y-61934451D01*
X137991620Y-61937553D01*
X137934222Y-62063234D01*
X137914559Y-62200000D01*
X137371063Y-62200000D01*
X137366364Y-62167315D01*
X137365777Y-62163234D01*
X137320108Y-62063234D01*
X137308379Y-62037551D01*
X137217896Y-61933128D01*
X137217893Y-61933126D01*
X137217891Y-61933124D01*
X137101661Y-61858427D01*
X137101656Y-61858425D01*
X136969087Y-61819500D01*
X136969085Y-61819500D01*
X136830915Y-61819500D01*
X136830912Y-61819500D01*
X136698343Y-61858425D01*
X136698342Y-61858425D01*
X136628702Y-61903181D01*
X136602818Y-61919815D01*
X136535780Y-61939500D01*
X134787549Y-61939500D01*
X134720510Y-61919815D01*
X134699868Y-61903181D01*
X128896686Y-56099999D01*
X132384564Y-56099999D01*
X132384564Y-56100000D01*
X132403069Y-56299706D01*
X132457957Y-56492614D01*
X132457957Y-56492616D01*
X132547351Y-56672143D01*
X132668220Y-56832199D01*
X132816434Y-56967313D01*
X132816436Y-56967315D01*
X132986952Y-57072894D01*
X132986953Y-57072894D01*
X132986956Y-57072896D01*
X133173973Y-57145347D01*
X133371119Y-57182200D01*
X133371121Y-57182200D01*
X133571679Y-57182200D01*
X133571681Y-57182200D01*
X133768827Y-57145347D01*
X133955844Y-57072896D01*
X134126365Y-56967314D01*
X134274581Y-56832197D01*
X134395447Y-56672145D01*
X134395448Y-56672143D01*
X134484842Y-56492616D01*
X134484842Y-56492614D01*
X134484841Y-56492614D01*
X134484844Y-56492610D01*
X134539731Y-56299706D01*
X134558236Y-56100000D01*
X134539731Y-55900294D01*
X134484844Y-55707390D01*
X134484842Y-55707385D01*
X134484842Y-55707383D01*
X134395448Y-55527856D01*
X134274579Y-55367800D01*
X134126365Y-55232686D01*
X134126363Y-55232684D01*
X133955847Y-55127105D01*
X133955841Y-55127103D01*
X133768827Y-55054653D01*
X133571681Y-55017800D01*
X133371119Y-55017800D01*
X133173973Y-55054653D01*
X133055705Y-55100470D01*
X132986958Y-55127103D01*
X132986952Y-55127105D01*
X132816436Y-55232684D01*
X132816434Y-55232686D01*
X132668220Y-55367800D01*
X132547351Y-55527856D01*
X132457957Y-55707383D01*
X132457957Y-55707385D01*
X132403069Y-55900293D01*
X132384564Y-56099999D01*
X128896686Y-56099999D01*
X123896686Y-51099999D01*
X132384564Y-51099999D01*
X132384564Y-51100000D01*
X132403069Y-51299706D01*
X132457957Y-51492614D01*
X132457957Y-51492616D01*
X132547351Y-51672143D01*
X132668220Y-51832199D01*
X132816434Y-51967313D01*
X132816436Y-51967315D01*
X132986952Y-52072894D01*
X132986953Y-52072894D01*
X132986956Y-52072896D01*
X133173973Y-52145347D01*
X133371119Y-52182200D01*
X133371121Y-52182200D01*
X133571679Y-52182200D01*
X133571681Y-52182200D01*
X133768827Y-52145347D01*
X133955844Y-52072896D01*
X134126365Y-51967314D01*
X134274581Y-51832197D01*
X134395447Y-51672145D01*
X134395448Y-51672143D01*
X134484842Y-51492616D01*
X134484842Y-51492614D01*
X134484841Y-51492614D01*
X134484844Y-51492610D01*
X134539731Y-51299706D01*
X134558236Y-51100000D01*
X134539731Y-50900294D01*
X134484844Y-50707390D01*
X134484842Y-50707385D01*
X134484842Y-50707383D01*
X134395448Y-50527856D01*
X134274579Y-50367800D01*
X134126365Y-50232686D01*
X134126363Y-50232684D01*
X134042112Y-50180518D01*
X144889200Y-50180518D01*
X144889200Y-52019474D01*
X144899673Y-52072128D01*
X144899674Y-52072131D01*
X144939567Y-52131834D01*
X144999269Y-52171725D01*
X144999272Y-52171727D01*
X144999275Y-52171727D01*
X144999276Y-52171728D01*
X145025597Y-52176963D01*
X145051923Y-52182200D01*
X146890876Y-52182199D01*
X146943528Y-52171727D01*
X147003233Y-52131833D01*
X147043127Y-52072128D01*
X147053600Y-52019477D01*
X147053599Y-50180524D01*
X147043127Y-50127872D01*
X147043125Y-50127869D01*
X147043125Y-50127868D01*
X147003232Y-50068165D01*
X146943530Y-50028274D01*
X146943523Y-50028271D01*
X146890880Y-50017800D01*
X145051925Y-50017800D01*
X144999271Y-50028273D01*
X144999268Y-50028274D01*
X144939565Y-50068167D01*
X144899674Y-50127869D01*
X144899671Y-50127876D01*
X144889200Y-50180518D01*
X134042112Y-50180518D01*
X133955847Y-50127105D01*
X133955841Y-50127103D01*
X133768827Y-50054653D01*
X133571681Y-50017800D01*
X133371119Y-50017800D01*
X133173973Y-50054653D01*
X133055705Y-50100470D01*
X132986958Y-50127103D01*
X132986952Y-50127105D01*
X132816436Y-50232684D01*
X132816434Y-50232686D01*
X132668220Y-50367800D01*
X132547351Y-50527856D01*
X132457957Y-50707383D01*
X132457957Y-50707385D01*
X132403069Y-50900293D01*
X132384564Y-51099999D01*
X123896686Y-51099999D01*
X119918174Y-47121487D01*
X119884689Y-47060164D01*
X119883118Y-47016156D01*
X119885441Y-47000001D01*
X119885441Y-47000000D01*
X119865777Y-46863234D01*
X119808379Y-46737552D01*
X119808379Y-46737551D01*
X119717896Y-46633128D01*
X119717893Y-46633126D01*
X119717891Y-46633124D01*
X119601661Y-46558427D01*
X119601656Y-46558425D01*
X119469087Y-46519500D01*
X119469085Y-46519500D01*
X119330915Y-46519500D01*
X119330912Y-46519500D01*
X119198343Y-46558425D01*
X119198338Y-46558427D01*
X119082108Y-46633124D01*
X119082106Y-46633126D01*
X118991621Y-46737551D01*
X118991620Y-46737552D01*
X118934222Y-46863234D01*
X118914559Y-47000000D01*
X118934222Y-47136765D01*
X118991620Y-47262447D01*
X118991621Y-47262449D01*
X119082104Y-47366872D01*
X119175440Y-47426855D01*
X119195366Y-47449851D01*
X119226533Y-47449851D01*
X119330914Y-47480500D01*
X119432452Y-47480500D01*
X119499491Y-47500185D01*
X119520133Y-47516819D01*
X134311132Y-62307819D01*
X134344617Y-62369142D01*
X134339633Y-62438834D01*
X134297761Y-62494767D01*
X134232297Y-62519184D01*
X134223451Y-62519500D01*
X133767549Y-62519500D01*
X133700510Y-62499815D01*
X133679868Y-62483181D01*
X119418174Y-48221487D01*
X119384689Y-48160164D01*
X119383118Y-48116156D01*
X119385441Y-48100001D01*
X119385441Y-48100000D01*
X119365777Y-47963234D01*
X119308379Y-47837552D01*
X119308379Y-47837551D01*
X119217896Y-47733128D01*
X119217893Y-47733126D01*
X119217894Y-47733126D01*
X119124558Y-47673143D01*
X119104633Y-47650148D01*
X119073467Y-47650148D01*
X118969087Y-47619500D01*
X118969085Y-47619500D01*
X118830915Y-47619500D01*
X118830912Y-47619500D01*
X118698343Y-47658425D01*
X118698338Y-47658427D01*
X118582108Y-47733124D01*
X118582106Y-47733126D01*
X118491621Y-47837551D01*
X118491620Y-47837552D01*
X118434222Y-47963234D01*
X118414559Y-48100000D01*
X103300500Y-48100000D01*
X103300500Y-44100000D01*
X114384514Y-44100000D01*
X114404410Y-44302011D01*
X114463337Y-44496267D01*
X114559021Y-44675279D01*
X114559025Y-44675286D01*
X114687800Y-44832199D01*
X114844713Y-44960974D01*
X114844720Y-44960978D01*
X115023732Y-45056662D01*
X115023734Y-45056662D01*
X115023737Y-45056664D01*
X115217987Y-45115589D01*
X115217986Y-45115589D01*
X115236099Y-45117372D01*
X115420000Y-45135486D01*
X115622013Y-45115589D01*
X115816263Y-45056664D01*
X115995285Y-44960975D01*
X116152199Y-44832199D01*
X116280975Y-44675285D01*
X116347941Y-44550000D01*
X116376662Y-44496267D01*
X116376662Y-44496266D01*
X116376664Y-44496263D01*
X116435589Y-44302013D01*
X116455486Y-44100000D01*
X116924514Y-44100000D01*
X116944410Y-44302011D01*
X117003337Y-44496267D01*
X117099021Y-44675279D01*
X117099025Y-44675286D01*
X117227800Y-44832199D01*
X117384713Y-44960974D01*
X117384720Y-44960978D01*
X117563732Y-45056662D01*
X117563734Y-45056662D01*
X117563737Y-45056664D01*
X117757987Y-45115589D01*
X117757986Y-45115589D01*
X117776099Y-45117372D01*
X117960000Y-45135486D01*
X118162013Y-45115589D01*
X118356263Y-45056664D01*
X118535285Y-44960975D01*
X118692199Y-44832199D01*
X118820975Y-44675285D01*
X118916664Y-44496263D01*
X118945603Y-44400861D01*
X118983899Y-44342425D01*
X119047711Y-44313968D01*
X119116778Y-44324527D01*
X119169172Y-44370751D01*
X119184038Y-44404764D01*
X119226567Y-44563486D01*
X119226570Y-44563492D01*
X119326399Y-44777578D01*
X119461894Y-44971082D01*
X119628917Y-45138105D01*
X119822421Y-45273600D01*
X120036507Y-45373429D01*
X120036516Y-45373433D01*
X120250000Y-45430634D01*
X120250000Y-44533012D01*
X120307007Y-44565925D01*
X120434174Y-44600000D01*
X120565826Y-44600000D01*
X120692993Y-44565925D01*
X120750000Y-44533012D01*
X120750000Y-45430633D01*
X120963483Y-45373433D01*
X120963492Y-45373429D01*
X121177578Y-45273600D01*
X121371082Y-45138105D01*
X121538105Y-44971082D01*
X121673600Y-44777577D01*
X121673601Y-44777575D01*
X121773118Y-44564161D01*
X121819290Y-44511721D01*
X121886483Y-44492569D01*
X121953365Y-44512785D01*
X121998699Y-44565950D01*
X122009500Y-44616565D01*
X122009500Y-44967774D01*
X122019973Y-45020428D01*
X122019974Y-45020431D01*
X122059867Y-45080134D01*
X122112930Y-45115589D01*
X122119572Y-45120027D01*
X122119575Y-45120027D01*
X122119576Y-45120028D01*
X122145897Y-45125263D01*
X122172223Y-45130500D01*
X123907776Y-45130499D01*
X123960428Y-45120027D01*
X124020133Y-45080133D01*
X124021841Y-45077578D01*
X124035816Y-45056662D01*
X124060027Y-45020428D01*
X124070500Y-44967777D01*
X124070500Y-44400000D01*
X128364514Y-44400000D01*
X128384410Y-44602011D01*
X128443337Y-44796267D01*
X128539021Y-44975279D01*
X128539025Y-44975286D01*
X128667800Y-45132199D01*
X128824713Y-45260974D01*
X128824720Y-45260978D01*
X129003732Y-45356662D01*
X129003734Y-45356662D01*
X129003737Y-45356664D01*
X129197987Y-45415589D01*
X129197986Y-45415589D01*
X129216099Y-45417372D01*
X129400000Y-45435486D01*
X129602013Y-45415589D01*
X129796263Y-45356664D01*
X129825612Y-45340977D01*
X129956376Y-45271082D01*
X129975285Y-45260975D01*
X130132199Y-45132199D01*
X130260975Y-44975285D01*
X130356664Y-44796263D01*
X130415589Y-44602013D01*
X130435486Y-44400000D01*
X130904514Y-44400000D01*
X130924410Y-44602011D01*
X130983337Y-44796267D01*
X131079021Y-44975279D01*
X131079025Y-44975286D01*
X131207800Y-45132199D01*
X131364713Y-45260974D01*
X131364720Y-45260978D01*
X131543732Y-45356662D01*
X131543734Y-45356662D01*
X131543737Y-45356664D01*
X131737987Y-45415589D01*
X131737986Y-45415589D01*
X131756099Y-45417372D01*
X131940000Y-45435486D01*
X132142013Y-45415589D01*
X132336263Y-45356664D01*
X132365612Y-45340977D01*
X132496376Y-45271082D01*
X132515285Y-45260975D01*
X132672199Y-45132199D01*
X132800975Y-44975285D01*
X132896664Y-44796263D01*
X132955589Y-44602013D01*
X132975486Y-44400000D01*
X133444514Y-44400000D01*
X133464410Y-44602011D01*
X133523337Y-44796267D01*
X133619021Y-44975279D01*
X133619025Y-44975286D01*
X133747800Y-45132199D01*
X133904713Y-45260974D01*
X133904720Y-45260978D01*
X134083732Y-45356662D01*
X134083734Y-45356662D01*
X134083737Y-45356664D01*
X134277987Y-45415589D01*
X134277986Y-45415589D01*
X134296099Y-45417372D01*
X134480000Y-45435486D01*
X134682013Y-45415589D01*
X134876263Y-45356664D01*
X134905612Y-45340977D01*
X135036376Y-45271082D01*
X135055285Y-45260975D01*
X135212199Y-45132199D01*
X135340975Y-44975285D01*
X135436664Y-44796263D01*
X135495589Y-44602013D01*
X135515486Y-44400000D01*
X135984514Y-44400000D01*
X136004410Y-44602011D01*
X136063337Y-44796267D01*
X136159021Y-44975279D01*
X136159025Y-44975286D01*
X136287800Y-45132199D01*
X136444713Y-45260974D01*
X136444720Y-45260978D01*
X136623732Y-45356662D01*
X136623734Y-45356662D01*
X136623737Y-45356664D01*
X136817987Y-45415589D01*
X136817986Y-45415589D01*
X136836099Y-45417372D01*
X137020000Y-45435486D01*
X137222013Y-45415589D01*
X137416263Y-45356664D01*
X137445612Y-45340977D01*
X137576376Y-45271082D01*
X137595285Y-45260975D01*
X137752199Y-45132199D01*
X137880975Y-44975285D01*
X137976664Y-44796263D01*
X138035589Y-44602013D01*
X138055486Y-44400000D01*
X138524514Y-44400000D01*
X138544410Y-44602011D01*
X138603337Y-44796267D01*
X138699021Y-44975279D01*
X138699025Y-44975286D01*
X138827800Y-45132199D01*
X138984713Y-45260974D01*
X138984720Y-45260978D01*
X139163732Y-45356662D01*
X139163734Y-45356662D01*
X139163737Y-45356664D01*
X139357987Y-45415589D01*
X139357986Y-45415589D01*
X139376099Y-45417372D01*
X139560000Y-45435486D01*
X139762013Y-45415589D01*
X139956263Y-45356664D01*
X139985612Y-45340977D01*
X140116376Y-45271082D01*
X140135285Y-45260975D01*
X140292199Y-45132199D01*
X140420975Y-44975285D01*
X140516664Y-44796263D01*
X140575589Y-44602013D01*
X140595486Y-44400000D01*
X141064514Y-44400000D01*
X141084410Y-44602011D01*
X141143337Y-44796267D01*
X141239021Y-44975279D01*
X141239025Y-44975286D01*
X141367800Y-45132199D01*
X141524713Y-45260974D01*
X141524720Y-45260978D01*
X141703732Y-45356662D01*
X141703734Y-45356662D01*
X141703737Y-45356664D01*
X141897987Y-45415589D01*
X141897986Y-45415589D01*
X141916099Y-45417372D01*
X142100000Y-45435486D01*
X142302013Y-45415589D01*
X142496263Y-45356664D01*
X142525612Y-45340977D01*
X142656376Y-45271082D01*
X142675285Y-45260975D01*
X142832199Y-45132199D01*
X142960975Y-44975285D01*
X143056664Y-44796263D01*
X143085603Y-44700861D01*
X143123899Y-44642425D01*
X143187711Y-44613968D01*
X143256778Y-44624527D01*
X143309172Y-44670751D01*
X143324038Y-44704764D01*
X143366567Y-44863486D01*
X143366570Y-44863492D01*
X143466399Y-45077578D01*
X143601894Y-45271082D01*
X143768917Y-45438105D01*
X143962421Y-45573600D01*
X144176507Y-45673429D01*
X144176516Y-45673433D01*
X144390000Y-45730634D01*
X144390000Y-44833012D01*
X144447007Y-44865925D01*
X144574174Y-44900000D01*
X144705826Y-44900000D01*
X144832993Y-44865925D01*
X144890000Y-44833012D01*
X144890000Y-45730633D01*
X145103483Y-45673433D01*
X145103492Y-45673429D01*
X145317578Y-45573600D01*
X145511082Y-45438105D01*
X145678105Y-45271082D01*
X145813600Y-45077577D01*
X145813601Y-45077575D01*
X145913118Y-44864161D01*
X145959290Y-44811721D01*
X146026483Y-44792569D01*
X146093365Y-44812785D01*
X146138699Y-44865950D01*
X146149500Y-44916565D01*
X146149500Y-45267774D01*
X146159973Y-45320428D01*
X146159974Y-45320431D01*
X146199867Y-45380134D01*
X146252930Y-45415589D01*
X146259572Y-45420027D01*
X146259575Y-45420027D01*
X146259576Y-45420028D01*
X146285897Y-45425263D01*
X146312223Y-45430500D01*
X148047776Y-45430499D01*
X148100428Y-45420027D01*
X148160133Y-45380133D01*
X148200027Y-45320428D01*
X148210500Y-45267777D01*
X148210499Y-43971530D01*
X150109500Y-43971530D01*
X150109500Y-44628469D01*
X150149868Y-44831412D01*
X150149870Y-44831420D01*
X150209461Y-44975286D01*
X150229059Y-45022598D01*
X150251820Y-45056662D01*
X150344024Y-45194657D01*
X150490342Y-45340975D01*
X150490345Y-45340977D01*
X150662402Y-45455941D01*
X150853580Y-45535130D01*
X151046983Y-45573600D01*
X151056530Y-45575499D01*
X151056534Y-45575500D01*
X151056535Y-45575500D01*
X151263466Y-45575500D01*
X151263467Y-45575499D01*
X151466420Y-45535130D01*
X151657598Y-45455941D01*
X151829655Y-45340977D01*
X151975977Y-45194655D01*
X152090941Y-45022598D01*
X152170130Y-44831420D01*
X152210500Y-44628465D01*
X152210500Y-43971535D01*
X152210499Y-43971530D01*
X152649500Y-43971530D01*
X152649500Y-44628469D01*
X152689868Y-44831412D01*
X152689870Y-44831420D01*
X152749461Y-44975286D01*
X152769059Y-45022598D01*
X152791820Y-45056662D01*
X152884024Y-45194657D01*
X153030342Y-45340975D01*
X153030345Y-45340977D01*
X153202402Y-45455941D01*
X153393580Y-45535130D01*
X153586983Y-45573600D01*
X153596530Y-45575499D01*
X153596534Y-45575500D01*
X153596535Y-45575500D01*
X153803466Y-45575500D01*
X153803467Y-45575499D01*
X154006420Y-45535130D01*
X154197598Y-45455941D01*
X154369655Y-45340977D01*
X154515977Y-45194655D01*
X154630941Y-45022598D01*
X154710130Y-44831420D01*
X154750500Y-44628465D01*
X154750500Y-43971535D01*
X154750499Y-43971530D01*
X155189500Y-43971530D01*
X155189500Y-44628469D01*
X155229868Y-44831412D01*
X155229870Y-44831420D01*
X155289461Y-44975286D01*
X155309059Y-45022598D01*
X155331820Y-45056662D01*
X155424024Y-45194657D01*
X155570342Y-45340975D01*
X155570345Y-45340977D01*
X155742402Y-45455941D01*
X155933580Y-45535130D01*
X156126983Y-45573600D01*
X156136530Y-45575499D01*
X156136534Y-45575500D01*
X156136535Y-45575500D01*
X156343466Y-45575500D01*
X156343467Y-45575499D01*
X156546420Y-45535130D01*
X156737598Y-45455941D01*
X156909655Y-45340977D01*
X157055977Y-45194655D01*
X157170941Y-45022598D01*
X157250130Y-44831420D01*
X157290500Y-44628465D01*
X157290500Y-43971535D01*
X157290499Y-43971530D01*
X157729500Y-43971530D01*
X157729500Y-44628469D01*
X157769868Y-44831412D01*
X157769870Y-44831420D01*
X157829461Y-44975286D01*
X157849059Y-45022598D01*
X157871820Y-45056662D01*
X157964024Y-45194657D01*
X158110342Y-45340975D01*
X158110345Y-45340977D01*
X158282402Y-45455941D01*
X158473580Y-45535130D01*
X158666983Y-45573600D01*
X158676530Y-45575499D01*
X158676534Y-45575500D01*
X158676535Y-45575500D01*
X158883466Y-45575500D01*
X158883467Y-45575499D01*
X159086420Y-45535130D01*
X159277598Y-45455941D01*
X159449655Y-45340977D01*
X159595977Y-45194655D01*
X159710941Y-45022598D01*
X159711433Y-45021408D01*
X159711860Y-45020879D01*
X159713814Y-45017224D01*
X159714506Y-45017594D01*
X159755263Y-44967001D01*
X159821554Y-44944926D01*
X159889256Y-44962194D01*
X159936875Y-45013323D01*
X159950000Y-45068845D01*
X159950000Y-45194970D01*
X159950001Y-45194987D01*
X159960494Y-45297697D01*
X160015641Y-45464119D01*
X160015643Y-45464124D01*
X160107684Y-45613345D01*
X160231654Y-45737315D01*
X160380875Y-45829356D01*
X160380880Y-45829358D01*
X160547302Y-45884505D01*
X160547309Y-45884506D01*
X160650019Y-45894999D01*
X161069999Y-45894999D01*
X161070000Y-45894998D01*
X161070000Y-44842709D01*
X161090339Y-44854452D01*
X161241667Y-44895000D01*
X161398333Y-44895000D01*
X161549661Y-44854452D01*
X161570000Y-44842709D01*
X161570000Y-45894999D01*
X161989972Y-45894999D01*
X161989986Y-45894998D01*
X162092697Y-45884505D01*
X162259119Y-45829358D01*
X162259124Y-45829356D01*
X162408345Y-45737315D01*
X162532315Y-45613345D01*
X162624356Y-45464124D01*
X162624358Y-45464119D01*
X162679505Y-45297697D01*
X162679506Y-45297690D01*
X162689999Y-45194986D01*
X162690000Y-45194973D01*
X162690000Y-44550000D01*
X161862709Y-44550000D01*
X161874452Y-44529661D01*
X161915000Y-44378333D01*
X161915000Y-44221667D01*
X161874452Y-44070339D01*
X161862709Y-44050000D01*
X162689999Y-44050000D01*
X162689999Y-43405028D01*
X162689998Y-43405013D01*
X162679505Y-43302302D01*
X162624358Y-43135880D01*
X162624356Y-43135875D01*
X162532315Y-42986654D01*
X162408345Y-42862684D01*
X162259124Y-42770643D01*
X162259119Y-42770641D01*
X162092697Y-42715494D01*
X162092690Y-42715493D01*
X161989986Y-42705000D01*
X161570000Y-42705000D01*
X161570000Y-43757290D01*
X161549661Y-43745548D01*
X161398333Y-43705000D01*
X161241667Y-43705000D01*
X161090339Y-43745548D01*
X161070000Y-43757290D01*
X161070000Y-42705000D01*
X160650028Y-42705000D01*
X160650012Y-42705001D01*
X160547302Y-42715494D01*
X160380880Y-42770641D01*
X160380875Y-42770643D01*
X160231654Y-42862684D01*
X160107684Y-42986654D01*
X160015643Y-43135875D01*
X160015641Y-43135880D01*
X159960494Y-43302302D01*
X159960493Y-43302309D01*
X159950000Y-43405013D01*
X159950000Y-43531150D01*
X159930315Y-43598189D01*
X159877511Y-43643944D01*
X159808353Y-43653888D01*
X159744797Y-43624863D01*
X159714270Y-43582531D01*
X159713814Y-43582776D01*
X159712001Y-43579385D01*
X159711441Y-43578608D01*
X159710942Y-43577404D01*
X159680753Y-43532223D01*
X159595977Y-43405345D01*
X159595975Y-43405342D01*
X159449657Y-43259024D01*
X159330741Y-43179568D01*
X159277598Y-43144059D01*
X159257852Y-43135880D01*
X159086420Y-43064870D01*
X159086412Y-43064868D01*
X158883469Y-43024500D01*
X158883465Y-43024500D01*
X158676535Y-43024500D01*
X158676530Y-43024500D01*
X158473587Y-43064868D01*
X158473579Y-43064870D01*
X158282403Y-43144058D01*
X158110342Y-43259024D01*
X157964024Y-43405342D01*
X157849058Y-43577403D01*
X157769870Y-43768579D01*
X157769868Y-43768587D01*
X157729500Y-43971530D01*
X157290499Y-43971530D01*
X157250130Y-43768580D01*
X157170941Y-43577402D01*
X157055977Y-43405345D01*
X157055975Y-43405342D01*
X156909657Y-43259024D01*
X156790741Y-43179568D01*
X156737598Y-43144059D01*
X156717852Y-43135880D01*
X156546420Y-43064870D01*
X156546412Y-43064868D01*
X156343469Y-43024500D01*
X156343465Y-43024500D01*
X156136535Y-43024500D01*
X156136530Y-43024500D01*
X155933587Y-43064868D01*
X155933579Y-43064870D01*
X155742403Y-43144058D01*
X155570342Y-43259024D01*
X155424024Y-43405342D01*
X155309058Y-43577403D01*
X155229870Y-43768579D01*
X155229868Y-43768587D01*
X155189500Y-43971530D01*
X154750499Y-43971530D01*
X154710130Y-43768580D01*
X154630941Y-43577402D01*
X154515977Y-43405345D01*
X154515975Y-43405342D01*
X154369657Y-43259024D01*
X154250741Y-43179568D01*
X154197598Y-43144059D01*
X154177852Y-43135880D01*
X154006420Y-43064870D01*
X154006412Y-43064868D01*
X153803469Y-43024500D01*
X153803465Y-43024500D01*
X153596535Y-43024500D01*
X153596530Y-43024500D01*
X153393587Y-43064868D01*
X153393579Y-43064870D01*
X153202403Y-43144058D01*
X153030342Y-43259024D01*
X152884024Y-43405342D01*
X152769058Y-43577403D01*
X152689870Y-43768579D01*
X152689868Y-43768587D01*
X152649500Y-43971530D01*
X152210499Y-43971530D01*
X152170130Y-43768580D01*
X152090941Y-43577402D01*
X151975977Y-43405345D01*
X151975975Y-43405342D01*
X151829657Y-43259024D01*
X151710741Y-43179568D01*
X151657598Y-43144059D01*
X151637852Y-43135880D01*
X151466420Y-43064870D01*
X151466412Y-43064868D01*
X151263469Y-43024500D01*
X151263465Y-43024500D01*
X151056535Y-43024500D01*
X151056530Y-43024500D01*
X150853587Y-43064868D01*
X150853579Y-43064870D01*
X150662403Y-43144058D01*
X150490342Y-43259024D01*
X150344024Y-43405342D01*
X150229058Y-43577403D01*
X150149870Y-43768579D01*
X150149868Y-43768587D01*
X150109500Y-43971530D01*
X148210499Y-43971530D01*
X148210499Y-43532224D01*
X148200027Y-43479572D01*
X148200025Y-43479569D01*
X148200025Y-43479568D01*
X148160132Y-43419865D01*
X148100430Y-43379974D01*
X148100423Y-43379971D01*
X148047780Y-43369500D01*
X146312225Y-43369500D01*
X146259571Y-43379973D01*
X146259568Y-43379974D01*
X146199865Y-43419867D01*
X146159974Y-43479569D01*
X146159971Y-43479576D01*
X146149500Y-43532218D01*
X146149500Y-43883433D01*
X146129815Y-43950472D01*
X146077011Y-43996227D01*
X146007853Y-44006171D01*
X145944297Y-43977146D01*
X145913118Y-43935838D01*
X145813600Y-43722422D01*
X145813599Y-43722420D01*
X145678113Y-43528926D01*
X145678108Y-43528920D01*
X145511082Y-43361894D01*
X145317578Y-43226399D01*
X145103492Y-43126570D01*
X145103486Y-43126567D01*
X144890000Y-43069364D01*
X144890000Y-43966988D01*
X144832993Y-43934075D01*
X144705826Y-43900000D01*
X144574174Y-43900000D01*
X144447007Y-43934075D01*
X144390000Y-43966988D01*
X144390000Y-43069364D01*
X144389999Y-43069364D01*
X144176513Y-43126567D01*
X144176507Y-43126570D01*
X143962422Y-43226399D01*
X143962420Y-43226400D01*
X143768926Y-43361886D01*
X143768920Y-43361891D01*
X143601891Y-43528920D01*
X143601886Y-43528926D01*
X143466400Y-43722420D01*
X143466399Y-43722422D01*
X143366570Y-43936507D01*
X143366567Y-43936514D01*
X143324038Y-44095235D01*
X143287673Y-44154895D01*
X143224826Y-44185424D01*
X143155450Y-44177129D01*
X143101572Y-44132644D01*
X143085604Y-44099141D01*
X143056664Y-44003737D01*
X142960975Y-43824715D01*
X142960974Y-43824713D01*
X142832199Y-43667800D01*
X142675286Y-43539025D01*
X142675279Y-43539021D01*
X142496267Y-43443337D01*
X142369929Y-43405013D01*
X142302013Y-43384411D01*
X142302011Y-43384410D01*
X142302013Y-43384410D01*
X142100000Y-43364514D01*
X141897988Y-43384410D01*
X141703732Y-43443337D01*
X141524720Y-43539021D01*
X141524713Y-43539025D01*
X141367800Y-43667800D01*
X141239025Y-43824713D01*
X141239021Y-43824720D01*
X141143337Y-44003732D01*
X141084410Y-44197988D01*
X141064514Y-44400000D01*
X140595486Y-44400000D01*
X140575589Y-44197987D01*
X140516664Y-44003737D01*
X140516662Y-44003734D01*
X140516662Y-44003732D01*
X140420978Y-43824720D01*
X140420974Y-43824713D01*
X140292199Y-43667800D01*
X140135286Y-43539025D01*
X140135279Y-43539021D01*
X139956267Y-43443337D01*
X139829929Y-43405013D01*
X139762013Y-43384411D01*
X139762011Y-43384410D01*
X139762013Y-43384410D01*
X139560000Y-43364514D01*
X139357988Y-43384410D01*
X139163732Y-43443337D01*
X138984720Y-43539021D01*
X138984713Y-43539025D01*
X138827800Y-43667800D01*
X138699025Y-43824713D01*
X138699021Y-43824720D01*
X138603337Y-44003732D01*
X138544410Y-44197988D01*
X138524514Y-44400000D01*
X138055486Y-44400000D01*
X138035589Y-44197987D01*
X137976664Y-44003737D01*
X137976662Y-44003734D01*
X137976662Y-44003732D01*
X137880978Y-43824720D01*
X137880974Y-43824713D01*
X137752199Y-43667800D01*
X137595286Y-43539025D01*
X137595279Y-43539021D01*
X137416267Y-43443337D01*
X137289929Y-43405013D01*
X137222013Y-43384411D01*
X137222011Y-43384410D01*
X137222013Y-43384410D01*
X137020000Y-43364514D01*
X136817988Y-43384410D01*
X136623732Y-43443337D01*
X136444720Y-43539021D01*
X136444713Y-43539025D01*
X136287800Y-43667800D01*
X136159025Y-43824713D01*
X136159021Y-43824720D01*
X136063337Y-44003732D01*
X136004410Y-44197988D01*
X135984514Y-44400000D01*
X135515486Y-44400000D01*
X135495589Y-44197987D01*
X135436664Y-44003737D01*
X135436662Y-44003734D01*
X135436662Y-44003732D01*
X135340978Y-43824720D01*
X135340974Y-43824713D01*
X135212199Y-43667800D01*
X135055286Y-43539025D01*
X135055279Y-43539021D01*
X134876267Y-43443337D01*
X134749929Y-43405013D01*
X134682013Y-43384411D01*
X134682011Y-43384410D01*
X134682013Y-43384410D01*
X134480000Y-43364514D01*
X134277988Y-43384410D01*
X134083732Y-43443337D01*
X133904720Y-43539021D01*
X133904713Y-43539025D01*
X133747800Y-43667800D01*
X133619025Y-43824713D01*
X133619021Y-43824720D01*
X133523337Y-44003732D01*
X133464410Y-44197988D01*
X133444514Y-44400000D01*
X132975486Y-44400000D01*
X132955589Y-44197987D01*
X132896664Y-44003737D01*
X132896662Y-44003734D01*
X132896662Y-44003732D01*
X132800978Y-43824720D01*
X132800974Y-43824713D01*
X132672199Y-43667800D01*
X132515286Y-43539025D01*
X132515279Y-43539021D01*
X132336267Y-43443337D01*
X132209929Y-43405013D01*
X132142013Y-43384411D01*
X132142011Y-43384410D01*
X132142013Y-43384410D01*
X131940000Y-43364514D01*
X131737988Y-43384410D01*
X131543732Y-43443337D01*
X131364720Y-43539021D01*
X131364713Y-43539025D01*
X131207800Y-43667800D01*
X131079025Y-43824713D01*
X131079021Y-43824720D01*
X130983337Y-44003732D01*
X130924410Y-44197988D01*
X130904514Y-44400000D01*
X130435486Y-44400000D01*
X130415589Y-44197987D01*
X130356664Y-44003737D01*
X130356662Y-44003734D01*
X130356662Y-44003732D01*
X130260978Y-43824720D01*
X130260974Y-43824713D01*
X130132199Y-43667800D01*
X129975286Y-43539025D01*
X129975279Y-43539021D01*
X129796267Y-43443337D01*
X129669929Y-43405013D01*
X129602013Y-43384411D01*
X129602011Y-43384410D01*
X129602013Y-43384410D01*
X129400000Y-43364514D01*
X129197988Y-43384410D01*
X129003732Y-43443337D01*
X128824720Y-43539021D01*
X128824713Y-43539025D01*
X128667800Y-43667800D01*
X128539025Y-43824713D01*
X128539021Y-43824720D01*
X128443337Y-44003732D01*
X128384410Y-44197988D01*
X128364514Y-44400000D01*
X124070500Y-44400000D01*
X124070499Y-43232224D01*
X124060027Y-43179572D01*
X124060025Y-43179569D01*
X124060025Y-43179568D01*
X124020132Y-43119865D01*
X123960430Y-43079974D01*
X123960423Y-43079971D01*
X123907780Y-43069500D01*
X122172225Y-43069500D01*
X122119571Y-43079973D01*
X122119568Y-43079974D01*
X122059865Y-43119867D01*
X122019974Y-43179569D01*
X122019971Y-43179576D01*
X122009500Y-43232218D01*
X122009500Y-43583433D01*
X121989815Y-43650472D01*
X121937011Y-43696227D01*
X121867853Y-43706171D01*
X121804297Y-43677146D01*
X121773118Y-43635838D01*
X121673600Y-43422422D01*
X121673599Y-43422420D01*
X121538113Y-43228926D01*
X121538108Y-43228920D01*
X121371082Y-43061894D01*
X121177578Y-42926399D01*
X120963492Y-42826570D01*
X120963486Y-42826567D01*
X120750000Y-42769364D01*
X120750000Y-43666988D01*
X120692993Y-43634075D01*
X120565826Y-43600000D01*
X120434174Y-43600000D01*
X120307007Y-43634075D01*
X120250000Y-43666988D01*
X120250000Y-42769364D01*
X120249999Y-42769364D01*
X120036513Y-42826567D01*
X120036507Y-42826570D01*
X119822422Y-42926399D01*
X119822420Y-42926400D01*
X119628926Y-43061886D01*
X119628920Y-43061891D01*
X119461891Y-43228920D01*
X119461886Y-43228926D01*
X119326400Y-43422420D01*
X119326399Y-43422422D01*
X119226570Y-43636507D01*
X119226567Y-43636514D01*
X119184038Y-43795235D01*
X119147673Y-43854895D01*
X119084826Y-43885424D01*
X119015450Y-43877129D01*
X118961572Y-43832644D01*
X118945604Y-43799141D01*
X118916664Y-43703737D01*
X118824988Y-43532223D01*
X118820978Y-43524720D01*
X118820974Y-43524713D01*
X118692199Y-43367800D01*
X118535286Y-43239025D01*
X118535279Y-43239021D01*
X118356267Y-43143337D01*
X118259138Y-43113873D01*
X118162013Y-43084411D01*
X118162011Y-43084410D01*
X118162013Y-43084410D01*
X117960000Y-43064514D01*
X117757988Y-43084410D01*
X117563732Y-43143337D01*
X117384720Y-43239021D01*
X117384713Y-43239025D01*
X117227800Y-43367800D01*
X117099025Y-43524713D01*
X117099021Y-43524720D01*
X117003337Y-43703732D01*
X116944410Y-43897988D01*
X116924514Y-44100000D01*
X116455486Y-44100000D01*
X116435589Y-43897987D01*
X116376664Y-43703737D01*
X116376662Y-43703734D01*
X116376662Y-43703732D01*
X116280978Y-43524720D01*
X116280974Y-43524713D01*
X116152199Y-43367800D01*
X115995286Y-43239025D01*
X115995279Y-43239021D01*
X115816267Y-43143337D01*
X115719138Y-43113873D01*
X115622013Y-43084411D01*
X115622011Y-43084410D01*
X115622013Y-43084410D01*
X115420000Y-43064514D01*
X115217988Y-43084410D01*
X115023732Y-43143337D01*
X114844720Y-43239021D01*
X114844713Y-43239025D01*
X114687800Y-43367800D01*
X114559025Y-43524713D01*
X114559021Y-43524720D01*
X114463337Y-43703732D01*
X114404410Y-43897988D01*
X114384514Y-44100000D01*
X103300500Y-44100000D01*
X103300500Y-40700000D01*
X137314559Y-40700000D01*
X137334222Y-40836765D01*
X137391620Y-40962447D01*
X137391621Y-40962449D01*
X137482104Y-41066872D01*
X137482106Y-41066873D01*
X137482108Y-41066875D01*
X137598338Y-41141572D01*
X137598343Y-41141574D01*
X137701220Y-41171780D01*
X137719526Y-41177156D01*
X137730912Y-41180499D01*
X137730914Y-41180500D01*
X137832452Y-41180500D01*
X137899491Y-41200185D01*
X137920133Y-41216819D01*
X138631825Y-41928512D01*
X138665310Y-41989835D01*
X138666882Y-42033837D01*
X138664559Y-42049996D01*
X138664559Y-42049999D01*
X138684222Y-42186765D01*
X138741620Y-42312447D01*
X138741621Y-42312449D01*
X138832104Y-42416872D01*
X138832106Y-42416873D01*
X138832108Y-42416875D01*
X138948338Y-42491572D01*
X138948343Y-42491574D01*
X139080912Y-42530499D01*
X139080914Y-42530500D01*
X139080915Y-42530500D01*
X139219086Y-42530500D01*
X139219086Y-42530499D01*
X139351659Y-42491573D01*
X139467896Y-42416872D01*
X139558379Y-42312449D01*
X139615777Y-42186765D01*
X139635441Y-42050000D01*
X139615777Y-41913235D01*
X139558379Y-41787551D01*
X139467896Y-41683128D01*
X139467893Y-41683126D01*
X139467891Y-41683124D01*
X139351661Y-41608427D01*
X139351656Y-41608425D01*
X139219087Y-41569500D01*
X139219085Y-41569500D01*
X139117549Y-41569500D01*
X139050510Y-41549815D01*
X139029868Y-41533181D01*
X138318174Y-40821487D01*
X138284689Y-40760164D01*
X138283118Y-40716156D01*
X138285441Y-40700001D01*
X138285441Y-40700000D01*
X138265777Y-40563234D01*
X138208379Y-40437552D01*
X138208379Y-40437551D01*
X138117896Y-40333128D01*
X138117893Y-40333126D01*
X138117891Y-40333124D01*
X138001661Y-40258427D01*
X138001656Y-40258425D01*
X137869087Y-40219500D01*
X137869085Y-40219500D01*
X137730915Y-40219500D01*
X137730912Y-40219500D01*
X137598343Y-40258425D01*
X137598338Y-40258427D01*
X137482108Y-40333124D01*
X137482106Y-40333126D01*
X137391621Y-40437551D01*
X137391620Y-40437552D01*
X137334222Y-40563234D01*
X137314559Y-40700000D01*
X103300500Y-40700000D01*
X103300500Y-37424500D01*
X103320185Y-37357461D01*
X103372989Y-37311706D01*
X103424500Y-37300500D01*
X164875500Y-37300500D01*
X164942539Y-37320185D01*
G37*
G04 #@! TD.AperFunction*
M02*
