M48
; DRILL file {KiCad 8.0.7} date 2025-02-15T14:09:58-0600
; FORMAT={-:-/ absolute / metric / decimal}
; #@! TF.CreationDate,2025-02-15T14:09:58-06:00
; #@! TF.GenerationSoftware,Kicad,Pcbnew,8.0.7
; #@! TF.FileFunction,Plated,1,2,PTH
FMAT,2
METRIC
; #@! TA.AperFunction,Plated,PTH,ViaDrill
T1C0.300
; #@! TA.AperFunction,Plated,PTH,ComponentDrill
T2C1.000
; #@! TA.AperFunction,Plated,PTH,ComponentDrill
T3C1.190
; #@! TA.AperFunction,Plated,PTH,ComponentDrill
T4C1.295
%
G90
G05
T1
X108.667Y-50.3
X109.267Y-51.5
X109.98Y-81.98
X110.5Y-84.4
X118.067Y-50.3
X118.9Y-48.1
X119.4Y-47.0
X119.467Y-61.4
X119.7Y-51.0
X120.475Y-93.175
X121.0Y-46.0
X122.235Y-53.465
X122.6Y-65.4
X123.1Y-73.1
X126.0Y-65.8
X126.0Y-68.4
X128.4Y-68.3
X129.0Y-65.5
X129.4Y-74.3
X130.0Y-64.8
X130.0Y-69.1
X130.05Y-75.35
X130.537Y-72.065
X131.0Y-70.5
X131.0Y-89.0
X131.7Y-86.6
X131.9Y-55.5
X132.3Y-83.7
X133.3Y-63.42
X133.5Y-89.5
X133.852Y-77.852
X134.1Y-86.8
X135.6Y-78.9
X136.3Y-62.8
X136.6Y-83.3
X136.6Y-86.5
X136.7Y-78.0
X136.9Y-62.3
X137.0Y-89.5
X137.8Y-40.7
X137.8Y-83.3
X138.0Y-79.4
X138.4Y-62.2
X139.15Y-42.05
X139.7Y-86.7
X140.1Y-83.7
X141.4Y-78.1
X141.7Y-54.2
X142.0Y-77.5
X142.4Y-61.0
X143.5Y-62.5
X144.3Y-87.6
X144.4Y-88.3
X144.535Y-46.2
X145.2Y-81.8
X145.5Y-67.0
X150.5Y-58.9
X153.5Y-59.0
X153.725Y-50.225
X157.3Y-70.3
X157.525Y-92.0
X157.6Y-61.2
X161.4Y-46.9
T2
X106.475Y-81.98
X106.475Y-84.52
X106.475Y-87.06
X106.475Y-89.6
X109.62Y-93.2
X112.16Y-93.2
X114.7Y-93.2
X115.42Y-44.1
X117.24Y-93.2
X117.96Y-44.1
X120.5Y-44.1
X123.04Y-44.1
X129.4Y-44.4
X131.94Y-44.4
X134.48Y-44.4
X137.02Y-44.4
X139.56Y-44.4
X142.1Y-44.4
X144.64Y-44.4
X147.18Y-44.4
X160.3Y-76.42
X160.3Y-78.96
X160.3Y-81.5
X160.3Y-84.04
X160.3Y-86.58
X160.3Y-89.12
X160.3Y-91.66
T3
X151.16Y-44.3
X153.7Y-44.3
X156.24Y-44.3
X158.78Y-44.3
X161.32Y-44.3
T4
X109.371Y-71.0
X109.371Y-76.0
X111.0Y-61.3
X116.0Y-61.3
X121.871Y-71.0
X121.871Y-76.0
X133.471Y-51.1
X133.471Y-56.1
X145.971Y-51.1
X145.971Y-56.1
M30
