G04 #@! TF.GenerationSoftware,KiCad,Pcbnew,8.0.7*
G04 #@! TF.CreationDate,2025-02-15T14:10:27-06:00*
G04 #@! TF.ProjectId,Rocket,526f636b-6574-42e6-9b69-6361645f7063,rev?*
G04 #@! TF.SameCoordinates,Original*
G04 #@! TF.FileFunction,Paste,Top*
G04 #@! TF.FilePolarity,Positive*
%FSLAX46Y46*%
G04 Gerber Fmt 4.6, Leading zero omitted, Abs format (unit mm)*
G04 Created by KiCad (PCBNEW 8.0.7) date 2025-02-15 14:10:27*
%MOMM*%
%LPD*%
G01*
G04 APERTURE LIST*
G04 Aperture macros list*
%AMRoundRect*
0 Rectangle with rounded corners*
0 $1 Rounding radius*
0 $2 $3 $4 $5 $6 $7 $8 $9 X,Y pos of 4 corners*
0 Add a 4 corners polygon primitive as box body*
4,1,4,$2,$3,$4,$5,$6,$7,$8,$9,$2,$3,0*
0 Add four circle primitives for the rounded corners*
1,1,$1+$1,$2,$3*
1,1,$1+$1,$4,$5*
1,1,$1+$1,$6,$7*
1,1,$1+$1,$8,$9*
0 Add four rect primitives between the rounded corners*
20,1,$1+$1,$2,$3,$4,$5,0*
20,1,$1+$1,$4,$5,$6,$7,0*
20,1,$1+$1,$6,$7,$8,$9,0*
20,1,$1+$1,$8,$9,$2,$3,0*%
G04 Aperture macros list end*
%ADD10RoundRect,0.218750X0.256250X-0.218750X0.256250X0.218750X-0.256250X0.218750X-0.256250X-0.218750X0*%
%ADD11RoundRect,0.075000X-0.700000X-0.075000X0.700000X-0.075000X0.700000X0.075000X-0.700000X0.075000X0*%
%ADD12RoundRect,0.075000X-0.075000X-0.700000X0.075000X-0.700000X0.075000X0.700000X-0.075000X0.700000X0*%
%ADD13RoundRect,0.079500X-0.100500X0.079500X-0.100500X-0.079500X0.100500X-0.079500X0.100500X0.079500X0*%
%ADD14RoundRect,0.090000X0.090000X-0.139000X0.090000X0.139000X-0.090000X0.139000X-0.090000X-0.139000X0*%
%ADD15RoundRect,0.079500X0.100500X-0.079500X0.100500X0.079500X-0.100500X0.079500X-0.100500X-0.079500X0*%
%ADD16RoundRect,0.090000X-0.090000X0.139000X-0.090000X-0.139000X0.090000X-0.139000X0.090000X0.139000X0*%
%ADD17R,1.498600X0.558800*%
%ADD18R,0.660400X2.768600*%
%ADD19R,0.800000X1.500000*%
%ADD20RoundRect,0.362500X-0.362500X-0.637500X0.362500X-0.637500X0.362500X0.637500X-0.362500X0.637500X0*%
%ADD21R,2.209800X2.260600*%
%ADD22R,3.835400X0.812800*%
%ADD23RoundRect,0.090000X0.139000X0.090000X-0.139000X0.090000X-0.139000X-0.090000X0.139000X-0.090000X0*%
G04 APERTURE END LIST*
D10*
X157300000Y-68987500D03*
X157300000Y-67412500D03*
D11*
X132325000Y-66750000D03*
X132325000Y-67250000D03*
X132325000Y-67750000D03*
X132325000Y-68250000D03*
X132325000Y-68750000D03*
X132325000Y-69250000D03*
X132325000Y-69750000D03*
X132325000Y-70250000D03*
X132325000Y-70750000D03*
X132325000Y-71250000D03*
X132325000Y-71750000D03*
X132325000Y-72250000D03*
X132325000Y-72750000D03*
X132325000Y-73250000D03*
X132325000Y-73750000D03*
X132325000Y-74250000D03*
D12*
X134250000Y-76175000D03*
X134750000Y-76175000D03*
X135250000Y-76175000D03*
X135750000Y-76175000D03*
X136250000Y-76175000D03*
X136750000Y-76175000D03*
X137250000Y-76175000D03*
X137750000Y-76175000D03*
X138250000Y-76175000D03*
X138750000Y-76175000D03*
X139250000Y-76175000D03*
X139750000Y-76175000D03*
X140250000Y-76175000D03*
X140750000Y-76175000D03*
X141250000Y-76175000D03*
X141750000Y-76175000D03*
D11*
X143675000Y-74250000D03*
X143675000Y-73750000D03*
X143675000Y-73250000D03*
X143675000Y-72750000D03*
X143675000Y-72250000D03*
X143675000Y-71750000D03*
X143675000Y-71250000D03*
X143675000Y-70750000D03*
X143675000Y-70250000D03*
X143675000Y-69750000D03*
X143675000Y-69250000D03*
X143675000Y-68750000D03*
X143675000Y-68250000D03*
X143675000Y-67750000D03*
X143675000Y-67250000D03*
X143675000Y-66750000D03*
D12*
X141750000Y-64825000D03*
X141250000Y-64825000D03*
X140750000Y-64825000D03*
X140250000Y-64825000D03*
X139750000Y-64825000D03*
X139250000Y-64825000D03*
X138750000Y-64825000D03*
X138250000Y-64825000D03*
X137750000Y-64825000D03*
X137250000Y-64825000D03*
X136750000Y-64825000D03*
X136250000Y-64825000D03*
X135750000Y-64825000D03*
X135250000Y-64825000D03*
X134750000Y-64825000D03*
X134250000Y-64825000D03*
D13*
X157500000Y-59755000D03*
X157500000Y-60445000D03*
X118700000Y-51955000D03*
X118700000Y-52645000D03*
D14*
X143300000Y-60325000D03*
X143300000Y-59460000D03*
D13*
X128500000Y-72755000D03*
X128500000Y-73445000D03*
X129000000Y-66835000D03*
X129000000Y-67525000D03*
D15*
X120600000Y-51545000D03*
X120600000Y-50855000D03*
X127600000Y-73445000D03*
X127600000Y-72755000D03*
D16*
X157300000Y-63375000D03*
X157300000Y-64240000D03*
D13*
X127000000Y-66855000D03*
X127000000Y-67545000D03*
X129400000Y-72755000D03*
X129400000Y-73445000D03*
D10*
X154300000Y-68987500D03*
X154300000Y-67412500D03*
D13*
X130670001Y-55405001D03*
X130670001Y-56095001D03*
D17*
X116405100Y-52705000D03*
X116405100Y-51435000D03*
X116405100Y-50165000D03*
X116405100Y-48895000D03*
X110994900Y-48895000D03*
X110994900Y-50165000D03*
X110994900Y-51435000D03*
X110994900Y-52705000D03*
D18*
X157535100Y-56407248D03*
X156265100Y-56407248D03*
X154995100Y-56407248D03*
X153725100Y-56407248D03*
X152455100Y-56407248D03*
X157535100Y-52367252D03*
X156265100Y-52367252D03*
X154995100Y-52367252D03*
X153725100Y-52367252D03*
X152455100Y-52367252D03*
D19*
X132400000Y-85200000D03*
X133500000Y-85200000D03*
X134600000Y-85200000D03*
X135700000Y-85200000D03*
X136800000Y-85200000D03*
X137900000Y-85200000D03*
X139000000Y-85200000D03*
X140100000Y-85200000D03*
D20*
X128730000Y-82600000D03*
X128730000Y-90900000D03*
X142480000Y-82600000D03*
X142480000Y-90900000D03*
D14*
X115400000Y-41432500D03*
X115400000Y-40567500D03*
D13*
X126000000Y-66855000D03*
X126000000Y-67545000D03*
X130000000Y-63355000D03*
X130000000Y-64045000D03*
X142400000Y-59355000D03*
X142400000Y-60045000D03*
D21*
X134555300Y-97900000D03*
X138644700Y-97900000D03*
D13*
X122600000Y-63655000D03*
X122600000Y-64345000D03*
X130000000Y-66835000D03*
X130000000Y-67525000D03*
D15*
X108266600Y-52165000D03*
X108266600Y-51475000D03*
D14*
X118100000Y-41432500D03*
X118100000Y-40567500D03*
D22*
X122642300Y-60000000D03*
X131557700Y-60000000D03*
D17*
X123794900Y-52195000D03*
X123794900Y-53465000D03*
X123794900Y-54735000D03*
X123794900Y-56005000D03*
X129205100Y-56005000D03*
X129205100Y-54735000D03*
X129205100Y-53465000D03*
X129205100Y-52195000D03*
D23*
X122232500Y-54700000D03*
X121367500Y-54700000D03*
D13*
X128000000Y-66855000D03*
X128000000Y-67545000D03*
D14*
X123800000Y-70632500D03*
X123800000Y-69767500D03*
D16*
X154310000Y-63460000D03*
X154310000Y-64325000D03*
M02*
