G04 #@! TF.GenerationSoftware,KiCad,Pcbnew,8.0.7*
G04 #@! TF.CreationDate,2025-02-15T14:10:28-06:00*
G04 #@! TF.ProjectId,Rocket,526f636b-6574-42e6-9b69-6361645f7063,rev?*
G04 #@! TF.SameCoordinates,Original*
G04 #@! TF.FileFunction,Soldermask,Top*
G04 #@! TF.FilePolarity,Negative*
%FSLAX46Y46*%
G04 Gerber Fmt 4.6, Leading zero omitted, Abs format (unit mm)*
G04 Created by KiCad (PCBNEW 8.0.7) date 2025-02-15 14:10:28*
%MOMM*%
%LPD*%
G01*
G04 APERTURE LIST*
G04 Aperture macros list*
%AMRoundRect*
0 Rectangle with rounded corners*
0 $1 Rounding radius*
0 $2 $3 $4 $5 $6 $7 $8 $9 X,Y pos of 4 corners*
0 Add a 4 corners polygon primitive as box body*
4,1,4,$2,$3,$4,$5,$6,$7,$8,$9,$2,$3,0*
0 Add four circle primitives for the rounded corners*
1,1,$1+$1,$2,$3*
1,1,$1+$1,$4,$5*
1,1,$1+$1,$6,$7*
1,1,$1+$1,$8,$9*
0 Add four rect primitives between the rounded corners*
20,1,$1+$1,$2,$3,$4,$5,0*
20,1,$1+$1,$4,$5,$6,$7,0*
20,1,$1+$1,$6,$7,$8,$9,0*
20,1,$1+$1,$8,$9,$2,$3,0*%
G04 Aperture macros list end*
%ADD10R,1.803400X1.803400*%
%ADD11C,1.803400*%
%ADD12RoundRect,0.250000X0.620000X0.845000X-0.620000X0.845000X-0.620000X-0.845000X0.620000X-0.845000X0*%
%ADD13O,1.740000X2.190000*%
%ADD14O,1.700000X1.700000*%
%ADD15R,1.700000X1.700000*%
%ADD16RoundRect,0.218750X0.256250X-0.218750X0.256250X0.218750X-0.256250X0.218750X-0.256250X-0.218750X0*%
%ADD17RoundRect,0.075000X-0.700000X-0.075000X0.700000X-0.075000X0.700000X0.075000X-0.700000X0.075000X0*%
%ADD18RoundRect,0.075000X-0.075000X-0.700000X0.075000X-0.700000X0.075000X0.700000X-0.075000X0.700000X0*%
%ADD19RoundRect,0.100000X-0.100000X0.130000X-0.100000X-0.130000X0.100000X-0.130000X0.100000X0.130000X0*%
%ADD20RoundRect,0.100000X0.100000X-0.217500X0.100000X0.217500X-0.100000X0.217500X-0.100000X-0.217500X0*%
%ADD21RoundRect,0.100000X0.100000X-0.130000X0.100000X0.130000X-0.100000X0.130000X-0.100000X-0.130000X0*%
%ADD22RoundRect,0.100000X-0.100000X0.217500X-0.100000X-0.217500X0.100000X-0.217500X0.100000X0.217500X0*%
%ADD23R,1.498600X0.558800*%
%ADD24R,0.660400X2.768600*%
%ADD25R,0.800000X1.500000*%
%ADD26RoundRect,0.362500X-0.362500X-0.637500X0.362500X-0.637500X0.362500X0.637500X-0.362500X0.637500X0*%
%ADD27R,2.209800X2.260600*%
%ADD28R,3.835400X0.812800*%
%ADD29RoundRect,0.100000X0.217500X0.100000X-0.217500X0.100000X-0.217500X-0.100000X0.217500X-0.100000X0*%
G04 APERTURE END LIST*
D10*
X121871400Y-71000000D03*
D11*
X121871400Y-76000000D03*
X109371400Y-76000000D03*
X109371400Y-71000000D03*
D10*
X145971400Y-51100000D03*
D11*
X145971400Y-56100000D03*
X133471400Y-56100000D03*
X133471400Y-51100000D03*
D12*
X161320000Y-44300000D03*
D13*
X158780000Y-44300000D03*
X156240000Y-44300000D03*
X153700000Y-44300000D03*
X151160000Y-44300000D03*
D14*
X106475000Y-81980000D03*
X106475000Y-84520000D03*
X106475000Y-87060000D03*
D15*
X106475000Y-89600000D03*
D16*
X157300000Y-68987500D03*
X157300000Y-67412500D03*
D17*
X132325000Y-66750000D03*
X132325000Y-67250000D03*
X132325000Y-67750000D03*
X132325000Y-68250000D03*
X132325000Y-68750000D03*
X132325000Y-69250000D03*
X132325000Y-69750000D03*
X132325000Y-70250000D03*
X132325000Y-70750000D03*
X132325000Y-71250000D03*
X132325000Y-71750000D03*
X132325000Y-72250000D03*
X132325000Y-72750000D03*
X132325000Y-73250000D03*
X132325000Y-73750000D03*
X132325000Y-74250000D03*
D18*
X134250000Y-76175000D03*
X134750000Y-76175000D03*
X135250000Y-76175000D03*
X135750000Y-76175000D03*
X136250000Y-76175000D03*
X136750000Y-76175000D03*
X137250000Y-76175000D03*
X137750000Y-76175000D03*
X138250000Y-76175000D03*
X138750000Y-76175000D03*
X139250000Y-76175000D03*
X139750000Y-76175000D03*
X140250000Y-76175000D03*
X140750000Y-76175000D03*
X141250000Y-76175000D03*
X141750000Y-76175000D03*
D17*
X143675000Y-74250000D03*
X143675000Y-73750000D03*
X143675000Y-73250000D03*
X143675000Y-72750000D03*
X143675000Y-72250000D03*
X143675000Y-71750000D03*
X143675000Y-71250000D03*
X143675000Y-70750000D03*
X143675000Y-70250000D03*
X143675000Y-69750000D03*
X143675000Y-69250000D03*
X143675000Y-68750000D03*
X143675000Y-68250000D03*
X143675000Y-67750000D03*
X143675000Y-67250000D03*
X143675000Y-66750000D03*
D18*
X141750000Y-64825000D03*
X141250000Y-64825000D03*
X140750000Y-64825000D03*
X140250000Y-64825000D03*
X139750000Y-64825000D03*
X139250000Y-64825000D03*
X138750000Y-64825000D03*
X138250000Y-64825000D03*
X137750000Y-64825000D03*
X137250000Y-64825000D03*
X136750000Y-64825000D03*
X136250000Y-64825000D03*
X135750000Y-64825000D03*
X135250000Y-64825000D03*
X134750000Y-64825000D03*
X134250000Y-64825000D03*
D19*
X157500000Y-59780000D03*
X157500000Y-60420000D03*
X118700000Y-51980000D03*
X118700000Y-52620000D03*
D15*
X147180000Y-44400000D03*
D14*
X144640000Y-44400000D03*
X142100000Y-44400000D03*
X139560000Y-44400000D03*
X137020000Y-44400000D03*
X134480000Y-44400000D03*
X131940000Y-44400000D03*
X129400000Y-44400000D03*
D15*
X123040000Y-44100000D03*
D14*
X120500000Y-44100000D03*
X117960000Y-44100000D03*
X115420000Y-44100000D03*
D20*
X143300000Y-60300000D03*
X143300000Y-59485000D03*
D19*
X128500000Y-72780000D03*
X128500000Y-73420000D03*
X129000000Y-66860000D03*
X129000000Y-67500000D03*
D21*
X120600000Y-51520000D03*
X120600000Y-50880000D03*
X127600000Y-73420000D03*
X127600000Y-72780000D03*
D22*
X157300000Y-63400000D03*
X157300000Y-64215000D03*
D19*
X127000000Y-66880000D03*
X127000000Y-67520000D03*
X129400000Y-72780000D03*
X129400000Y-73420000D03*
D16*
X154300000Y-68987500D03*
X154300000Y-67412500D03*
D11*
X111000000Y-61300000D03*
X116000000Y-61300000D03*
D19*
X130670001Y-55430001D03*
X130670001Y-56070001D03*
D23*
X116405100Y-52705000D03*
X116405100Y-51435000D03*
X116405100Y-50165000D03*
X116405100Y-48895000D03*
X110994900Y-48895000D03*
X110994900Y-50165000D03*
X110994900Y-51435000D03*
X110994900Y-52705000D03*
D24*
X157535100Y-56407248D03*
X156265100Y-56407248D03*
X154995100Y-56407248D03*
X153725100Y-56407248D03*
X152455100Y-56407248D03*
X157535100Y-52367252D03*
X156265100Y-52367252D03*
X154995100Y-52367252D03*
X153725100Y-52367252D03*
X152455100Y-52367252D03*
D25*
X132400000Y-85200000D03*
X133500000Y-85200000D03*
X134600000Y-85200000D03*
X135700000Y-85200000D03*
X136800000Y-85200000D03*
X137900000Y-85200000D03*
X139000000Y-85200000D03*
X140100000Y-85200000D03*
D26*
X128730000Y-82600000D03*
X128730000Y-90900000D03*
X142480000Y-82600000D03*
X142480000Y-90900000D03*
D20*
X115400000Y-41407500D03*
X115400000Y-40592500D03*
D19*
X126000000Y-66880000D03*
X126000000Y-67520000D03*
D15*
X160300000Y-91660000D03*
D14*
X160300000Y-89120000D03*
X160300000Y-86580000D03*
X160300000Y-84040000D03*
X160300000Y-81500000D03*
X160300000Y-78960000D03*
X160300000Y-76420000D03*
D19*
X130000000Y-63380000D03*
X130000000Y-64020000D03*
X142400000Y-59380000D03*
X142400000Y-60020000D03*
D27*
X134555300Y-97900000D03*
X138644700Y-97900000D03*
D19*
X122600000Y-63680000D03*
X122600000Y-64320000D03*
X130000000Y-66860000D03*
X130000000Y-67500000D03*
D21*
X108266600Y-52140000D03*
X108266600Y-51500000D03*
D20*
X118100000Y-41407500D03*
X118100000Y-40592500D03*
D28*
X122642300Y-60000000D03*
X131557700Y-60000000D03*
D23*
X123794900Y-52195000D03*
X123794900Y-53465000D03*
X123794900Y-54735000D03*
X123794900Y-56005000D03*
X129205100Y-56005000D03*
X129205100Y-54735000D03*
X129205100Y-53465000D03*
X129205100Y-52195000D03*
D29*
X122207500Y-54700000D03*
X121392500Y-54700000D03*
D19*
X128000000Y-66880000D03*
X128000000Y-67520000D03*
D20*
X123800000Y-70607500D03*
X123800000Y-69792500D03*
D15*
X109620000Y-93200000D03*
D14*
X112160000Y-93200000D03*
X114700000Y-93200000D03*
X117240000Y-93200000D03*
D22*
X154310000Y-63485000D03*
X154310000Y-64300000D03*
M02*
